<?xml version="1.0" encoding="UTF-8" standalone="no"?>
<svg xmlns="http://www.w3.org/2000/svg" xmlns:xlink="http://www.w3.org/1999/xlink" width="48" height="48" version="1.0">
  <defs>
    <linearGradient id="d">
      <stop offset="0" stop-color="#fffffd"/>
      <stop offset="1" stop-color="#cbcbc9"/>
    </linearGradient>
    <linearGradient id="c">
      <stop offset="0"/>
      <stop offset="1" stop-opacity="0"/>
    </linearGradient>
    <linearGradient xlink:href="#a" id="b" x1="54.509937" x2="9.5471001" y1="41.179295" y2="16.248501" gradientUnits="userSpaceOnUse">
      <stop offset="0" stop-color="#ce0000"/>
      <stop offset="1" stop-color="#8b0000"/>
    </linearGradient>
    <linearGradient id="a" x1="52.778114" x2="22.0144" y1="-13.238551" y2="51.987099" gradientUnits="userSpaceOnUse">
      <stop offset="0" stop-color="#ffe1b8"/>
      <stop offset="1" stop-color="#ffd097"/>
    </linearGradient>
    <linearGradient xlink:href="#b" id="f" x1="54.509937" x2="9.5471001" y1="41.179295" y2="16.248501" gradientUnits="userSpaceOnUse"/>
    <radialGradient xlink:href="#c" id="e" cx="31.112698" cy="19.008621" r="8.6620579" fx="31.112698" fy="19.008621" gradientUnits="userSpaceOnUse"/>
    <radialGradient xlink:href="#d" id="g" cx="11.901996" cy="10.045444" r="29.292715" fx="11.901996" fy="10.045444" gradientUnits="userSpaceOnUse"/>
  </defs>
  <path fill="url(#e)" fill-rule="evenodd" d="M39.774755 19.008621a8.6620579 8.6620579 0 1 1-17.324115 0 8.6620579 8.6620579 0 1 1 17.324115 0z" color="#000" overflow="visible" style="marker:none" transform="matrix(2.56316 0 0 1.2196 -55.98414 14.04144)"/>
  <circle cx="31" cy="31" r="25.799999" fill="#f88" stroke="url(#f)" stroke-width="2" transform="translate(.07212055 -1.128843) scale(.76658)"/>
  <path fill="url(#g)" fill-rule="evenodd" stroke="#ce0000" stroke-linecap="round" stroke-linejoin="round" stroke-width=".71139598" d="M31.160714 16.910715a14.910714 14.910714 0 1 1-29.8214281 0 14.910714 14.910714 0 1 1 29.8214281 0z" transform="translate(4.6498242 2.5999541) scale(1.17498)"/>
  <path fill="#ce0000" fill-rule="evenodd" d="M16.679382 6.6387137a8.5 8.5 0 0 1 6.653309-3.2636084L23.375 11.875z" color="#000" overflow="visible" style="marker:none" transform="translate(-17.408368 1.4219697) scale(1.7869)"/>
  <path fill="#f3f3f3" fill-rule="evenodd" stroke="#000" stroke-linecap="round" stroke-linejoin="round" stroke-width="1.00957172" d="M26.73924232 22.705342a2.55101645 2.55101645 0 1 1-5.1020329 0 2.55101645 2.55101645 0 1 1 5.1020329 0z"/>
  <path fill="none" stroke="#000" stroke-linecap="round" stroke-width="1.00957251" d="m22.167738 20.712148-9.107265-7.650271"/>
  <path fill="none" stroke="#000" stroke-linecap="round" stroke-width="2.01914501" d="m19.373242 29.857352 2.988376-4.53629"/>
  <path fill="#b6b9b1" fill-rule="evenodd" d="M25.35313525 8.6225237a1.7174466 1.7174466 0 1 1-3.43489321 0 1.7174466 1.7174466 0 1 1 3.43489321 0zm0 27.479161a1.7174466 1.7174466 0 1 1-3.43489321 0 1.7174466 1.7174466 0 1 1 3.43489321 0zm-13.739585-13.7396053a1.7174466 1.7174466 0 1 1-3.43489321 0 1.7174466 1.7174466 0 1 1 3.43489321 0zm27.4791427 0a1.7174466 1.7174466 0 1 1-3.43489321 0 1.7174466 1.7174466 0 1 1 3.43489321 0z"/>
</svg>