<?xml version="1.0" encoding="UTF-8" standalone="no"?>
<svg xmlns="http://www.w3.org/2000/svg" xmlns:xlink="http://www.w3.org/1999/xlink" width="48" height="48" version="1.0">
  <defs>
    <linearGradient id="a">
      <stop offset="0" stop-color="#fff"/>
      <stop offset="1" stop-color="#fff" stop-opacity="0"/>
    </linearGradient>
    <linearGradient xlink:href="#a" id="G" x1="-26.753757" x2="-25" y1="11.566258" y2="9.812501" gradientUnits="userSpaceOnUse"/>
    <linearGradient id="b">
      <stop offset="0" stop-opacity=".41295547"/>
      <stop offset="1" stop-opacity="0"/>
    </linearGradient>
    <linearGradient xlink:href="#b" id="F" x1="-18.618725" x2="-30.558546" y1="10.211342" y2="12.189651" gradientTransform="matrix(.59468 0 0 .59278 -52.32735 61.274201)" gradientUnits="userSpaceOnUse"/>
    <linearGradient xlink:href="#c" id="D" x1="58.117188" x2="60.414062" y1="8.3125" y2="7" gradientTransform="matrix(1.14286 0 0 1 43.14286 60)" gradientUnits="userSpaceOnUse"/>
    <linearGradient id="c">
      <stop offset="0"/>
      <stop offset="1" stop-opacity="0"/>
    </linearGradient>
    <linearGradient xlink:href="#c" id="C" x1="58.117188" x2="60.414062" y1="8.3125" y2="7" gradientTransform="matrix(1.14286 0 0 1 43.14286 60)" gradientUnits="userSpaceOnUse"/>
    <linearGradient id="q">
      <stop offset="0" stop-color="#fff"/>
      <stop offset="1" stop-color="#fff" stop-opacity="0"/>
    </linearGradient>
    <linearGradient id="d">
      <stop offset="0" stop-color="#888a85"/>
      <stop offset="1" stop-color="#babdb6"/>
    </linearGradient>
    <linearGradient xlink:href="#d" id="A" x1="-47.5" x2="-62.75" y1="49.020683" y2="-22.502075" gradientTransform="matrix(.65744 0 0 .65795 -50.33039 60.190617)" gradientUnits="userSpaceOnUse"/>
    <linearGradient id="r">
      <stop offset="0" stop-color="#f6f6f5"/>
      <stop offset="1" stop-color="#d3d7cf"/>
    </linearGradient>
    <linearGradient xlink:href="#e" id="y" x1="25.058096" x2="25.058096" y1="47.027729" y2="39.999443" gradientUnits="userSpaceOnUse"/>
    <linearGradient id="e">
      <stop offset="0" stop-opacity="0"/>
      <stop offset=".5"/>
      <stop offset="1" stop-opacity="0"/>
    </linearGradient>
    <linearGradient xlink:href="#e" id="v" x1="25.058096" x2="25.058096" y1="47.027729" y2="39.999443" gradientUnits="userSpaceOnUse"/>
    <linearGradient id="s">
      <stop offset="0"/>
      <stop offset="1" stop-opacity="0"/>
    </linearGradient>
    <linearGradient id="f">
      <stop offset="0" stop-color="#fff"/>
      <stop offset="1" stop-color="#fff" stop-opacity="0"/>
    </linearGradient>
    <linearGradient xlink:href="#f" id="aj" x1="58.748795" x2="105.32369" y1="2.047786" y2="58.047787" gradientTransform="matrix(.62062 0 0 .61416 -22.734446 -.6310522)" gradientUnits="userSpaceOnUse"/>
    <linearGradient id="g">
      <stop offset="0" stop-color="#729fcf"/>
      <stop offset="1" stop-color="#3465a4"/>
    </linearGradient>
    <linearGradient xlink:href="#g" id="ai" x1="17" x2="17" y1="7" y2="26" gradientTransform="matrix(1.00002 0 0 1 9.009453 -.999992)" gradientUnits="userSpaceOnUse"/>
    <linearGradient id="p">
      <stop offset="0" stop-color="#888a85"/>
      <stop offset="1" stop-color="#888a85" stop-opacity="0"/>
    </linearGradient>
    <linearGradient id="o">
      <stop offset="0" stop-color="#fff"/>
      <stop offset="1" stop-color="#fff" stop-opacity="0"/>
    </linearGradient>
    <linearGradient id="n">
      <stop offset="0" stop-color="#d7b47f"/>
      <stop offset="1" stop-color="#f4dbb3"/>
    </linearGradient>
    <linearGradient id="m">
      <stop offset="0" stop-color="#fff"/>
      <stop offset="1" stop-color="#fff" stop-opacity="0"/>
    </linearGradient>
    <linearGradient id="k">
      <stop offset="0"/>
      <stop offset="1" stop-opacity="0"/>
    </linearGradient>
    <linearGradient id="j">
      <stop offset="0" stop-color="#f9ead2"/>
      <stop offset="1" stop-color="#e4a546"/>
    </linearGradient>
    <linearGradient id="h">
      <stop offset="0" stop-color="#120c02"/>
      <stop offset="1" stop-color="#b97a1b"/>
    </linearGradient>
    <linearGradient id="i">
      <stop offset="0" stop-color="#a0670c"/>
      <stop offset="1" stop-color="#e6c99d"/>
    </linearGradient>
    <linearGradient id="l">
      <stop offset="0" stop-color="#eaba6f"/>
      <stop offset="1" stop-color="#b97a1b"/>
    </linearGradient>
    <linearGradient xlink:href="#h" id="Z" x1="24.990499" x2="23.451571" y1="49.424099" y2="14.38251" gradientTransform="matrix(.70968 0 0 .2991 10.629488 16.176929)" gradientUnits="userSpaceOnUse"/>
    <linearGradient xlink:href="#i" id="ad" x1="6.6749902" x2="8" y1="10.140735" y2="10.654029" gradientTransform="matrix(.70023 0 0 .72014 14.325115 18.126755)" gradientUnits="userSpaceOnUse"/>
    <linearGradient xlink:href="#i" id="K" x1="41.448223" x2="37.308056" y1="9.3452396" y2="10.742416" gradientTransform="matrix(.70023 0 0 .72182 14.325115 18.126621)" gradientUnits="userSpaceOnUse"/>
    <linearGradient xlink:href="#j" id="J" x1="37.308056" x2="43.588387" y1="20.232172" y2="23.422194" gradientTransform="matrix(.70023 0 0 .95995 14.325115 6.4588498)" gradientUnits="userSpaceOnUse"/>
    <linearGradient xlink:href="#j" id="ac" x1="8" x2="1.8265705" y1="16.526962" y2="23.499716" gradientTransform="matrix(.70023 0 0 .95771 14.325115 6.4861578)" gradientUnits="userSpaceOnUse"/>
    <linearGradient xlink:href="#k" id="aa" x1="24.5" x2="24.5" y1="17.8125" y2="26.1875" gradientTransform="matrix(.70023 0 0 .7 14.325115 18.459039)" gradientUnits="userSpaceOnUse"/>
    <linearGradient xlink:href="#l" id="I" x1="24.990499" x2="23.451571" y1="49.424099" y2="14.38251" gradientTransform="matrix(.70721 0 0 .83948 10.736635 11.571245)" gradientUnits="userSpaceOnUse"/>
    <linearGradient xlink:href="#m" id="ab" x1="29.953026" x2="27.595888" y1="32.241776" y2="14.147761" gradientUnits="userSpaceOnUse"/>
    <linearGradient xlink:href="#l" id="af" x1="17.326572" x2="17.701572" y1="24.163702" y2="27.945204" gradientTransform="matrix(.70023 0 0 .88544 14.325115 8.0882118)" gradientUnits="userSpaceOnUse"/>
    <linearGradient xlink:href="#i" id="ag" x1="24.88299" x2="25.148155" y1="14.294987" y2="10.941941" gradientTransform="matrix(.70023 0 0 .6658 14.325115 18.850398)" gradientUnits="userSpaceOnUse"/>
    <linearGradient xlink:href="#n" id="ae" x1="5.5785265" x2="27.621359" y1="3.273787" y2="3.273787" gradientTransform="matrix(1 0 0 .83333 14.000455 21.2492)" gradientUnits="userSpaceOnUse"/>
    <linearGradient xlink:href="#o" id="ah" x1="23.157747" x2="23.157747" y1="11.36132" y2="5.5276899" gradientUnits="userSpaceOnUse"/>
    <linearGradient xlink:href="#e" id="N" x1="25.058096" x2="25.058096" y1="47.027729" y2="39.999443" gradientUnits="userSpaceOnUse"/>
    <linearGradient xlink:href="#e" id="Q" x1="25.058096" x2="25.058096" y1="47.027729" y2="39.999443" gradientUnits="userSpaceOnUse"/>
    <linearGradient xlink:href="#d" id="S" x1="-47.5" x2="-62.75" y1="49.020683" y2="-22.502075" gradientTransform="matrix(.65744 0 0 .65795 -50.33039 60.190617)" gradientUnits="userSpaceOnUse"/>
    <linearGradient xlink:href="#c" id="U" x1="58.117188" x2="60.414062" y1="8.3125" y2="7" gradientTransform="matrix(1.14286 0 0 1 43.14286 60)" gradientUnits="userSpaceOnUse"/>
    <linearGradient xlink:href="#c" id="V" x1="58.117188" x2="60.414062" y1="8.3125" y2="7" gradientTransform="matrix(1.14286 0 0 1 43.14286 60)" gradientUnits="userSpaceOnUse"/>
    <linearGradient xlink:href="#b" id="X" x1="-18.618725" x2="-30.558546" y1="10.211342" y2="12.189651" gradientTransform="matrix(.59468 0 0 .59278 -52.32735 61.274201)" gradientUnits="userSpaceOnUse"/>
    <linearGradient xlink:href="#a" id="Y" x1="-26.753757" x2="-25" y1="11.566258" y2="9.812501" gradientUnits="userSpaceOnUse"/>
    <radialGradient xlink:href="#p" id="E" cx="-26.305403" cy="10.108011" r="7.0421038" fx="-26.305403" fy="10.108011" gradientTransform="matrix(.26264 -.18058 .48425 .7055 -66.98799 54.973505)" gradientUnits="userSpaceOnUse"/>
    <radialGradient xlink:href="#q" id="B" cx="4" cy="5.2999997" r="17" fx="4" fy="5.2999997" gradientTransform="matrix(1.88603 0 0 1.17647 -3.5441033 -4.2352941)" gradientUnits="userSpaceOnUse"/>
    <radialGradient xlink:href="#r" id="z" cx="-30.249996" cy="35.357208" r="18.000002" fx="-30.249996" fy="35.357208" gradientTransform="matrix(2.62697 0 0 1.27316 9.2479 39.684019)" gradientUnits="userSpaceOnUse"/>
    <radialGradient xlink:href="#s" id="x" cx="4.9929786" cy="43.5" r="2.5" fx="4.9929786" fy="43.5" gradientTransform="matrix(2.00378 0 0 1.4 -20.01187 -104.4)" gradientUnits="userSpaceOnUse"/>
    <radialGradient xlink:href="#s" id="w" cx="4.9929786" cy="43.5" r="2.5" fx="4.9929786" fy="43.5" gradientTransform="matrix(2.00378 0 0 1.4 27.98813 -17.4)" gradientUnits="userSpaceOnUse"/>
    <radialGradient xlink:href="#s" id="u" cx="4.9929786" cy="43.5" r="2.5" fx="4.9929786" fy="43.5" gradientTransform="matrix(2.00378 0 0 1.4 -20.01187 -104.4)" gradientUnits="userSpaceOnUse"/>
    <radialGradient xlink:href="#s" id="t" cx="4.9929786" cy="43.5" r="2.5" fx="4.9929786" fy="43.5" gradientTransform="matrix(2.00378 0 0 1.4 27.98813 -17.4)" gradientUnits="userSpaceOnUse"/>
    <radialGradient xlink:href="#s" id="L" cx="4.9929786" cy="43.5" r="2.5" fx="4.9929786" fy="43.5" gradientTransform="matrix(2.00378 0 0 1.4 27.98813 -17.4)" gradientUnits="userSpaceOnUse"/>
    <radialGradient xlink:href="#s" id="M" cx="4.9929786" cy="43.5" r="2.5" fx="4.9929786" fy="43.5" gradientTransform="matrix(2.00378 0 0 1.4 -20.01187 -104.4)" gradientUnits="userSpaceOnUse"/>
    <radialGradient xlink:href="#s" id="O" cx="4.9929786" cy="43.5" r="2.5" fx="4.9929786" fy="43.5" gradientTransform="matrix(2.00378 0 0 1.4 27.98813 -17.4)" gradientUnits="userSpaceOnUse"/>
    <radialGradient xlink:href="#s" id="P" cx="4.9929786" cy="43.5" r="2.5" fx="4.9929786" fy="43.5" gradientTransform="matrix(2.00378 0 0 1.4 -20.01187 -104.4)" gradientUnits="userSpaceOnUse"/>
    <radialGradient xlink:href="#r" id="R" cx="-30.249996" cy="35.357208" r="18.000002" fx="-30.249996" fy="35.357208" gradientTransform="matrix(2.62697 0 0 1.27316 9.2479 39.684019)" gradientUnits="userSpaceOnUse"/>
    <radialGradient xlink:href="#q" id="T" cx="4" cy="5.2999997" r="17" fx="4" fy="5.2999997" gradientTransform="matrix(1.88603 0 0 1.17647 -3.5441033 -4.2352941)" gradientUnits="userSpaceOnUse"/>
    <radialGradient xlink:href="#p" id="W" cx="-26.305403" cy="10.108011" r="7.0421038" fx="-26.305403" fy="10.108011" gradientTransform="matrix(.26264 -.18058 .48425 .7055 -66.98799 54.973505)" gradientUnits="userSpaceOnUse"/>
    <filter id="H" width="1.2223207" height="2.0143383" x="-.11116035" y="-.50716913">
      <feGaussianBlur stdDeviation="2.0286765"/>
    </filter>
  </defs>
  <g transform="translate(88 -60)">
    <g opacity=".65587045">
      <g opacity=".4" transform="matrix(.73434 0 0 .7619 -91.67167877 55.85717157)">
        <path fill="url(#t)" d="M38 40h5v7h-5z" opacity="1"/>
        <path fill="url(#u)" d="M-10-47h5v7h-5z" opacity="1" transform="scale(-1)"/>
        <path fill="url(#v)" d="M10 40h28v7.0000005H10z" opacity="1"/>
      </g>
    </g>
    <g opacity=".4" transform="matrix(.67007 0 0 .4762 -90.12925141 68.2857099)">
      <path fill="url(#w)" d="M38 40h5v7h-5z" opacity="1"/>
      <path fill="url(#x)" d="M-10-47h5v7h-5z" opacity="1" transform="scale(-1)"/>
      <path fill="url(#y)" d="M10 40h28v7.0000005H10z" opacity="1"/>
    </g>
    <path fill="url(#z)" stroke="url(#A)" stroke-width=".99999994" d="M-84.17295 62.493441h12.47571c2.54893.047993 4.27337 1.644875 5.91697 3.289749 1.64361 1.644874 3.02928 3.455963 3.28721 5.921548v16.433047c0 .737704-.59343 1.331597-1.33057 1.331597h-20.34932c-.73713 0-1.33057-.593893-1.33057-1.331597V63.825038c0-.737705.59344-1.331597 1.33057-1.331597z"/>
    <path fill="url(#B)" d="M8.53125 4.28125c-.6964677 0-1.25.5535322-1.25 1.25v36.9375c0 .696468.5535322 1.25 1.25 1.25h30.9375c.696467 0 1.25-.553534 1.25-1.25V17.5c0-1.325561-.512526-4.168776-2.28125-5.9375l-5-5C31.668776 4.7937758 28.825561 4.28125 27.5 4.28125H8.53125z" opacity=".68016196" transform="matrix(.65744 0 0 .65795 -89.77689 60.190617)"/>
    <g opacity=".15" transform="translate(-180)">
      <rect width="15.999999" height="1" x="98" y="69" fill="url(#C)" opacity="1" rx=".57142854" ry=".5"/>
      <rect width="15.999999" height="1" x="98" y="71" opacity="1" rx=".55749142" ry=".5"/>
      <rect width="15.999999" height="1" x="98" y="73" opacity="1" rx=".57142854" ry=".5"/>
      <rect width="15.999999" height="1" x="98" y="75" opacity="1" rx=".57142854" ry=".5"/>
      <rect width="15.999999" height="1" x="98" y="77" opacity="1" rx=".57142854" ry=".5"/>
      <rect width="15.999999" height="1" x="98" y="79" opacity="1" rx=".57142854" ry=".5"/>
      <rect width="15.999999" height="1" x="98" y="81" opacity="1" rx=".57142854" ry=".5"/>
      <rect width="9.1428566" height="1" x="98" y="83" opacity="1" rx=".57142854" ry=".5"/>
      <rect width="14.999999" height="1" x="98" y="67" fill="url(#D)" opacity="1" rx=".55749142" ry=".5"/>
    </g>
    <path fill="url(#E)" d="M-71.70464 63c-.89553 0-.02713.320785.86642.725993C-69.94467 64.131202-68.47346 65.638136-69 68c4.56932-.707107 5.1482 2.177572 5.35509 2.925424.20689.747851.64478 1.68278.64478.786492.01827-2.455844-1.83467-4.150551-3.12315-5.586113-1.28847-1.435561-3.22548-2.818136-5.58136-3.125803z"/>
    <path fill="url(#F)" d="M-70.99482 63.654589C-70.40014 63.654589-70 67.5-70 70c3 0 5.70366.451814 6 1-.20689-.747852-.53856-3.773398-5-3 .55752-2.500797-1.21299-4.107705-1.99482-4.345411z" opacity=".87854249"/>
    <path fill="none" stroke="url(#G)" stroke-width="1.52046025" d="M-51.46875 5.0625c-.271718 0-.46875.1970315-.46875.46875v36.9375c0 .271717.197033.46875.46875.46875h30.9375c.271717 0 .46875-.197033.46875-.46875V17.5c0-1.151122-.525052-3.837552-2.0625-5.375l-5-5c-1.537448-1.5374483-4.223878-2.0625-5.375-2.0625h-18.96875z" transform="matrix(.65744 0 0 .65795 -50.33039 60.190617)"/>
  </g>
  <rect width="36.5" height="8" x="5" y="31" display="block" enable-background="accumulate" filter="url(#H)" opacity=".5" overflow="visible" rx="5.7124391" ry="5.7142935" style="marker:none" transform="matrix(.70023 0 0 .7 14.325115 18.459039)"/>
  <rect width="21.923641" height="17.990171" x="19.576813" y="26.509027" fill="url(#I)" stroke="#a0670c" stroke-width="1.00000083" display="block" enable-background="accumulate" overflow="visible" rx="1.9142135" ry="1.9142134" style="marker:none"/>
  <path fill="url(#J)" stroke="url(#K)" stroke-linejoin="round" d="m41.283828 26.413383 4.242012 2.710026-.659572-4.839768-3.695605-2.784441.113165 4.914183z" display="block" enable-background="accumulate" overflow="visible" style="marker:none"/>
  <g transform="translate(91 -57)">
    <g opacity=".65587045">
      <g opacity=".4" transform="matrix(.73434 0 0 .7619 -91.67167877 55.85717157)">
        <path fill="url(#L)" d="M38 40h5v7h-5z" opacity="1"/>
        <path fill="url(#M)" d="M-10-47h5v7h-5z" opacity="1" transform="scale(-1)"/>
        <path fill="url(#N)" d="M10 40h28v7.0000005H10z" opacity="1"/>
      </g>
    </g>
    <g opacity=".4" transform="matrix(.67007 0 0 .4762 -90.12925141 68.2857099)">
      <path fill="url(#O)" d="M38 40h5v7h-5z" opacity="1"/>
      <path fill="url(#P)" d="M-10-47h5v7h-5z" opacity="1" transform="scale(-1)"/>
      <path fill="url(#Q)" d="M10 40h28v7.0000005H10z" opacity="1"/>
    </g>
    <path fill="url(#R)" stroke="url(#S)" stroke-width=".99999994" d="M-84.17295 62.493441h12.47571c2.54893.047993 4.27337 1.644875 5.91697 3.289749 1.64361 1.644874 3.02928 3.455963 3.28721 5.921548v16.433047c0 .737704-.59343 1.331597-1.33057 1.331597h-20.34932c-.73713 0-1.33057-.593893-1.33057-1.331597V63.825038c0-.737705.59344-1.331597 1.33057-1.331597z"/>
    <path fill="url(#T)" d="M8.53125 4.28125c-.6964677 0-1.25.5535322-1.25 1.25v36.9375c0 .696468.5535322 1.25 1.25 1.25h30.9375c.696467 0 1.25-.553534 1.25-1.25V17.5c0-1.325561-.512526-4.168776-2.28125-5.9375l-5-5C31.668776 4.7937758 28.825561 4.28125 27.5 4.28125H8.53125z" opacity=".68016196" transform="matrix(.65744 0 0 .65795 -89.77689 60.190617)"/>
    <g opacity=".15" transform="translate(-180)">
      <rect width="15.999999" height="1" x="98" y="69" fill="url(#U)" opacity="1" rx=".57142854" ry=".5"/>
      <rect width="15.999999" height="1" x="98" y="71" opacity="1" rx=".55749142" ry=".5"/>
      <rect width="15.999999" height="1" x="98" y="73" opacity="1" rx=".57142854" ry=".5"/>
      <rect width="15.999999" height="1" x="98" y="75" opacity="1" rx=".57142854" ry=".5"/>
      <rect width="15.999999" height="1" x="98" y="77" opacity="1" rx=".57142854" ry=".5"/>
      <rect width="15.999999" height="1" x="98" y="79" opacity="1" rx=".57142854" ry=".5"/>
      <rect width="15.999999" height="1" x="98" y="81" opacity="1" rx=".57142854" ry=".5"/>
      <rect width="9.1428566" height="1" x="98" y="83" opacity="1" rx=".57142854" ry=".5"/>
      <rect width="14.999999" height="1" x="98" y="67" fill="url(#V)" opacity="1" rx=".55749142" ry=".5"/>
    </g>
    <path fill="url(#W)" d="M-71.70464 63c-.89553 0-.02713.320785.86642.725993C-69.94467 64.131202-68.47346 65.638136-69 68c4.56932-.707107 5.1482 2.177572 5.35509 2.925424.20689.747851.64478 1.68278.64478.786492.01827-2.455844-1.83467-4.150551-3.12315-5.586113-1.28847-1.435561-3.22548-2.818136-5.58136-3.125803z"/>
    <path fill="url(#X)" d="M-70.99482 63.654589C-70.40014 63.654589-70 67.5-70 70c3 0 5.70366.451814 6 1-.20689-.747852-.53856-3.773398-5-3 .55752-2.500797-1.21299-4.107705-1.99482-4.345411z" opacity=".87854249"/>
    <path fill="none" stroke="url(#Y)" stroke-width="1.52046025" d="M-51.46875 5.0625c-.271718 0-.46875.1970315-.46875.46875v36.9375c0 .271717.197033.46875.46875.46875h30.9375c.271717 0 .46875-.197033.46875-.46875V17.5c0-1.151122-.525052-3.837552-2.0625-5.375l-5-5c-1.537448-1.5374483-4.223878-2.0625-5.375-2.0625h-18.96875z" transform="matrix(.65744 0 0 .65795 -50.33039 60.190617)"/>
  </g>
  <rect width="22" height="6.4098258" x="19.500456" y="21.499201" fill="url(#Z)" stroke="#a0670c" stroke-width="1.00000083" display="block" enable-background="accumulate" overflow="visible" rx=".55153912" ry=".55368161" style="marker:none"/>
  <path fill="url(#aa)" d="M19.751869 29.134026h21.181845v8.1374884H19.751869z" display="block" enable-background="accumulate" opacity=".55294118" overflow="visible" style="marker:none"/>
  <path fill="none" stroke="url(#ab)" stroke-width="1.00524569" d="M22.5 27.5625c-.477972 0-.875.397028-.875.875v14.15625c0 .477972.376273.84375.875.84375h18.09375c.498729 0 .84375-.34502.84375-.84375V28.4375c0-.498729-.365775-.875-.84375-.875H22.5z" display="block" enable-background="accumulate" opacity=".47647059" overflow="visible" style="marker:none" transform="matrix(1.00946 0 0 .98031 -.187697 .5238683)"/>
  <path fill="url(#ac)" stroke="url(#ad)" stroke-linejoin="round" stroke-width="1.00000083" d="m19.620577 21.4992-.043764 4.909136L15.478 30.009023l.618919-5.655638 3.523658-2.854185z" display="block" enable-background="accumulate" overflow="visible" style="marker:none"/>
  <rect width="22" height="5" x="19.500454" y="22.499201" fill="none" stroke="url(#ae)" stroke-dashoffset=".69999992" stroke-linecap="round" stroke-linejoin="round" stroke-width=".99999988" opacity=".61363639" rx=".46323475" ry=".46323472"/>
  <path fill="url(#af)" stroke="url(#ag)" stroke-width="1.00000083" d="M19.617466 26.468387 18.217014 32.4992h24.446029l-1.33234-6.010619-21.713237-.020194z" display="block" enable-background="accumulate" overflow="visible" style="marker:none"/>
  <path fill="none" stroke="url(#ah)" stroke-width="1.00000083" d="M6.4375 7.46875 5.5 11.5h21.875l-.875-4-20.0625-.03125z" display="block" enable-background="accumulate" opacity=".3" overflow="visible" style="marker:none" transform="translate(14.000455 19.9992)"/>
  <path fill="url(#ai)" stroke="#204a87" stroke-width="1.00000882" d="m37.509995 16.50775-7.434851 8.992246-7.397591-8.992246h3.763242c1.264734-3.369249-1.237364-5.358197-4.244821-5.507747-2.662421-.132401-5.153888 1.434489-6.186388 3.999997-.377087.57116-1.62769 1.21622-1.500547-.749299-.030858-4.5087883 3.998315-8.7610263 9.758194-8.7506964 5.75988.01033 9.636994 4.335808 9.320028 11.0077454h3.922734z" overflow="visible" style="marker:none"/>
  <path fill="none" stroke="url(#aj)" stroke-width="1.00000882" d="m35.440806 17.531599-5.365662 6.562097-5.386933-6.562097 2.433677.03312c1.887946-3.375858-.570241-7.459547-4.404274-7.564717-3.086249-.0846594-5.644807.94747-6.824769 3.241969-.247402-2.721849 3.486995-6.7388468 8.335388-6.7602568 4.848392-.02141 8.993831 3.0564286 8.377099 11.0498848h2.835474z" enable-background="accumulate" opacity=".35400002" overflow="visible" style="marker:none"/>
</svg>