<?xml version="1.0" encoding="utf-8" standalone="no"?>
<svg xmlns:xlink="http://www.w3.org/1999/xlink" width="460.8pt" height="345.6pt" viewBox="0 0 460.8 345.6" xmlns="http://www.w3.org/2000/svg" version="1.1">
 <metadata>
  <rdf:RDF xmlns:dc="http://purl.org/dc/elements/1.1/" xmlns:cc="http://creativecommons.org/ns#" xmlns:rdf="http://www.w3.org/1999/02/22-rdf-syntax-ns#">
   <cc:Work>
    <dc:type rdf:resource="http://purl.org/dc/dcmitype/StillImage"/>
    <dc:date>2025-07-11T14:03:32.437389</dc:date>
    <dc:format>image/svg+xml</dc:format>
    <dc:creator>
     <cc:Agent>
      <dc:title>Matplotlib v3.10.3, https://matplotlib.org/</dc:title>
     </cc:Agent>
    </dc:creator>
   </cc:Work>
  </rdf:RDF>
 </metadata>
 <defs>
  <style type="text/css">*{stroke-linejoin: round; stroke-linecap: butt}</style>
 </defs>
 <g id="figure_1">
  <g id="patch_1">
   <path d="M 0 345.6 
L 460.8 345.6 
L 460.8 0 
L 0 0 
z
" style="fill: #ffffff"/>
  </g>
  <g id="axes_1">
   <g id="patch_2">
    <path d="M 57.6 276.48 
L 414.72 276.48 
L 414.72 41.472 
L 57.6 41.472 
z
" style="fill: #ffffff"/>
   </g>
   <g id="patch_3">
    <path d="M 73.832727 276.48 
L 75.204632 276.48 
L 75.204632 262.137586 
L 73.832727 262.137586 
z
" clip-path="url(#pbd6e9b3979)" style="fill: #1f77b4"/>
   </g>
   <g id="patch_4">
    <path d="M 75.204632 276.48 
L 76.576536 276.48 
L 76.576536 249.682332 
L 75.204632 249.682332 
z
" clip-path="url(#pbd6e9b3979)" style="fill: #1f77b4"/>
   </g>
   <g id="patch_5">
    <path d="M 76.576536 276.48 
L 77.948441 276.48 
L 77.948441 259.495563 
L 76.576536 259.495563 
z
" clip-path="url(#pbd6e9b3979)" style="fill: #1f77b4"/>
   </g>
   <g id="patch_6">
    <path d="M 77.904186 276.48 
L 79.27609 276.48 
L 79.27609 244.775717 
L 77.904186 244.775717 
z
" clip-path="url(#pbd6e9b3979)" style="fill: #1f77b4"/>
   </g>
   <g id="patch_7">
    <path d="M 79.27609 276.48 
L 80.647994 276.48 
L 80.647994 173.818511 
L 79.27609 173.818511 
z
" clip-path="url(#pbd6e9b3979)" style="fill: #1f77b4"/>
   </g>
   <g id="patch_8">
    <path d="M 80.603739 276.48 
L 81.975644 276.48 
L 81.975644 139.472204 
L 80.603739 139.472204 
z
" clip-path="url(#pbd6e9b3979)" style="fill: #1f77b4"/>
   </g>
   <g id="patch_9">
    <path d="M 81.975644 276.48 
L 83.347548 276.48 
L 83.347548 235.71735 
L 81.975644 235.71735 
z
" clip-path="url(#pbd6e9b3979)" style="fill: #1f77b4"/>
   </g>
   <g id="patch_10">
    <path d="M 83.347548 276.48 
L 84.719453 276.48 
L 84.719453 244.020853 
L 83.347548 244.020853 
z
" clip-path="url(#pbd6e9b3979)" style="fill: #1f77b4"/>
   </g>
   <g id="patch_11">
    <path d="M 84.586688 276.48 
L 85.958592 276.48 
L 85.958592 224.771824 
L 84.586688 224.771824 
z
" clip-path="url(#pbd6e9b3979)" style="fill: #1f77b4"/>
   </g>
   <g id="patch_12">
    <path d="M 85.958592 276.48 
L 87.330497 276.48 
L 87.330497 224.771824 
L 85.958592 224.771824 
z
" clip-path="url(#pbd6e9b3979)" style="fill: #1f77b4"/>
   </g>
   <g id="patch_13">
    <path d="M 87.286242 276.48 
L 88.658146 276.48 
L 88.658146 236.849646 
L 87.286242 236.849646 
z
" clip-path="url(#pbd6e9b3979)" style="fill: #1f77b4"/>
   </g>
   <g id="patch_14">
    <path d="M 88.658146 276.48 
L 90.030051 276.48 
L 90.030051 248.172604 
L 88.658146 248.172604 
z
" clip-path="url(#pbd6e9b3979)" style="fill: #1f77b4"/>
   </g>
   <g id="patch_15">
    <path d="M 89.985796 276.48 
L 91.3577 276.48 
L 91.3577 244.020853 
L 89.985796 244.020853 
z
" clip-path="url(#pbd6e9b3979)" style="fill: #1f77b4"/>
   </g>
   <g id="patch_16">
    <path d="M 91.3577 276.48 
L 92.729604 276.48 
L 92.729604 239.114238 
L 91.3577 239.114238 
z
" clip-path="url(#pbd6e9b3979)" style="fill: #1f77b4"/>
   </g>
   <g id="patch_17">
    <path d="M 92.729604 276.48 
L 94.101509 276.48 
L 94.101509 248.550036 
L 92.729604 248.550036 
z
" clip-path="url(#pbd6e9b3979)" style="fill: #1f77b4"/>
   </g>
   <g id="patch_18">
    <path d="M 94.057254 276.48 
L 95.429158 276.48 
L 95.429158 241.756261 
L 94.057254 241.756261 
z
" clip-path="url(#pbd6e9b3979)" style="fill: #1f77b4"/>
   </g>
   <g id="patch_19">
    <path d="M 95.429158 276.48 
L 96.801063 276.48 
L 96.801063 234.207622 
L 95.429158 234.207622 
z
" clip-path="url(#pbd6e9b3979)" style="fill: #1f77b4"/>
   </g>
   <g id="patch_20">
    <path d="M 96.756808 276.48 
L 98.128712 276.48 
L 98.128712 243.643421 
L 96.756808 243.643421 
z
" clip-path="url(#pbd6e9b3979)" style="fill: #1f77b4"/>
   </g>
   <g id="patch_21">
    <path d="M 98.128712 276.48 
L 99.500617 276.48 
L 99.500617 240.623965 
L 98.128712 240.623965 
z
" clip-path="url(#pbd6e9b3979)" style="fill: #1f77b4"/>
   </g>
   <g id="patch_22">
    <path d="M 99.500617 276.48 
L 100.872521 276.48 
L 100.872521 241.378829 
L 99.500617 241.378829 
z
" clip-path="url(#pbd6e9b3979)" style="fill: #1f77b4"/>
   </g>
   <g id="patch_23">
    <path d="M 100.739756 276.48 
L 102.111661 276.48 
L 102.111661 231.188167 
L 100.739756 231.188167 
z
" clip-path="url(#pbd6e9b3979)" style="fill: #1f77b4"/>
   </g>
   <g id="patch_24">
    <path d="M 102.111661 276.48 
L 103.483565 276.48 
L 103.483565 224.771824 
L 102.111661 224.771824 
z
" clip-path="url(#pbd6e9b3979)" style="fill: #1f77b4"/>
   </g>
   <g id="patch_25">
    <path d="M 103.43931 276.48 
L 104.811214 276.48 
L 104.811214 214.581161 
L 103.43931 214.581161 
z
" clip-path="url(#pbd6e9b3979)" style="fill: #1f77b4"/>
   </g>
   <g id="patch_26">
    <path d="M 104.811214 276.48 
L 106.183119 276.48 
L 106.183119 224.771824 
L 104.811214 224.771824 
z
" clip-path="url(#pbd6e9b3979)" style="fill: #1f77b4"/>
   </g>
   <g id="patch_27">
    <path d="M 106.138864 276.48 
L 107.510768 276.48 
L 107.510768 221.374936 
L 106.138864 221.374936 
z
" clip-path="url(#pbd6e9b3979)" style="fill: #1f77b4"/>
   </g>
   <g id="patch_28">
    <path d="M 107.510768 276.48 
L 108.882673 276.48 
L 108.882673 231.188167 
L 107.510768 231.188167 
z
" clip-path="url(#pbd6e9b3979)" style="fill: #1f77b4"/>
   </g>
   <g id="patch_29">
    <path d="M 108.882673 276.48 
L 110.254577 276.48 
L 110.254577 211.939138 
L 108.882673 211.939138 
z
" clip-path="url(#pbd6e9b3979)" style="fill: #1f77b4"/>
   </g>
   <g id="patch_30">
    <path d="M 110.210322 276.48 
L 111.582227 276.48 
L 111.582227 217.600617 
L 110.210322 217.600617 
z
" clip-path="url(#pbd6e9b3979)" style="fill: #1f77b4"/>
   </g>
   <g id="patch_31">
    <path d="M 111.582227 276.48 
L 112.954131 276.48 
L 112.954131 216.845753 
L 111.582227 216.845753 
z
" clip-path="url(#pbd6e9b3979)" style="fill: #1f77b4"/>
   </g>
   <g id="patch_32">
    <path d="M 112.909876 276.48 
L 114.281781 276.48 
L 114.281781 213.071433 
L 112.909876 213.071433 
z
" clip-path="url(#pbd6e9b3979)" style="fill: #1f77b4"/>
   </g>
   <g id="patch_33">
    <path d="M 114.281781 276.48 
L 115.653685 276.48 
L 115.653685 191.935245 
L 114.281781 191.935245 
z
" clip-path="url(#pbd6e9b3979)" style="fill: #1f77b4"/>
   </g>
   <g id="patch_34">
    <path d="M 115.653685 276.48 
L 117.025589 276.48 
L 117.025589 206.277658 
L 115.653685 206.277658 
z
" clip-path="url(#pbd6e9b3979)" style="fill: #1f77b4"/>
   </g>
   <g id="patch_35">
    <path d="M 116.937079 276.48 
L 118.308984 276.48 
L 118.308984 203.635635 
L 116.937079 203.635635 
z
" clip-path="url(#pbd6e9b3979)" style="fill: #1f77b4"/>
   </g>
   <g id="patch_36">
    <path d="M 118.308984 276.48 
L 119.680888 276.48 
L 119.680888 205.900226 
L 118.308984 205.900226 
z
" clip-path="url(#pbd6e9b3979)" style="fill: #1f77b4"/>
   </g>
   <g id="patch_37">
    <path d="M 119.636633 276.48 
L 121.008538 276.48 
L 121.008538 175.328239 
L 119.636633 175.328239 
z
" clip-path="url(#pbd6e9b3979)" style="fill: #1f77b4"/>
   </g>
   <g id="patch_38">
    <path d="M 121.008538 276.48 
L 122.380442 276.48 
L 122.380442 191.935245 
L 121.008538 191.935245 
z
" clip-path="url(#pbd6e9b3979)" style="fill: #1f77b4"/>
   </g>
   <g id="patch_39">
    <path d="M 122.336187 276.48 
L 123.708092 276.48 
L 123.708092 182.499446 
L 122.336187 182.499446 
z
" clip-path="url(#pbd6e9b3979)" style="fill: #1f77b4"/>
   </g>
   <g id="patch_40">
    <path d="M 123.708092 276.48 
L 125.079996 276.48 
L 125.079996 182.876878 
L 123.708092 182.876878 
z
" clip-path="url(#pbd6e9b3979)" style="fill: #1f77b4"/>
   </g>
   <g id="patch_41">
    <path d="M 125.079996 276.48 
L 126.4519 276.48 
L 126.4519 197.219292 
L 125.079996 197.219292 
z
" clip-path="url(#pbd6e9b3979)" style="fill: #1f77b4"/>
   </g>
   <g id="patch_42">
    <path d="M 126.407645 276.48 
L 127.77955 276.48 
L 127.77955 184.009174 
L 126.407645 184.009174 
z
" clip-path="url(#pbd6e9b3979)" style="fill: #1f77b4"/>
   </g>
   <g id="patch_43">
    <path d="M 127.77955 276.48 
L 129.151454 276.48 
L 129.151454 170.799056 
L 127.77955 170.799056 
z
" clip-path="url(#pbd6e9b3979)" style="fill: #1f77b4"/>
   </g>
   <g id="patch_44">
    <path d="M 129.107199 276.48 
L 130.479104 276.48 
L 130.479104 161.740689 
L 129.107199 161.740689 
z
" clip-path="url(#pbd6e9b3979)" style="fill: #1f77b4"/>
   </g>
   <g id="patch_45">
    <path d="M 130.479104 276.48 
L 131.851008 276.48 
L 131.851008 153.437186 
L 130.479104 153.437186 
z
" clip-path="url(#pbd6e9b3979)" style="fill: #1f77b4"/>
   </g>
   <g id="patch_46">
    <path d="M 131.851008 276.48 
L 133.222913 276.48 
L 133.222913 138.71734 
L 131.851008 138.71734 
z
" clip-path="url(#pbd6e9b3979)" style="fill: #1f77b4"/>
   </g>
   <g id="patch_47">
    <path d="M 133.090148 276.48 
L 134.462052 276.48 
L 134.462052 156.456642 
L 133.090148 156.456642 
z
" clip-path="url(#pbd6e9b3979)" style="fill: #1f77b4"/>
   </g>
   <g id="patch_48">
    <path d="M 134.462052 276.48 
L 135.833957 276.48 
L 135.833957 158.721233 
L 134.462052 158.721233 
z
" clip-path="url(#pbd6e9b3979)" style="fill: #1f77b4"/>
   </g>
   <g id="patch_49">
    <path d="M 135.789702 276.48 
L 137.161606 276.48 
L 137.161606 166.647304 
L 135.789702 166.647304 
z
" clip-path="url(#pbd6e9b3979)" style="fill: #1f77b4"/>
   </g>
   <g id="patch_50">
    <path d="M 137.161606 276.48 
L 138.53351 276.48 
L 138.53351 161.740689 
L 137.161606 161.740689 
z
" clip-path="url(#pbd6e9b3979)" style="fill: #1f77b4"/>
   </g>
   <g id="patch_51">
    <path d="M 138.489255 276.48 
L 139.86116 276.48 
L 139.86116 164.760145 
L 138.489255 164.760145 
z
" clip-path="url(#pbd6e9b3979)" style="fill: #1f77b4"/>
   </g>
   <g id="patch_52">
    <path d="M 139.86116 276.48 
L 141.233064 276.48 
L 141.233064 156.834074 
L 139.86116 156.834074 
z
" clip-path="url(#pbd6e9b3979)" style="fill: #1f77b4"/>
   </g>
   <g id="patch_53">
    <path d="M 141.233064 276.48 
L 142.604969 276.48 
L 142.604969 171.55392 
L 141.233064 171.55392 
z
" clip-path="url(#pbd6e9b3979)" style="fill: #1f77b4"/>
   </g>
   <g id="patch_54">
    <path d="M 142.560714 276.48 
L 143.932618 276.48 
L 143.932618 142.869092 
L 142.560714 142.869092 
z
" clip-path="url(#pbd6e9b3979)" style="fill: #1f77b4"/>
   </g>
   <g id="patch_55">
    <path d="M 143.932618 276.48 
L 145.304523 276.48 
L 145.304523 153.437186 
L 143.932618 153.437186 
z
" clip-path="url(#pbd6e9b3979)" style="fill: #1f77b4"/>
   </g>
   <g id="patch_56">
    <path d="M 145.260268 276.48 
L 146.632172 276.48 
L 146.632172 158.721233 
L 145.260268 158.721233 
z
" clip-path="url(#pbd6e9b3979)" style="fill: #1f77b4"/>
   </g>
   <g id="patch_57">
    <path d="M 146.632172 276.48 
L 148.004077 276.48 
L 148.004077 134.188157 
L 146.632172 134.188157 
z
" clip-path="url(#pbd6e9b3979)" style="fill: #1f77b4"/>
   </g>
   <g id="patch_58">
    <path d="M 148.004077 276.48 
L 149.375981 276.48 
L 149.375981 155.324346 
L 148.004077 155.324346 
z
" clip-path="url(#pbd6e9b3979)" style="fill: #1f77b4"/>
   </g>
   <g id="patch_59">
    <path d="M 149.243216 276.48 
L 150.61512 276.48 
L 150.61512 147.398275 
L 149.243216 147.398275 
z
" clip-path="url(#pbd6e9b3979)" style="fill: #1f77b4"/>
   </g>
   <g id="patch_60">
    <path d="M 150.61512 276.48 
L 151.987025 276.48 
L 151.987025 136.075317 
L 150.61512 136.075317 
z
" clip-path="url(#pbd6e9b3979)" style="fill: #1f77b4"/>
   </g>
   <g id="patch_61">
    <path d="M 151.94277 276.48 
L 153.314674 276.48 
L 153.314674 144.37882 
L 151.94277 144.37882 
z
" clip-path="url(#pbd6e9b3979)" style="fill: #1f77b4"/>
   </g>
   <g id="patch_62">
    <path d="M 153.314674 276.48 
L 154.686579 276.48 
L 154.686579 145.888547 
L 153.314674 145.888547 
z
" clip-path="url(#pbd6e9b3979)" style="fill: #1f77b4"/>
   </g>
   <g id="patch_63">
    <path d="M 154.642324 276.48 
L 156.014228 276.48 
L 156.014228 142.114228 
L 154.642324 142.114228 
z
" clip-path="url(#pbd6e9b3979)" style="fill: #1f77b4"/>
   </g>
   <g id="patch_64">
    <path d="M 156.014228 276.48 
L 157.386133 276.48 
L 157.386133 125.507222 
L 156.014228 125.507222 
z
" clip-path="url(#pbd6e9b3979)" style="fill: #1f77b4"/>
   </g>
   <g id="patch_65">
    <path d="M 157.386133 276.48 
L 158.758037 276.48 
L 158.758037 144.37882 
L 157.386133 144.37882 
z
" clip-path="url(#pbd6e9b3979)" style="fill: #1f77b4"/>
   </g>
   <g id="patch_66">
    <path d="M 158.713782 276.48 
L 160.085687 276.48 
L 160.085687 156.07921 
L 158.713782 156.07921 
z
" clip-path="url(#pbd6e9b3979)" style="fill: #1f77b4"/>
   </g>
   <g id="patch_67">
    <path d="M 160.085687 276.48 
L 161.457591 276.48 
L 161.457591 148.153139 
L 160.085687 148.153139 
z
" clip-path="url(#pbd6e9b3979)" style="fill: #1f77b4"/>
   </g>
   <g id="patch_68">
    <path d="M 161.413336 276.48 
L 162.78524 276.48 
L 162.78524 140.227068 
L 161.413336 140.227068 
z
" clip-path="url(#pbd6e9b3979)" style="fill: #1f77b4"/>
   </g>
   <g id="patch_69">
    <path d="M 162.78524 276.48 
L 164.157145 276.48 
L 164.157145 118.336015 
L 162.78524 118.336015 
z
" clip-path="url(#pbd6e9b3979)" style="fill: #1f77b4"/>
   </g>
   <g id="patch_70">
    <path d="M 164.157145 276.48 
L 165.529049 276.48 
L 165.529049 136.830181 
L 164.157145 136.830181 
z
" clip-path="url(#pbd6e9b3979)" style="fill: #1f77b4"/>
   </g>
   <g id="patch_71">
    <path d="M 165.396284 276.48 
L 166.768189 276.48 
L 166.768189 126.262086 
L 165.396284 126.262086 
z
" clip-path="url(#pbd6e9b3979)" style="fill: #1f77b4"/>
   </g>
   <g id="patch_72">
    <path d="M 166.768189 276.48 
L 168.140093 276.48 
L 168.140093 125.507222 
L 166.768189 125.507222 
z
" clip-path="url(#pbd6e9b3979)" style="fill: #1f77b4"/>
   </g>
   <g id="patch_73">
    <path d="M 168.095838 276.48 
L 169.467743 276.48 
L 169.467743 107.013057 
L 168.095838 107.013057 
z
" clip-path="url(#pbd6e9b3979)" style="fill: #1f77b4"/>
   </g>
   <g id="patch_74">
    <path d="M 169.467743 276.48 
L 170.839647 276.48 
L 170.839647 127.01695 
L 169.467743 127.01695 
z
" clip-path="url(#pbd6e9b3979)" style="fill: #1f77b4"/>
   </g>
   <g id="patch_75">
    <path d="M 170.795392 276.48 
L 172.167297 276.48 
L 172.167297 150.795163 
L 170.795392 150.795163 
z
" clip-path="url(#pbd6e9b3979)" style="fill: #1f77b4"/>
   </g>
   <g id="patch_76">
    <path d="M 172.167297 276.48 
L 173.539201 276.48 
L 173.539201 103.61617 
L 172.167297 103.61617 
z
" clip-path="url(#pbd6e9b3979)" style="fill: #1f77b4"/>
   </g>
   <g id="patch_77">
    <path d="M 173.539201 276.48 
L 174.911105 276.48 
L 174.911105 145.133683 
L 173.539201 145.133683 
z
" clip-path="url(#pbd6e9b3979)" style="fill: #1f77b4"/>
   </g>
   <g id="patch_78">
    <path d="M 174.86685 276.48 
L 176.238755 276.48 
L 176.238755 125.884654 
L 174.86685 125.884654 
z
" clip-path="url(#pbd6e9b3979)" style="fill: #1f77b4"/>
   </g>
   <g id="patch_79">
    <path d="M 176.238755 276.48 
L 177.610659 276.48 
L 177.610659 125.884654 
L 176.238755 125.884654 
z
" clip-path="url(#pbd6e9b3979)" style="fill: #1f77b4"/>
   </g>
   <g id="patch_80">
    <path d="M 177.566404 276.48 
L 178.938309 276.48 
L 178.938309 128.149246 
L 177.566404 128.149246 
z
" clip-path="url(#pbd6e9b3979)" style="fill: #1f77b4"/>
   </g>
   <g id="patch_81">
    <path d="M 178.938309 276.48 
L 180.310213 276.48 
L 180.310213 83.989709 
L 178.938309 83.989709 
z
" clip-path="url(#pbd6e9b3979)" style="fill: #1f77b4"/>
   </g>
   <g id="patch_82">
    <path d="M 180.310213 276.48 
L 181.682118 276.48 
L 181.682118 96.067531 
L 180.310213 96.067531 
z
" clip-path="url(#pbd6e9b3979)" style="fill: #1f77b4"/>
   </g>
   <g id="patch_83">
    <path d="M 181.593608 276.48 
L 182.965512 276.48 
L 182.965512 99.84185 
L 181.593608 99.84185 
z
" clip-path="url(#pbd6e9b3979)" style="fill: #1f77b4"/>
   </g>
   <g id="patch_84">
    <path d="M 182.965512 276.48 
L 184.337416 276.48 
L 184.337416 110.032513 
L 182.965512 110.032513 
z
" clip-path="url(#pbd6e9b3979)" style="fill: #1f77b4"/>
   </g>
   <g id="patch_85">
    <path d="M 184.293161 276.48 
L 185.665066 276.48 
L 185.665066 112.297104 
L 184.293161 112.297104 
z
" clip-path="url(#pbd6e9b3979)" style="fill: #1f77b4"/>
   </g>
   <g id="patch_86">
    <path d="M 185.665066 276.48 
L 187.03697 276.48 
L 187.03697 125.12979 
L 185.665066 125.12979 
z
" clip-path="url(#pbd6e9b3979)" style="fill: #1f77b4"/>
   </g>
   <g id="patch_87">
    <path d="M 186.992715 276.48 
L 188.36462 276.48 
L 188.36462 81.725117 
L 186.992715 81.725117 
z
" clip-path="url(#pbd6e9b3979)" style="fill: #1f77b4"/>
   </g>
   <g id="patch_88">
    <path d="M 188.36462 276.48 
L 189.736524 276.48 
L 189.736524 80.592821 
L 188.36462 80.592821 
z
" clip-path="url(#pbd6e9b3979)" style="fill: #1f77b4"/>
   </g>
   <g id="patch_89">
    <path d="M 189.736524 276.48 
L 191.108429 276.48 
L 191.108429 80.592821 
L 189.736524 80.592821 
z
" clip-path="url(#pbd6e9b3979)" style="fill: #1f77b4"/>
   </g>
   <g id="patch_90">
    <path d="M 191.064174 276.48 
L 192.436078 276.48 
L 192.436078 52.662857 
L 191.064174 52.662857 
z
" clip-path="url(#pbd6e9b3979)" style="fill: #1f77b4"/>
   </g>
   <g id="patch_91">
    <path d="M 192.436078 276.48 
L 193.807983 276.48 
L 193.807983 59.456632 
L 192.436078 59.456632 
z
" clip-path="url(#pbd6e9b3979)" style="fill: #1f77b4"/>
   </g>
   <g id="patch_92">
    <path d="M 193.763728 276.48 
L 195.135632 276.48 
L 195.135632 87.386596 
L 193.763728 87.386596 
z
" clip-path="url(#pbd6e9b3979)" style="fill: #1f77b4"/>
   </g>
   <g id="patch_93">
    <path d="M 195.135632 276.48 
L 196.507536 276.48 
L 196.507536 84.744572 
L 195.135632 84.744572 
z
" clip-path="url(#pbd6e9b3979)" style="fill: #1f77b4"/>
   </g>
   <g id="patch_94">
    <path d="M 196.507536 276.48 
L 197.879441 276.48 
L 197.879441 77.950797 
L 196.507536 77.950797 
z
" clip-path="url(#pbd6e9b3979)" style="fill: #1f77b4"/>
   </g>
   <g id="patch_95">
    <path d="M 197.746676 276.48 
L 199.11858 276.48 
L 199.11858 77.950797 
L 197.746676 77.950797 
z
" clip-path="url(#pbd6e9b3979)" style="fill: #1f77b4"/>
   </g>
   <g id="patch_96">
    <path d="M 199.11858 276.48 
L 200.490485 276.48 
L 200.490485 78.328229 
L 199.11858 78.328229 
z
" clip-path="url(#pbd6e9b3979)" style="fill: #1f77b4"/>
   </g>
   <g id="patch_97">
    <path d="M 200.44623 276.48 
L 201.818134 276.48 
L 201.818134 89.273756 
L 200.44623 89.273756 
z
" clip-path="url(#pbd6e9b3979)" style="fill: #1f77b4"/>
   </g>
   <g id="patch_98">
    <path d="M 201.818134 276.48 
L 203.190039 276.48 
L 203.190039 74.55391 
L 201.818134 74.55391 
z
" clip-path="url(#pbd6e9b3979)" style="fill: #1f77b4"/>
   </g>
   <g id="patch_99">
    <path d="M 203.145784 276.48 
L 204.517688 276.48 
L 204.517688 97.95469 
L 203.145784 97.95469 
z
" clip-path="url(#pbd6e9b3979)" style="fill: #1f77b4"/>
   </g>
   <g id="patch_100">
    <path d="M 204.517688 276.48 
L 205.889593 276.48 
L 205.889593 103.61617 
L 204.517688 103.61617 
z
" clip-path="url(#pbd6e9b3979)" style="fill: #1f77b4"/>
   </g>
   <g id="patch_101">
    <path d="M 205.889593 276.48 
L 207.261497 276.48 
L 207.261497 108.522785 
L 205.889593 108.522785 
z
" clip-path="url(#pbd6e9b3979)" style="fill: #1f77b4"/>
   </g>
   <g id="patch_102">
    <path d="M 207.217242 276.48 
L 208.589146 276.48 
L 208.589146 102.106442 
L 207.217242 102.106442 
z
" clip-path="url(#pbd6e9b3979)" style="fill: #1f77b4"/>
   </g>
   <g id="patch_103">
    <path d="M 208.589146 276.48 
L 209.961051 276.48 
L 209.961051 98.332122 
L 208.589146 98.332122 
z
" clip-path="url(#pbd6e9b3979)" style="fill: #1f77b4"/>
   </g>
   <g id="patch_104">
    <path d="M 209.916796 276.48 
L 211.2887 276.48 
L 211.2887 97.199827 
L 209.916796 97.199827 
z
" clip-path="url(#pbd6e9b3979)" style="fill: #1f77b4"/>
   </g>
   <g id="patch_105">
    <path d="M 211.2887 276.48 
L 212.660605 276.48 
L 212.660605 65.872975 
L 211.2887 65.872975 
z
" clip-path="url(#pbd6e9b3979)" style="fill: #1f77b4"/>
   </g>
   <g id="patch_106">
    <path d="M 212.660605 276.48 
L 214.032509 276.48 
L 214.032509 99.84185 
L 212.660605 99.84185 
z
" clip-path="url(#pbd6e9b3979)" style="fill: #1f77b4"/>
   </g>
   <g id="patch_107">
    <path d="M 213.899744 276.48 
L 215.271649 276.48 
L 215.271649 76.818502 
L 213.899744 76.818502 
z
" clip-path="url(#pbd6e9b3979)" style="fill: #1f77b4"/>
   </g>
   <g id="patch_108">
    <path d="M 215.271649 276.48 
L 216.643553 276.48 
L 216.643553 99.84185 
L 215.271649 99.84185 
z
" clip-path="url(#pbd6e9b3979)" style="fill: #1f77b4"/>
   </g>
   <g id="patch_109">
    <path d="M 216.599298 276.48 
L 217.971203 276.48 
L 217.971203 94.180371 
L 216.599298 94.180371 
z
" clip-path="url(#pbd6e9b3979)" style="fill: #1f77b4"/>
   </g>
   <g id="patch_110">
    <path d="M 217.971203 276.48 
L 219.343107 276.48 
L 219.343107 106.635625 
L 217.971203 106.635625 
z
" clip-path="url(#pbd6e9b3979)" style="fill: #1f77b4"/>
   </g>
   <g id="patch_111">
    <path d="M 219.298852 276.48 
L 220.670756 276.48 
L 220.670756 99.84185 
L 219.298852 99.84185 
z
" clip-path="url(#pbd6e9b3979)" style="fill: #1f77b4"/>
   </g>
   <g id="patch_112">
    <path d="M 220.670756 276.48 
L 222.042661 276.48 
L 222.042661 104.371033 
L 220.670756 104.371033 
z
" clip-path="url(#pbd6e9b3979)" style="fill: #1f77b4"/>
   </g>
   <g id="patch_113">
    <path d="M 222.042661 276.48 
L 223.414565 276.48 
L 223.414565 107.013057 
L 222.042661 107.013057 
z
" clip-path="url(#pbd6e9b3979)" style="fill: #1f77b4"/>
   </g>
   <g id="patch_114">
    <path d="M 223.37031 276.48 
L 224.742215 276.48 
L 224.742215 87.009164 
L 223.37031 87.009164 
z
" clip-path="url(#pbd6e9b3979)" style="fill: #1f77b4"/>
   </g>
   <g id="patch_115">
    <path d="M 224.742215 276.48 
L 226.114119 276.48 
L 226.114119 107.767921 
L 224.742215 107.767921 
z
" clip-path="url(#pbd6e9b3979)" style="fill: #1f77b4"/>
   </g>
   <g id="patch_116">
    <path d="M 226.069864 276.48 
L 227.441769 276.48 
L 227.441769 108.145353 
L 226.069864 108.145353 
z
" clip-path="url(#pbd6e9b3979)" style="fill: #1f77b4"/>
   </g>
   <g id="patch_117">
    <path d="M 227.441769 276.48 
L 228.813673 276.48 
L 228.813673 90.783483 
L 227.441769 90.783483 
z
" clip-path="url(#pbd6e9b3979)" style="fill: #1f77b4"/>
   </g>
   <g id="patch_118">
    <path d="M 228.813673 276.48 
L 230.185577 276.48 
L 230.185577 101.351578 
L 228.813673 101.351578 
z
" clip-path="url(#pbd6e9b3979)" style="fill: #1f77b4"/>
   </g>
   <g id="patch_119">
    <path d="M 230.052813 276.48 
L 231.424717 276.48 
L 231.424717 90.406052 
L 230.052813 90.406052 
z
" clip-path="url(#pbd6e9b3979)" style="fill: #1f77b4"/>
   </g>
   <g id="patch_120">
    <path d="M 231.424717 276.48 
L 232.796621 276.48 
L 232.796621 87.386596 
L 231.424717 87.386596 
z
" clip-path="url(#pbd6e9b3979)" style="fill: #1f77b4"/>
   </g>
   <g id="patch_121">
    <path d="M 232.752366 276.48 
L 234.124271 276.48 
L 234.124271 87.009164 
L 232.752366 87.009164 
z
" clip-path="url(#pbd6e9b3979)" style="fill: #1f77b4"/>
   </g>
   <g id="patch_122">
    <path d="M 234.124271 276.48 
L 235.496175 276.48 
L 235.496175 109.277649 
L 234.124271 109.277649 
z
" clip-path="url(#pbd6e9b3979)" style="fill: #1f77b4"/>
   </g>
   <g id="patch_123">
    <path d="M 235.45192 276.48 
L 236.823825 276.48 
L 236.823825 115.693992 
L 235.45192 115.693992 
z
" clip-path="url(#pbd6e9b3979)" style="fill: #1f77b4"/>
   </g>
   <g id="patch_124">
    <path d="M 236.823825 276.48 
L 238.195729 276.48 
L 238.195729 88.518892 
L 236.823825 88.518892 
z
" clip-path="url(#pbd6e9b3979)" style="fill: #1f77b4"/>
   </g>
   <g id="patch_125">
    <path d="M 238.195729 276.48 
L 239.567634 276.48 
L 239.567634 96.067531 
L 238.195729 96.067531 
z
" clip-path="url(#pbd6e9b3979)" style="fill: #1f77b4"/>
   </g>
   <g id="patch_126">
    <path d="M 239.523379 276.48 
L 240.895283 276.48 
L 240.895283 94.557803 
L 239.523379 94.557803 
z
" clip-path="url(#pbd6e9b3979)" style="fill: #1f77b4"/>
   </g>
   <g id="patch_127">
    <path d="M 240.895283 276.48 
L 242.267187 276.48 
L 242.267187 110.787377 
L 240.895283 110.787377 
z
" clip-path="url(#pbd6e9b3979)" style="fill: #1f77b4"/>
   </g>
   <g id="patch_128">
    <path d="M 242.222932 276.48 
L 243.594837 276.48 
L 243.594837 92.670643 
L 242.222932 92.670643 
z
" clip-path="url(#pbd6e9b3979)" style="fill: #1f77b4"/>
   </g>
   <g id="patch_129">
    <path d="M 243.594837 276.48 
L 244.966741 276.48 
L 244.966741 70.024727 
L 243.594837 70.024727 
z
" clip-path="url(#pbd6e9b3979)" style="fill: #1f77b4"/>
   </g>
   <g id="patch_130">
    <path d="M 244.966741 276.48 
L 246.338646 276.48 
L 246.338646 99.464418 
L 244.966741 99.464418 
z
" clip-path="url(#pbd6e9b3979)" style="fill: #1f77b4"/>
   </g>
   <g id="patch_131">
    <path d="M 246.250136 276.48 
L 247.62204 276.48 
L 247.62204 98.332122 
L 246.250136 98.332122 
z
" clip-path="url(#pbd6e9b3979)" style="fill: #1f77b4"/>
   </g>
   <g id="patch_132">
    <path d="M 247.62204 276.48 
L 248.993945 276.48 
L 248.993945 96.067531 
L 247.62204 96.067531 
z
" clip-path="url(#pbd6e9b3979)" style="fill: #1f77b4"/>
   </g>
   <g id="patch_133">
    <path d="M 248.94969 276.48 
L 250.321594 276.48 
L 250.321594 114.939128 
L 248.94969 114.939128 
z
" clip-path="url(#pbd6e9b3979)" style="fill: #1f77b4"/>
   </g>
   <g id="patch_134">
    <path d="M 250.321594 276.48 
L 251.693499 276.48 
L 251.693499 146.265979 
L 250.321594 146.265979 
z
" clip-path="url(#pbd6e9b3979)" style="fill: #1f77b4"/>
   </g>
   <g id="patch_135">
    <path d="M 251.649244 276.48 
L 253.021148 276.48 
L 253.021148 119.090879 
L 251.649244 119.090879 
z
" clip-path="url(#pbd6e9b3979)" style="fill: #1f77b4"/>
   </g>
   <g id="patch_136">
    <path d="M 253.021148 276.48 
L 254.393052 276.48 
L 254.393052 101.72901 
L 253.021148 101.72901 
z
" clip-path="url(#pbd6e9b3979)" style="fill: #1f77b4"/>
   </g>
   <g id="patch_137">
    <path d="M 254.393052 276.48 
L 255.764957 276.48 
L 255.764957 103.61617 
L 254.393052 103.61617 
z
" clip-path="url(#pbd6e9b3979)" style="fill: #1f77b4"/>
   </g>
   <g id="patch_138">
    <path d="M 255.720702 276.48 
L 257.092606 276.48 
L 257.092606 107.390489 
L 255.720702 107.390489 
z
" clip-path="url(#pbd6e9b3979)" style="fill: #1f77b4"/>
   </g>
   <g id="patch_139">
    <path d="M 257.092606 276.48 
L 258.464511 276.48 
L 258.464511 108.900217 
L 257.092606 108.900217 
z
" clip-path="url(#pbd6e9b3979)" style="fill: #1f77b4"/>
   </g>
   <g id="patch_140">
    <path d="M 258.420256 276.48 
L 259.79216 276.48 
L 259.79216 113.051968 
L 258.420256 113.051968 
z
" clip-path="url(#pbd6e9b3979)" style="fill: #1f77b4"/>
   </g>
   <g id="patch_141">
    <path d="M 259.79216 276.48 
L 261.164065 276.48 
L 261.164065 84.36714 
L 259.79216 84.36714 
z
" clip-path="url(#pbd6e9b3979)" style="fill: #1f77b4"/>
   </g>
   <g id="patch_142">
    <path d="M 261.164065 276.48 
L 262.535969 276.48 
L 262.535969 115.31656 
L 261.164065 115.31656 
z
" clip-path="url(#pbd6e9b3979)" style="fill: #1f77b4"/>
   </g>
   <g id="patch_143">
    <path d="M 262.403204 276.48 
L 263.775109 276.48 
L 263.775109 110.787377 
L 262.403204 110.787377 
z
" clip-path="url(#pbd6e9b3979)" style="fill: #1f77b4"/>
   </g>
   <g id="patch_144">
    <path d="M 263.775109 276.48 
L 265.147013 276.48 
L 265.147013 109.277649 
L 263.775109 109.277649 
z
" clip-path="url(#pbd6e9b3979)" style="fill: #1f77b4"/>
   </g>
   <g id="patch_145">
    <path d="M 265.102758 276.48 
L 266.474662 276.48 
L 266.474662 110.787377 
L 265.102758 110.787377 
z
" clip-path="url(#pbd6e9b3979)" style="fill: #1f77b4"/>
   </g>
   <g id="patch_146">
    <path d="M 266.474662 276.48 
L 267.846567 276.48 
L 267.846567 140.981932 
L 266.474662 140.981932 
z
" clip-path="url(#pbd6e9b3979)" style="fill: #1f77b4"/>
   </g>
   <g id="patch_147">
    <path d="M 267.802312 276.48 
L 269.174216 276.48 
L 269.174216 136.075317 
L 267.802312 136.075317 
z
" clip-path="url(#pbd6e9b3979)" style="fill: #1f77b4"/>
   </g>
   <g id="patch_148">
    <path d="M 269.174216 276.48 
L 270.546121 276.48 
L 270.546121 133.055861 
L 269.174216 133.055861 
z
" clip-path="url(#pbd6e9b3979)" style="fill: #1f77b4"/>
   </g>
   <g id="patch_149">
    <path d="M 270.546121 276.48 
L 271.918025 276.48 
L 271.918025 129.281542 
L 270.546121 129.281542 
z
" clip-path="url(#pbd6e9b3979)" style="fill: #1f77b4"/>
   </g>
   <g id="patch_150">
    <path d="M 271.87377 276.48 
L 273.245675 276.48 
L 273.245675 125.507222 
L 271.87377 125.507222 
z
" clip-path="url(#pbd6e9b3979)" style="fill: #1f77b4"/>
   </g>
   <g id="patch_151">
    <path d="M 273.245675 276.48 
L 274.617579 276.48 
L 274.617579 115.31656 
L 273.245675 115.31656 
z
" clip-path="url(#pbd6e9b3979)" style="fill: #1f77b4"/>
   </g>
   <g id="patch_152">
    <path d="M 274.573324 276.48 
L 275.945229 276.48 
L 275.945229 131.168702 
L 274.573324 131.168702 
z
" clip-path="url(#pbd6e9b3979)" style="fill: #1f77b4"/>
   </g>
   <g id="patch_153">
    <path d="M 275.945229 276.48 
L 277.317133 276.48 
L 277.317133 119.468311 
L 275.945229 119.468311 
z
" clip-path="url(#pbd6e9b3979)" style="fill: #1f77b4"/>
   </g>
   <g id="patch_154">
    <path d="M 277.317133 276.48 
L 278.689037 276.48 
L 278.689037 128.526678 
L 277.317133 128.526678 
z
" clip-path="url(#pbd6e9b3979)" style="fill: #1f77b4"/>
   </g>
   <g id="patch_155">
    <path d="M 278.556272 276.48 
L 279.928177 276.48 
L 279.928177 121.732903 
L 278.556272 121.732903 
z
" clip-path="url(#pbd6e9b3979)" style="fill: #1f77b4"/>
   </g>
   <g id="patch_156">
    <path d="M 279.928177 276.48 
L 281.300081 276.48 
L 281.300081 129.658974 
L 279.928177 129.658974 
z
" clip-path="url(#pbd6e9b3979)" style="fill: #1f77b4"/>
   </g>
   <g id="patch_157">
    <path d="M 281.255826 276.48 
L 282.627731 276.48 
L 282.627731 120.600607 
L 281.255826 120.600607 
z
" clip-path="url(#pbd6e9b3979)" style="fill: #1f77b4"/>
   </g>
   <g id="patch_158">
    <path d="M 282.627731 276.48 
L 283.999635 276.48 
L 283.999635 133.810725 
L 282.627731 133.810725 
z
" clip-path="url(#pbd6e9b3979)" style="fill: #1f77b4"/>
   </g>
   <g id="patch_159">
    <path d="M 283.95538 276.48 
L 285.327285 276.48 
L 285.327285 146.265979 
L 283.95538 146.265979 
z
" clip-path="url(#pbd6e9b3979)" style="fill: #1f77b4"/>
   </g>
   <g id="patch_160">
    <path d="M 285.327285 276.48 
L 286.699189 276.48 
L 286.699189 128.526678 
L 285.327285 128.526678 
z
" clip-path="url(#pbd6e9b3979)" style="fill: #1f77b4"/>
   </g>
   <g id="patch_161">
    <path d="M 286.699189 276.48 
L 288.071093 276.48 
L 288.071093 134.565589 
L 286.699189 134.565589 
z
" clip-path="url(#pbd6e9b3979)" style="fill: #1f77b4"/>
   </g>
   <g id="patch_162">
    <path d="M 288.026839 276.48 
L 289.398743 276.48 
L 289.398743 140.981932 
L 288.026839 140.981932 
z
" clip-path="url(#pbd6e9b3979)" style="fill: #1f77b4"/>
   </g>
   <g id="patch_163">
    <path d="M 289.398743 276.48 
L 290.770647 276.48 
L 290.770647 129.281542 
L 289.398743 129.281542 
z
" clip-path="url(#pbd6e9b3979)" style="fill: #1f77b4"/>
   </g>
   <g id="patch_164">
    <path d="M 290.726392 276.48 
L 292.098297 276.48 
L 292.098297 141.359364 
L 290.726392 141.359364 
z
" clip-path="url(#pbd6e9b3979)" style="fill: #1f77b4"/>
   </g>
   <g id="patch_165">
    <path d="M 292.098297 276.48 
L 293.470201 276.48 
L 293.470201 119.845743 
L 292.098297 119.845743 
z
" clip-path="url(#pbd6e9b3979)" style="fill: #1f77b4"/>
   </g>
   <g id="patch_166">
    <path d="M 293.470201 276.48 
L 294.842106 276.48 
L 294.842106 138.71734 
L 293.470201 138.71734 
z
" clip-path="url(#pbd6e9b3979)" style="fill: #1f77b4"/>
   </g>
   <g id="patch_167">
    <path d="M 294.709341 276.48 
L 296.081245 276.48 
L 296.081245 141.736796 
L 294.709341 141.736796 
z
" clip-path="url(#pbd6e9b3979)" style="fill: #1f77b4"/>
   </g>
   <g id="patch_168">
    <path d="M 296.081245 276.48 
L 297.45315 276.48 
L 297.45315 150.795163 
L 296.081245 150.795163 
z
" clip-path="url(#pbd6e9b3979)" style="fill: #1f77b4"/>
   </g>
   <g id="patch_169">
    <path d="M 297.408895 276.48 
L 298.780799 276.48 
L 298.780799 131.923565 
L 297.408895 131.923565 
z
" clip-path="url(#pbd6e9b3979)" style="fill: #1f77b4"/>
   </g>
   <g id="patch_170">
    <path d="M 298.780799 276.48 
L 300.152703 276.48 
L 300.152703 146.265979 
L 298.780799 146.265979 
z
" clip-path="url(#pbd6e9b3979)" style="fill: #1f77b4"/>
   </g>
   <g id="patch_171">
    <path d="M 300.108448 276.48 
L 301.480353 276.48 
L 301.480353 140.981932 
L 300.108448 140.981932 
z
" clip-path="url(#pbd6e9b3979)" style="fill: #1f77b4"/>
   </g>
   <g id="patch_172">
    <path d="M 301.480353 276.48 
L 302.852257 276.48 
L 302.852257 136.452749 
L 301.480353 136.452749 
z
" clip-path="url(#pbd6e9b3979)" style="fill: #1f77b4"/>
   </g>
   <g id="patch_173">
    <path d="M 302.852257 276.48 
L 304.224162 276.48 
L 304.224162 137.962477 
L 302.852257 137.962477 
z
" clip-path="url(#pbd6e9b3979)" style="fill: #1f77b4"/>
   </g>
   <g id="patch_174">
    <path d="M 304.179907 276.48 
L 305.551811 276.48 
L 305.551811 126.639518 
L 304.179907 126.639518 
z
" clip-path="url(#pbd6e9b3979)" style="fill: #1f77b4"/>
   </g>
   <g id="patch_175">
    <path d="M 305.551811 276.48 
L 306.923716 276.48 
L 306.923716 133.433293 
L 305.551811 133.433293 
z
" clip-path="url(#pbd6e9b3979)" style="fill: #1f77b4"/>
   </g>
   <g id="patch_176">
    <path d="M 306.879461 276.48 
L 308.251365 276.48 
L 308.251365 130.036406 
L 306.879461 130.036406 
z
" clip-path="url(#pbd6e9b3979)" style="fill: #1f77b4"/>
   </g>
   <g id="patch_177">
    <path d="M 308.251365 276.48 
L 309.62327 276.48 
L 309.62327 115.31656 
L 308.251365 115.31656 
z
" clip-path="url(#pbd6e9b3979)" style="fill: #1f77b4"/>
   </g>
   <g id="patch_178">
    <path d="M 309.62327 276.48 
L 310.995174 276.48 
L 310.995174 105.503329 
L 309.62327 105.503329 
z
" clip-path="url(#pbd6e9b3979)" style="fill: #1f77b4"/>
   </g>
   <g id="patch_179">
    <path d="M 310.906664 276.48 
L 312.278568 276.48 
L 312.278568 99.086986 
L 310.906664 99.086986 
z
" clip-path="url(#pbd6e9b3979)" style="fill: #1f77b4"/>
   </g>
   <g id="patch_180">
    <path d="M 312.278568 276.48 
L 313.650473 276.48 
L 313.650473 64.363247 
L 312.278568 64.363247 
z
" clip-path="url(#pbd6e9b3979)" style="fill: #1f77b4"/>
   </g>
   <g id="patch_181">
    <path d="M 313.606218 276.48 
L 314.978122 276.48 
L 314.978122 77.195934 
L 313.606218 77.195934 
z
" clip-path="url(#pbd6e9b3979)" style="fill: #1f77b4"/>
   </g>
   <g id="patch_182">
    <path d="M 314.978122 276.48 
L 316.350027 276.48 
L 316.350027 101.72901 
L 314.978122 101.72901 
z
" clip-path="url(#pbd6e9b3979)" style="fill: #1f77b4"/>
   </g>
   <g id="patch_183">
    <path d="M 316.305772 276.48 
L 317.677676 276.48 
L 317.677676 108.900217 
L 316.305772 108.900217 
z
" clip-path="url(#pbd6e9b3979)" style="fill: #1f77b4"/>
   </g>
   <g id="patch_184">
    <path d="M 317.677676 276.48 
L 319.049581 276.48 
L 319.049581 99.464418 
L 317.677676 99.464418 
z
" clip-path="url(#pbd6e9b3979)" style="fill: #1f77b4"/>
   </g>
   <g id="patch_185">
    <path d="M 319.049581 276.48 
L 320.421485 276.48 
L 320.421485 119.845743 
L 319.049581 119.845743 
z
" clip-path="url(#pbd6e9b3979)" style="fill: #1f77b4"/>
   </g>
   <g id="patch_186">
    <path d="M 320.37723 276.48 
L 321.749135 276.48 
L 321.749135 118.336015 
L 320.37723 118.336015 
z
" clip-path="url(#pbd6e9b3979)" style="fill: #1f77b4"/>
   </g>
   <g id="patch_187">
    <path d="M 321.749135 276.48 
L 323.121039 276.48 
L 323.121039 110.032513 
L 321.749135 110.032513 
z
" clip-path="url(#pbd6e9b3979)" style="fill: #1f77b4"/>
   </g>
   <g id="patch_188">
    <path d="M 323.076784 276.48 
L 324.448688 276.48 
L 324.448688 96.067531 
L 323.076784 96.067531 
z
" clip-path="url(#pbd6e9b3979)" style="fill: #1f77b4"/>
   </g>
   <g id="patch_189">
    <path d="M 324.448688 276.48 
L 325.820593 276.48 
L 325.820593 85.499436 
L 324.448688 85.499436 
z
" clip-path="url(#pbd6e9b3979)" style="fill: #1f77b4"/>
   </g>
   <g id="patch_190">
    <path d="M 325.820593 276.48 
L 327.192497 276.48 
L 327.192497 94.557803 
L 325.820593 94.557803 
z
" clip-path="url(#pbd6e9b3979)" style="fill: #1f77b4"/>
   </g>
   <g id="patch_191">
    <path d="M 327.059732 276.48 
L 328.431637 276.48 
L 328.431637 93.802939 
L 327.059732 93.802939 
z
" clip-path="url(#pbd6e9b3979)" style="fill: #1f77b4"/>
   </g>
   <g id="patch_192">
    <path d="M 328.431637 276.48 
L 329.803541 276.48 
L 329.803541 102.106442 
L 328.431637 102.106442 
z
" clip-path="url(#pbd6e9b3979)" style="fill: #1f77b4"/>
   </g>
   <g id="patch_193">
    <path d="M 329.759286 276.48 
L 331.131191 276.48 
L 331.131191 102.106442 
L 329.759286 102.106442 
z
" clip-path="url(#pbd6e9b3979)" style="fill: #1f77b4"/>
   </g>
   <g id="patch_194">
    <path d="M 331.131191 276.48 
L 332.503095 276.48 
L 332.503095 127.394382 
L 331.131191 127.394382 
z
" clip-path="url(#pbd6e9b3979)" style="fill: #1f77b4"/>
   </g>
   <g id="patch_195">
    <path d="M 332.45884 276.48 
L 333.830745 276.48 
L 333.830745 112.297104 
L 332.45884 112.297104 
z
" clip-path="url(#pbd6e9b3979)" style="fill: #1f77b4"/>
   </g>
   <g id="patch_196">
    <path d="M 333.830745 276.48 
L 335.202649 276.48 
L 335.202649 125.507222 
L 333.830745 125.507222 
z
" clip-path="url(#pbd6e9b3979)" style="fill: #1f77b4"/>
   </g>
   <g id="patch_197">
    <path d="M 335.202649 276.48 
L 336.574553 276.48 
L 336.574553 119.090879 
L 335.202649 119.090879 
z
" clip-path="url(#pbd6e9b3979)" style="fill: #1f77b4"/>
   </g>
   <g id="patch_198">
    <path d="M 336.530298 276.48 
L 337.902203 276.48 
L 337.902203 131.923565 
L 336.530298 131.923565 
z
" clip-path="url(#pbd6e9b3979)" style="fill: #1f77b4"/>
   </g>
   <g id="patch_199">
    <path d="M 337.902203 276.48 
L 339.274107 276.48 
L 339.274107 123.242631 
L 337.902203 123.242631 
z
" clip-path="url(#pbd6e9b3979)" style="fill: #1f77b4"/>
   </g>
   <g id="patch_200">
    <path d="M 339.229852 276.48 
L 340.601757 276.48 
L 340.601757 109.277649 
L 339.229852 109.277649 
z
" clip-path="url(#pbd6e9b3979)" style="fill: #1f77b4"/>
   </g>
   <g id="patch_201">
    <path d="M 340.601757 276.48 
L 341.973661 276.48 
L 341.973661 89.651188 
L 340.601757 89.651188 
z
" clip-path="url(#pbd6e9b3979)" style="fill: #1f77b4"/>
   </g>
   <g id="patch_202">
    <path d="M 341.973661 276.48 
L 343.345566 276.48 
L 343.345566 124.752358 
L 341.973661 124.752358 
z
" clip-path="url(#pbd6e9b3979)" style="fill: #1f77b4"/>
   </g>
   <g id="patch_203">
    <path d="M 343.212801 276.48 
L 344.584705 276.48 
L 344.584705 142.114228 
L 343.212801 142.114228 
z
" clip-path="url(#pbd6e9b3979)" style="fill: #1f77b4"/>
   </g>
   <g id="patch_204">
    <path d="M 344.584705 276.48 
L 345.956609 276.48 
L 345.956609 143.246524 
L 344.584705 143.246524 
z
" clip-path="url(#pbd6e9b3979)" style="fill: #1f77b4"/>
   </g>
   <g id="patch_205">
    <path d="M 345.912355 276.48 
L 347.284259 276.48 
L 347.284259 125.12979 
L 345.912355 125.12979 
z
" clip-path="url(#pbd6e9b3979)" style="fill: #1f77b4"/>
   </g>
   <g id="patch_206">
    <path d="M 347.284259 276.48 
L 348.656163 276.48 
L 348.656163 134.943021 
L 347.284259 134.943021 
z
" clip-path="url(#pbd6e9b3979)" style="fill: #1f77b4"/>
   </g>
   <g id="patch_207">
    <path d="M 348.611908 276.48 
L 349.983813 276.48 
L 349.983813 139.472204 
L 348.611908 139.472204 
z
" clip-path="url(#pbd6e9b3979)" style="fill: #1f77b4"/>
   </g>
   <g id="patch_208">
    <path d="M 349.983813 276.48 
L 351.355717 276.48 
L 351.355717 131.546133 
L 349.983813 131.546133 
z
" clip-path="url(#pbd6e9b3979)" style="fill: #1f77b4"/>
   </g>
   <g id="patch_209">
    <path d="M 351.355717 276.48 
L 352.727622 276.48 
L 352.727622 122.110335 
L 351.355717 122.110335 
z
" clip-path="url(#pbd6e9b3979)" style="fill: #1f77b4"/>
   </g>
   <g id="patch_210">
    <path d="M 352.683367 276.48 
L 354.055271 276.48 
L 354.055271 132.678429 
L 352.683367 132.678429 
z
" clip-path="url(#pbd6e9b3979)" style="fill: #1f77b4"/>
   </g>
   <g id="patch_211">
    <path d="M 354.055271 276.48 
L 355.427176 276.48 
L 355.427176 145.511115 
L 354.055271 145.511115 
z
" clip-path="url(#pbd6e9b3979)" style="fill: #1f77b4"/>
   </g>
   <g id="patch_212">
    <path d="M 355.382921 276.48 
L 356.754825 276.48 
L 356.754825 131.546133 
L 355.382921 131.546133 
z
" clip-path="url(#pbd6e9b3979)" style="fill: #1f77b4"/>
   </g>
   <g id="patch_213">
    <path d="M 356.754825 276.48 
L 358.126729 276.48 
L 358.126729 136.830181 
L 356.754825 136.830181 
z
" clip-path="url(#pbd6e9b3979)" style="fill: #1f77b4"/>
   </g>
   <g id="patch_214">
    <path d="M 358.126729 276.48 
L 359.498634 276.48 
L 359.498634 134.943021 
L 358.126729 134.943021 
z
" clip-path="url(#pbd6e9b3979)" style="fill: #1f77b4"/>
   </g>
   <g id="patch_215">
    <path d="M 359.365869 276.48 
L 360.737773 276.48 
L 360.737773 136.075317 
L 359.365869 136.075317 
z
" clip-path="url(#pbd6e9b3979)" style="fill: #1f77b4"/>
   </g>
   <g id="patch_216">
    <path d="M 360.737773 276.48 
L 362.109678 276.48 
L 362.109678 136.830181 
L 360.737773 136.830181 
z
" clip-path="url(#pbd6e9b3979)" style="fill: #1f77b4"/>
   </g>
   <g id="patch_217">
    <path d="M 362.065423 276.48 
L 363.437327 276.48 
L 363.437327 128.526678 
L 362.065423 128.526678 
z
" clip-path="url(#pbd6e9b3979)" style="fill: #1f77b4"/>
   </g>
   <g id="patch_218">
    <path d="M 363.437327 276.48 
L 364.809232 276.48 
L 364.809232 144.37882 
L 363.437327 144.37882 
z
" clip-path="url(#pbd6e9b3979)" style="fill: #1f77b4"/>
   </g>
   <g id="patch_219">
    <path d="M 364.764977 276.48 
L 366.136881 276.48 
L 366.136881 146.643411 
L 364.764977 146.643411 
z
" clip-path="url(#pbd6e9b3979)" style="fill: #1f77b4"/>
   </g>
   <g id="patch_220">
    <path d="M 366.136881 276.48 
L 367.508786 276.48 
L 367.508786 149.285435 
L 366.136881 149.285435 
z
" clip-path="url(#pbd6e9b3979)" style="fill: #1f77b4"/>
   </g>
   <g id="patch_221">
    <path d="M 367.508786 276.48 
L 368.88069 276.48 
L 368.88069 148.530571 
L 367.508786 148.530571 
z
" clip-path="url(#pbd6e9b3979)" style="fill: #1f77b4"/>
   </g>
   <g id="patch_222">
    <path d="M 368.836435 276.48 
L 370.208339 276.48 
L 370.208339 159.098665 
L 368.836435 159.098665 
z
" clip-path="url(#pbd6e9b3979)" style="fill: #1f77b4"/>
   </g>
   <g id="patch_223">
    <path d="M 370.208339 276.48 
L 371.580244 276.48 
L 371.580244 150.795163 
L 370.208339 150.795163 
z
" clip-path="url(#pbd6e9b3979)" style="fill: #1f77b4"/>
   </g>
   <g id="patch_224">
    <path d="M 371.535989 276.48 
L 372.907893 276.48 
L 372.907893 149.662867 
L 371.535989 149.662867 
z
" clip-path="url(#pbd6e9b3979)" style="fill: #1f77b4"/>
   </g>
   <g id="patch_225">
    <path d="M 372.907893 276.48 
L 374.279798 276.48 
L 374.279798 127.394382 
L 372.907893 127.394382 
z
" clip-path="url(#pbd6e9b3979)" style="fill: #1f77b4"/>
   </g>
   <g id="patch_226">
    <path d="M 374.279798 276.48 
L 375.651702 276.48 
L 375.651702 135.320453 
L 374.279798 135.320453 
z
" clip-path="url(#pbd6e9b3979)" style="fill: #1f77b4"/>
   </g>
   <g id="patch_227">
    <path d="M 375.563192 276.48 
L 376.935097 276.48 
L 376.935097 105.125897 
L 375.563192 105.125897 
z
" clip-path="url(#pbd6e9b3979)" style="fill: #1f77b4"/>
   </g>
   <g id="patch_228">
    <path d="M 376.935097 276.48 
L 378.307001 276.48 
L 378.307001 142.114228 
L 376.935097 142.114228 
z
" clip-path="url(#pbd6e9b3979)" style="fill: #1f77b4"/>
   </g>
   <g id="patch_229">
    <path d="M 378.262746 276.48 
L 379.634651 276.48 
L 379.634651 149.662867 
L 378.262746 149.662867 
z
" clip-path="url(#pbd6e9b3979)" style="fill: #1f77b4"/>
   </g>
   <g id="patch_230">
    <path d="M 379.634651 276.48 
L 381.006555 276.48 
L 381.006555 164.760145 
L 379.634651 164.760145 
z
" clip-path="url(#pbd6e9b3979)" style="fill: #1f77b4"/>
   </g>
   <g id="patch_231">
    <path d="M 380.9623 276.48 
L 382.334204 276.48 
L 382.334204 160.608393 
L 380.9623 160.608393 
z
" clip-path="url(#pbd6e9b3979)" style="fill: #1f77b4"/>
   </g>
   <g id="patch_232">
    <path d="M 382.334204 276.48 
L 383.706109 276.48 
L 383.706109 160.608393 
L 382.334204 160.608393 
z
" clip-path="url(#pbd6e9b3979)" style="fill: #1f77b4"/>
   </g>
   <g id="patch_233">
    <path d="M 383.706109 276.48 
L 385.078013 276.48 
L 385.078013 171.55392 
L 383.706109 171.55392 
z
" clip-path="url(#pbd6e9b3979)" style="fill: #1f77b4"/>
   </g>
   <g id="patch_234">
    <path d="M 385.033758 276.48 
L 386.405663 276.48 
L 386.405663 162.118121 
L 385.033758 162.118121 
z
" clip-path="url(#pbd6e9b3979)" style="fill: #1f77b4"/>
   </g>
   <g id="patch_235">
    <path d="M 386.405663 276.48 
L 387.777567 276.48 
L 387.777567 174.573375 
L 386.405663 174.573375 
z
" clip-path="url(#pbd6e9b3979)" style="fill: #1f77b4"/>
   </g>
   <g id="patch_236">
    <path d="M 387.733312 276.48 
L 389.105217 276.48 
L 389.105217 164.382713 
L 387.733312 164.382713 
z
" clip-path="url(#pbd6e9b3979)" style="fill: #1f77b4"/>
   </g>
   <g id="patch_237">
    <path d="M 389.105217 276.48 
L 390.477121 276.48 
L 390.477121 168.534464 
L 389.105217 168.534464 
z
" clip-path="url(#pbd6e9b3979)" style="fill: #1f77b4"/>
   </g>
   <g id="patch_238">
    <path d="M 390.477121 276.48 
L 391.849025 276.48 
L 391.849025 157.588938 
L 390.477121 157.588938 
z
" clip-path="url(#pbd6e9b3979)" style="fill: #1f77b4"/>
   </g>
   <g id="patch_239">
    <path d="M 391.716261 276.48 
L 393.088165 276.48 
L 393.088165 152.682322 
L 391.716261 152.682322 
z
" clip-path="url(#pbd6e9b3979)" style="fill: #1f77b4"/>
   </g>
   <g id="patch_240">
    <path d="M 393.088165 276.48 
L 394.460069 276.48 
L 394.460069 165.137576 
L 393.088165 165.137576 
z
" clip-path="url(#pbd6e9b3979)" style="fill: #1f77b4"/>
   </g>
   <g id="patch_241">
    <path d="M 394.415814 276.48 
L 395.787719 276.48 
L 395.787719 164.760145 
L 394.415814 164.760145 
z
" clip-path="url(#pbd6e9b3979)" style="fill: #1f77b4"/>
   </g>
   <g id="patch_242">
    <path d="M 395.787719 276.48 
L 397.159623 276.48 
L 397.159623 165.89244 
L 395.787719 165.89244 
z
" clip-path="url(#pbd6e9b3979)" style="fill: #1f77b4"/>
   </g>
   <g id="patch_243">
    <path d="M 397.115368 276.48 
L 398.487273 276.48 
L 398.487273 224.771824 
L 397.115368 224.771824 
z
" clip-path="url(#pbd6e9b3979)" style="fill: #1f77b4"/>
   </g>
   <g id="matplotlib.axis_1">
    <g id="xtick_1">
     <g id="line2d_1">
      <defs>
       <path id="m1fcad7a9bb" d="M 0 0 
L 0 3.5 
" style="stroke: #000000; stroke-width: 0.8"/>
      </defs>
      <g>
       <use xlink:href="#m1fcad7a9bb" x="82.661596" y="276.48" style="stroke: #000000; stroke-width: 0.8"/>
      </g>
     </g>
     <g id="text_1">
      <!-- 2006-01-01 -->
      <g transform="translate(31.292145 319.118252) rotate(-30) scale(0.1 -0.1)">
       <defs>
        <path id="DejaVuSans-32" d="M 1228 531 
L 3431 531 
L 3431 0 
L 469 0 
L 469 531 
Q 828 903 1448 1529 
Q 2069 2156 2228 2338 
Q 2531 2678 2651 2914 
Q 2772 3150 2772 3378 
Q 2772 3750 2511 3984 
Q 2250 4219 1831 4219 
Q 1534 4219 1204 4116 
Q 875 4013 500 3803 
L 500 4441 
Q 881 4594 1212 4672 
Q 1544 4750 1819 4750 
Q 2544 4750 2975 4387 
Q 3406 4025 3406 3419 
Q 3406 3131 3298 2873 
Q 3191 2616 2906 2266 
Q 2828 2175 2409 1742 
Q 1991 1309 1228 531 
z
" transform="scale(0.015625)"/>
        <path id="DejaVuSans-30" d="M 2034 4250 
Q 1547 4250 1301 3770 
Q 1056 3291 1056 2328 
Q 1056 1369 1301 889 
Q 1547 409 2034 409 
Q 2525 409 2770 889 
Q 3016 1369 3016 2328 
Q 3016 3291 2770 3770 
Q 2525 4250 2034 4250 
z
M 2034 4750 
Q 2819 4750 3233 4129 
Q 3647 3509 3647 2328 
Q 3647 1150 3233 529 
Q 2819 -91 2034 -91 
Q 1250 -91 836 529 
Q 422 1150 422 2328 
Q 422 3509 836 4129 
Q 1250 4750 2034 4750 
z
" transform="scale(0.015625)"/>
        <path id="DejaVuSans-36" d="M 2113 2584 
Q 1688 2584 1439 2293 
Q 1191 2003 1191 1497 
Q 1191 994 1439 701 
Q 1688 409 2113 409 
Q 2538 409 2786 701 
Q 3034 994 3034 1497 
Q 3034 2003 2786 2293 
Q 2538 2584 2113 2584 
z
M 3366 4563 
L 3366 3988 
Q 3128 4100 2886 4159 
Q 2644 4219 2406 4219 
Q 1781 4219 1451 3797 
Q 1122 3375 1075 2522 
Q 1259 2794 1537 2939 
Q 1816 3084 2150 3084 
Q 2853 3084 3261 2657 
Q 3669 2231 3669 1497 
Q 3669 778 3244 343 
Q 2819 -91 2113 -91 
Q 1303 -91 875 529 
Q 447 1150 447 2328 
Q 447 3434 972 4092 
Q 1497 4750 2381 4750 
Q 2619 4750 2861 4703 
Q 3103 4656 3366 4563 
z
" transform="scale(0.015625)"/>
        <path id="DejaVuSans-2d" d="M 313 2009 
L 1997 2009 
L 1997 1497 
L 313 1497 
L 313 2009 
z
" transform="scale(0.015625)"/>
        <path id="DejaVuSans-31" d="M 794 531 
L 1825 531 
L 1825 4091 
L 703 3866 
L 703 4441 
L 1819 4666 
L 2450 4666 
L 2450 531 
L 3481 531 
L 3481 0 
L 794 0 
L 794 531 
z
" transform="scale(0.015625)"/>
       </defs>
       <use xlink:href="#DejaVuSans-32"/>
       <use xlink:href="#DejaVuSans-30" transform="translate(63.623047 0)"/>
       <use xlink:href="#DejaVuSans-30" transform="translate(127.246094 0)"/>
       <use xlink:href="#DejaVuSans-36" transform="translate(190.869141 0)"/>
       <use xlink:href="#DejaVuSans-2d" transform="translate(254.492188 0)"/>
       <use xlink:href="#DejaVuSans-30" transform="translate(290.576172 0)"/>
       <use xlink:href="#DejaVuSans-31" transform="translate(354.199219 0)"/>
       <use xlink:href="#DejaVuSans-2d" transform="translate(417.822266 0)"/>
       <use xlink:href="#DejaVuSans-30" transform="translate(453.90625 0)"/>
       <use xlink:href="#DejaVuSans-31" transform="translate(517.529297 0)"/>
      </g>
     </g>
    </g>
    <g id="xtick_2">
     <g id="line2d_2">
      <g>
       <use xlink:href="#m1fcad7a9bb" x="98.814664" y="276.48" style="stroke: #000000; stroke-width: 0.8"/>
      </g>
     </g>
     <g id="text_2">
      <!-- 2007-01-01 -->
      <g transform="translate(47.445213 319.118252) rotate(-30) scale(0.1 -0.1)">
       <defs>
        <path id="DejaVuSans-37" d="M 525 4666 
L 3525 4666 
L 3525 4397 
L 1831 0 
L 1172 0 
L 2766 4134 
L 525 4134 
L 525 4666 
z
" transform="scale(0.015625)"/>
       </defs>
       <use xlink:href="#DejaVuSans-32"/>
       <use xlink:href="#DejaVuSans-30" transform="translate(63.623047 0)"/>
       <use xlink:href="#DejaVuSans-30" transform="translate(127.246094 0)"/>
       <use xlink:href="#DejaVuSans-37" transform="translate(190.869141 0)"/>
       <use xlink:href="#DejaVuSans-2d" transform="translate(254.492188 0)"/>
       <use xlink:href="#DejaVuSans-30" transform="translate(290.576172 0)"/>
       <use xlink:href="#DejaVuSans-31" transform="translate(354.199219 0)"/>
       <use xlink:href="#DejaVuSans-2d" transform="translate(417.822266 0)"/>
       <use xlink:href="#DejaVuSans-30" transform="translate(453.90625 0)"/>
       <use xlink:href="#DejaVuSans-31" transform="translate(517.529297 0)"/>
      </g>
     </g>
    </g>
    <g id="xtick_3">
     <g id="line2d_3">
      <g>
       <use xlink:href="#m1fcad7a9bb" x="114.967733" y="276.48" style="stroke: #000000; stroke-width: 0.8"/>
      </g>
     </g>
     <g id="text_3">
      <!-- 2008-01-01 -->
      <g transform="translate(63.598281 319.118252) rotate(-30) scale(0.1 -0.1)">
       <defs>
        <path id="DejaVuSans-38" d="M 2034 2216 
Q 1584 2216 1326 1975 
Q 1069 1734 1069 1313 
Q 1069 891 1326 650 
Q 1584 409 2034 409 
Q 2484 409 2743 651 
Q 3003 894 3003 1313 
Q 3003 1734 2745 1975 
Q 2488 2216 2034 2216 
z
M 1403 2484 
Q 997 2584 770 2862 
Q 544 3141 544 3541 
Q 544 4100 942 4425 
Q 1341 4750 2034 4750 
Q 2731 4750 3128 4425 
Q 3525 4100 3525 3541 
Q 3525 3141 3298 2862 
Q 3072 2584 2669 2484 
Q 3125 2378 3379 2068 
Q 3634 1759 3634 1313 
Q 3634 634 3220 271 
Q 2806 -91 2034 -91 
Q 1263 -91 848 271 
Q 434 634 434 1313 
Q 434 1759 690 2068 
Q 947 2378 1403 2484 
z
M 1172 3481 
Q 1172 3119 1398 2916 
Q 1625 2713 2034 2713 
Q 2441 2713 2670 2916 
Q 2900 3119 2900 3481 
Q 2900 3844 2670 4047 
Q 2441 4250 2034 4250 
Q 1625 4250 1398 4047 
Q 1172 3844 1172 3481 
z
" transform="scale(0.015625)"/>
       </defs>
       <use xlink:href="#DejaVuSans-32"/>
       <use xlink:href="#DejaVuSans-30" transform="translate(63.623047 0)"/>
       <use xlink:href="#DejaVuSans-30" transform="translate(127.246094 0)"/>
       <use xlink:href="#DejaVuSans-38" transform="translate(190.869141 0)"/>
       <use xlink:href="#DejaVuSans-2d" transform="translate(254.492188 0)"/>
       <use xlink:href="#DejaVuSans-30" transform="translate(290.576172 0)"/>
       <use xlink:href="#DejaVuSans-31" transform="translate(354.199219 0)"/>
       <use xlink:href="#DejaVuSans-2d" transform="translate(417.822266 0)"/>
       <use xlink:href="#DejaVuSans-30" transform="translate(453.90625 0)"/>
       <use xlink:href="#DejaVuSans-31" transform="translate(517.529297 0)"/>
      </g>
     </g>
    </g>
    <g id="xtick_4">
     <g id="line2d_4">
      <g>
       <use xlink:href="#m1fcad7a9bb" x="131.165056" y="276.48" style="stroke: #000000; stroke-width: 0.8"/>
      </g>
     </g>
     <g id="text_4">
      <!-- 2009-01-01 -->
      <g transform="translate(79.795605 319.118252) rotate(-30) scale(0.1 -0.1)">
       <defs>
        <path id="DejaVuSans-39" d="M 703 97 
L 703 672 
Q 941 559 1184 500 
Q 1428 441 1663 441 
Q 2288 441 2617 861 
Q 2947 1281 2994 2138 
Q 2813 1869 2534 1725 
Q 2256 1581 1919 1581 
Q 1219 1581 811 2004 
Q 403 2428 403 3163 
Q 403 3881 828 4315 
Q 1253 4750 1959 4750 
Q 2769 4750 3195 4129 
Q 3622 3509 3622 2328 
Q 3622 1225 3098 567 
Q 2575 -91 1691 -91 
Q 1453 -91 1209 -44 
Q 966 3 703 97 
z
M 1959 2075 
Q 2384 2075 2632 2365 
Q 2881 2656 2881 3163 
Q 2881 3666 2632 3958 
Q 2384 4250 1959 4250 
Q 1534 4250 1286 3958 
Q 1038 3666 1038 3163 
Q 1038 2656 1286 2365 
Q 1534 2075 1959 2075 
z
" transform="scale(0.015625)"/>
       </defs>
       <use xlink:href="#DejaVuSans-32"/>
       <use xlink:href="#DejaVuSans-30" transform="translate(63.623047 0)"/>
       <use xlink:href="#DejaVuSans-30" transform="translate(127.246094 0)"/>
       <use xlink:href="#DejaVuSans-39" transform="translate(190.869141 0)"/>
       <use xlink:href="#DejaVuSans-2d" transform="translate(254.492188 0)"/>
       <use xlink:href="#DejaVuSans-30" transform="translate(290.576172 0)"/>
       <use xlink:href="#DejaVuSans-31" transform="translate(354.199219 0)"/>
       <use xlink:href="#DejaVuSans-2d" transform="translate(417.822266 0)"/>
       <use xlink:href="#DejaVuSans-30" transform="translate(453.90625 0)"/>
       <use xlink:href="#DejaVuSans-31" transform="translate(517.529297 0)"/>
      </g>
     </g>
    </g>
    <g id="xtick_5">
     <g id="line2d_5">
      <g>
       <use xlink:href="#m1fcad7a9bb" x="147.318124" y="276.48" style="stroke: #000000; stroke-width: 0.8"/>
      </g>
     </g>
     <g id="text_5">
      <!-- 2010-01-01 -->
      <g transform="translate(95.948673 319.118252) rotate(-30) scale(0.1 -0.1)">
       <use xlink:href="#DejaVuSans-32"/>
       <use xlink:href="#DejaVuSans-30" transform="translate(63.623047 0)"/>
       <use xlink:href="#DejaVuSans-31" transform="translate(127.246094 0)"/>
       <use xlink:href="#DejaVuSans-30" transform="translate(190.869141 0)"/>
       <use xlink:href="#DejaVuSans-2d" transform="translate(254.492188 0)"/>
       <use xlink:href="#DejaVuSans-30" transform="translate(290.576172 0)"/>
       <use xlink:href="#DejaVuSans-31" transform="translate(354.199219 0)"/>
       <use xlink:href="#DejaVuSans-2d" transform="translate(417.822266 0)"/>
       <use xlink:href="#DejaVuSans-30" transform="translate(453.90625 0)"/>
       <use xlink:href="#DejaVuSans-31" transform="translate(517.529297 0)"/>
      </g>
     </g>
    </g>
    <g id="xtick_6">
     <g id="line2d_6">
      <g>
       <use xlink:href="#m1fcad7a9bb" x="163.471193" y="276.48" style="stroke: #000000; stroke-width: 0.8"/>
      </g>
     </g>
     <g id="text_6">
      <!-- 2011-01-01 -->
      <g transform="translate(112.101741 319.118252) rotate(-30) scale(0.1 -0.1)">
       <use xlink:href="#DejaVuSans-32"/>
       <use xlink:href="#DejaVuSans-30" transform="translate(63.623047 0)"/>
       <use xlink:href="#DejaVuSans-31" transform="translate(127.246094 0)"/>
       <use xlink:href="#DejaVuSans-31" transform="translate(190.869141 0)"/>
       <use xlink:href="#DejaVuSans-2d" transform="translate(254.492188 0)"/>
       <use xlink:href="#DejaVuSans-30" transform="translate(290.576172 0)"/>
       <use xlink:href="#DejaVuSans-31" transform="translate(354.199219 0)"/>
       <use xlink:href="#DejaVuSans-2d" transform="translate(417.822266 0)"/>
       <use xlink:href="#DejaVuSans-30" transform="translate(453.90625 0)"/>
       <use xlink:href="#DejaVuSans-31" transform="translate(517.529297 0)"/>
      </g>
     </g>
    </g>
    <g id="xtick_7">
     <g id="line2d_7">
      <g>
       <use xlink:href="#m1fcad7a9bb" x="179.624261" y="276.48" style="stroke: #000000; stroke-width: 0.8"/>
      </g>
     </g>
     <g id="text_7">
      <!-- 2012-01-01 -->
      <g transform="translate(128.25481 319.118252) rotate(-30) scale(0.1 -0.1)">
       <use xlink:href="#DejaVuSans-32"/>
       <use xlink:href="#DejaVuSans-30" transform="translate(63.623047 0)"/>
       <use xlink:href="#DejaVuSans-31" transform="translate(127.246094 0)"/>
       <use xlink:href="#DejaVuSans-32" transform="translate(190.869141 0)"/>
       <use xlink:href="#DejaVuSans-2d" transform="translate(254.492188 0)"/>
       <use xlink:href="#DejaVuSans-30" transform="translate(290.576172 0)"/>
       <use xlink:href="#DejaVuSans-31" transform="translate(354.199219 0)"/>
       <use xlink:href="#DejaVuSans-2d" transform="translate(417.822266 0)"/>
       <use xlink:href="#DejaVuSans-30" transform="translate(453.90625 0)"/>
       <use xlink:href="#DejaVuSans-31" transform="translate(517.529297 0)"/>
      </g>
     </g>
    </g>
    <g id="xtick_8">
     <g id="line2d_8">
      <g>
       <use xlink:href="#m1fcad7a9bb" x="195.821584" y="276.48" style="stroke: #000000; stroke-width: 0.8"/>
      </g>
     </g>
     <g id="text_8">
      <!-- 2013-01-01 -->
      <g transform="translate(144.452133 319.118252) rotate(-30) scale(0.1 -0.1)">
       <defs>
        <path id="DejaVuSans-33" d="M 2597 2516 
Q 3050 2419 3304 2112 
Q 3559 1806 3559 1356 
Q 3559 666 3084 287 
Q 2609 -91 1734 -91 
Q 1441 -91 1130 -33 
Q 819 25 488 141 
L 488 750 
Q 750 597 1062 519 
Q 1375 441 1716 441 
Q 2309 441 2620 675 
Q 2931 909 2931 1356 
Q 2931 1769 2642 2001 
Q 2353 2234 1838 2234 
L 1294 2234 
L 1294 2753 
L 1863 2753 
Q 2328 2753 2575 2939 
Q 2822 3125 2822 3475 
Q 2822 3834 2567 4026 
Q 2313 4219 1838 4219 
Q 1578 4219 1281 4162 
Q 984 4106 628 3988 
L 628 4550 
Q 988 4650 1302 4700 
Q 1616 4750 1894 4750 
Q 2613 4750 3031 4423 
Q 3450 4097 3450 3541 
Q 3450 3153 3228 2886 
Q 3006 2619 2597 2516 
z
" transform="scale(0.015625)"/>
       </defs>
       <use xlink:href="#DejaVuSans-32"/>
       <use xlink:href="#DejaVuSans-30" transform="translate(63.623047 0)"/>
       <use xlink:href="#DejaVuSans-31" transform="translate(127.246094 0)"/>
       <use xlink:href="#DejaVuSans-33" transform="translate(190.869141 0)"/>
       <use xlink:href="#DejaVuSans-2d" transform="translate(254.492188 0)"/>
       <use xlink:href="#DejaVuSans-30" transform="translate(290.576172 0)"/>
       <use xlink:href="#DejaVuSans-31" transform="translate(354.199219 0)"/>
       <use xlink:href="#DejaVuSans-2d" transform="translate(417.822266 0)"/>
       <use xlink:href="#DejaVuSans-30" transform="translate(453.90625 0)"/>
       <use xlink:href="#DejaVuSans-31" transform="translate(517.529297 0)"/>
      </g>
     </g>
    </g>
    <g id="xtick_9">
     <g id="line2d_9">
      <g>
       <use xlink:href="#m1fcad7a9bb" x="211.974653" y="276.48" style="stroke: #000000; stroke-width: 0.8"/>
      </g>
     </g>
     <g id="text_9">
      <!-- 2014-01-01 -->
      <g transform="translate(160.605201 319.118252) rotate(-30) scale(0.1 -0.1)">
       <defs>
        <path id="DejaVuSans-34" d="M 2419 4116 
L 825 1625 
L 2419 1625 
L 2419 4116 
z
M 2253 4666 
L 3047 4666 
L 3047 1625 
L 3713 1625 
L 3713 1100 
L 3047 1100 
L 3047 0 
L 2419 0 
L 2419 1100 
L 313 1100 
L 313 1709 
L 2253 4666 
z
" transform="scale(0.015625)"/>
       </defs>
       <use xlink:href="#DejaVuSans-32"/>
       <use xlink:href="#DejaVuSans-30" transform="translate(63.623047 0)"/>
       <use xlink:href="#DejaVuSans-31" transform="translate(127.246094 0)"/>
       <use xlink:href="#DejaVuSans-34" transform="translate(190.869141 0)"/>
       <use xlink:href="#DejaVuSans-2d" transform="translate(254.492188 0)"/>
       <use xlink:href="#DejaVuSans-30" transform="translate(290.576172 0)"/>
       <use xlink:href="#DejaVuSans-31" transform="translate(354.199219 0)"/>
       <use xlink:href="#DejaVuSans-2d" transform="translate(417.822266 0)"/>
       <use xlink:href="#DejaVuSans-30" transform="translate(453.90625 0)"/>
       <use xlink:href="#DejaVuSans-31" transform="translate(517.529297 0)"/>
      </g>
     </g>
    </g>
    <g id="xtick_10">
     <g id="line2d_10">
      <g>
       <use xlink:href="#m1fcad7a9bb" x="228.127721" y="276.48" style="stroke: #000000; stroke-width: 0.8"/>
      </g>
     </g>
     <g id="text_10">
      <!-- 2015-01-01 -->
      <g transform="translate(176.758269 319.118252) rotate(-30) scale(0.1 -0.1)">
       <defs>
        <path id="DejaVuSans-35" d="M 691 4666 
L 3169 4666 
L 3169 4134 
L 1269 4134 
L 1269 2991 
Q 1406 3038 1543 3061 
Q 1681 3084 1819 3084 
Q 2600 3084 3056 2656 
Q 3513 2228 3513 1497 
Q 3513 744 3044 326 
Q 2575 -91 1722 -91 
Q 1428 -91 1123 -41 
Q 819 9 494 109 
L 494 744 
Q 775 591 1075 516 
Q 1375 441 1709 441 
Q 2250 441 2565 725 
Q 2881 1009 2881 1497 
Q 2881 1984 2565 2268 
Q 2250 2553 1709 2553 
Q 1456 2553 1204 2497 
Q 953 2441 691 2322 
L 691 4666 
z
" transform="scale(0.015625)"/>
       </defs>
       <use xlink:href="#DejaVuSans-32"/>
       <use xlink:href="#DejaVuSans-30" transform="translate(63.623047 0)"/>
       <use xlink:href="#DejaVuSans-31" transform="translate(127.246094 0)"/>
       <use xlink:href="#DejaVuSans-35" transform="translate(190.869141 0)"/>
       <use xlink:href="#DejaVuSans-2d" transform="translate(254.492188 0)"/>
       <use xlink:href="#DejaVuSans-30" transform="translate(290.576172 0)"/>
       <use xlink:href="#DejaVuSans-31" transform="translate(354.199219 0)"/>
       <use xlink:href="#DejaVuSans-2d" transform="translate(417.822266 0)"/>
       <use xlink:href="#DejaVuSans-30" transform="translate(453.90625 0)"/>
       <use xlink:href="#DejaVuSans-31" transform="translate(517.529297 0)"/>
      </g>
     </g>
    </g>
    <g id="xtick_11">
     <g id="line2d_11">
      <g>
       <use xlink:href="#m1fcad7a9bb" x="244.280789" y="276.48" style="stroke: #000000; stroke-width: 0.8"/>
      </g>
     </g>
     <g id="text_11">
      <!-- 2016-01-01 -->
      <g transform="translate(192.911338 319.118252) rotate(-30) scale(0.1 -0.1)">
       <use xlink:href="#DejaVuSans-32"/>
       <use xlink:href="#DejaVuSans-30" transform="translate(63.623047 0)"/>
       <use xlink:href="#DejaVuSans-31" transform="translate(127.246094 0)"/>
       <use xlink:href="#DejaVuSans-36" transform="translate(190.869141 0)"/>
       <use xlink:href="#DejaVuSans-2d" transform="translate(254.492188 0)"/>
       <use xlink:href="#DejaVuSans-30" transform="translate(290.576172 0)"/>
       <use xlink:href="#DejaVuSans-31" transform="translate(354.199219 0)"/>
       <use xlink:href="#DejaVuSans-2d" transform="translate(417.822266 0)"/>
       <use xlink:href="#DejaVuSans-30" transform="translate(453.90625 0)"/>
       <use xlink:href="#DejaVuSans-31" transform="translate(517.529297 0)"/>
      </g>
     </g>
    </g>
    <g id="xtick_12">
     <g id="line2d_12">
      <g>
       <use xlink:href="#m1fcad7a9bb" x="260.478112" y="276.48" style="stroke: #000000; stroke-width: 0.8"/>
      </g>
     </g>
     <g id="text_12">
      <!-- 2017-01-01 -->
      <g transform="translate(209.108661 319.118252) rotate(-30) scale(0.1 -0.1)">
       <use xlink:href="#DejaVuSans-32"/>
       <use xlink:href="#DejaVuSans-30" transform="translate(63.623047 0)"/>
       <use xlink:href="#DejaVuSans-31" transform="translate(127.246094 0)"/>
       <use xlink:href="#DejaVuSans-37" transform="translate(190.869141 0)"/>
       <use xlink:href="#DejaVuSans-2d" transform="translate(254.492188 0)"/>
       <use xlink:href="#DejaVuSans-30" transform="translate(290.576172 0)"/>
       <use xlink:href="#DejaVuSans-31" transform="translate(354.199219 0)"/>
       <use xlink:href="#DejaVuSans-2d" transform="translate(417.822266 0)"/>
       <use xlink:href="#DejaVuSans-30" transform="translate(453.90625 0)"/>
       <use xlink:href="#DejaVuSans-31" transform="translate(517.529297 0)"/>
      </g>
     </g>
    </g>
    <g id="xtick_13">
     <g id="line2d_13">
      <g>
       <use xlink:href="#m1fcad7a9bb" x="276.631181" y="276.48" style="stroke: #000000; stroke-width: 0.8"/>
      </g>
     </g>
     <g id="text_13">
      <!-- 2018-01-01 -->
      <g transform="translate(225.261729 319.118252) rotate(-30) scale(0.1 -0.1)">
       <use xlink:href="#DejaVuSans-32"/>
       <use xlink:href="#DejaVuSans-30" transform="translate(63.623047 0)"/>
       <use xlink:href="#DejaVuSans-31" transform="translate(127.246094 0)"/>
       <use xlink:href="#DejaVuSans-38" transform="translate(190.869141 0)"/>
       <use xlink:href="#DejaVuSans-2d" transform="translate(254.492188 0)"/>
       <use xlink:href="#DejaVuSans-30" transform="translate(290.576172 0)"/>
       <use xlink:href="#DejaVuSans-31" transform="translate(354.199219 0)"/>
       <use xlink:href="#DejaVuSans-2d" transform="translate(417.822266 0)"/>
       <use xlink:href="#DejaVuSans-30" transform="translate(453.90625 0)"/>
       <use xlink:href="#DejaVuSans-31" transform="translate(517.529297 0)"/>
      </g>
     </g>
    </g>
    <g id="xtick_14">
     <g id="line2d_14">
      <g>
       <use xlink:href="#m1fcad7a9bb" x="292.784249" y="276.48" style="stroke: #000000; stroke-width: 0.8"/>
      </g>
     </g>
     <g id="text_14">
      <!-- 2019-01-01 -->
      <g transform="translate(241.414798 319.118252) rotate(-30) scale(0.1 -0.1)">
       <use xlink:href="#DejaVuSans-32"/>
       <use xlink:href="#DejaVuSans-30" transform="translate(63.623047 0)"/>
       <use xlink:href="#DejaVuSans-31" transform="translate(127.246094 0)"/>
       <use xlink:href="#DejaVuSans-39" transform="translate(190.869141 0)"/>
       <use xlink:href="#DejaVuSans-2d" transform="translate(254.492188 0)"/>
       <use xlink:href="#DejaVuSans-30" transform="translate(290.576172 0)"/>
       <use xlink:href="#DejaVuSans-31" transform="translate(354.199219 0)"/>
       <use xlink:href="#DejaVuSans-2d" transform="translate(417.822266 0)"/>
       <use xlink:href="#DejaVuSans-30" transform="translate(453.90625 0)"/>
       <use xlink:href="#DejaVuSans-31" transform="translate(517.529297 0)"/>
      </g>
     </g>
    </g>
    <g id="xtick_15">
     <g id="line2d_15">
      <g>
       <use xlink:href="#m1fcad7a9bb" x="308.937317" y="276.48" style="stroke: #000000; stroke-width: 0.8"/>
      </g>
     </g>
     <g id="text_15">
      <!-- 2020-01-01 -->
      <g transform="translate(257.567866 319.118252) rotate(-30) scale(0.1 -0.1)">
       <use xlink:href="#DejaVuSans-32"/>
       <use xlink:href="#DejaVuSans-30" transform="translate(63.623047 0)"/>
       <use xlink:href="#DejaVuSans-32" transform="translate(127.246094 0)"/>
       <use xlink:href="#DejaVuSans-30" transform="translate(190.869141 0)"/>
       <use xlink:href="#DejaVuSans-2d" transform="translate(254.492188 0)"/>
       <use xlink:href="#DejaVuSans-30" transform="translate(290.576172 0)"/>
       <use xlink:href="#DejaVuSans-31" transform="translate(354.199219 0)"/>
       <use xlink:href="#DejaVuSans-2d" transform="translate(417.822266 0)"/>
       <use xlink:href="#DejaVuSans-30" transform="translate(453.90625 0)"/>
       <use xlink:href="#DejaVuSans-31" transform="translate(517.529297 0)"/>
      </g>
     </g>
    </g>
    <g id="xtick_16">
     <g id="line2d_16">
      <g>
       <use xlink:href="#m1fcad7a9bb" x="325.134641" y="276.48" style="stroke: #000000; stroke-width: 0.8"/>
      </g>
     </g>
     <g id="text_16">
      <!-- 2021-01-01 -->
      <g transform="translate(273.765189 319.118252) rotate(-30) scale(0.1 -0.1)">
       <use xlink:href="#DejaVuSans-32"/>
       <use xlink:href="#DejaVuSans-30" transform="translate(63.623047 0)"/>
       <use xlink:href="#DejaVuSans-32" transform="translate(127.246094 0)"/>
       <use xlink:href="#DejaVuSans-31" transform="translate(190.869141 0)"/>
       <use xlink:href="#DejaVuSans-2d" transform="translate(254.492188 0)"/>
       <use xlink:href="#DejaVuSans-30" transform="translate(290.576172 0)"/>
       <use xlink:href="#DejaVuSans-31" transform="translate(354.199219 0)"/>
       <use xlink:href="#DejaVuSans-2d" transform="translate(417.822266 0)"/>
       <use xlink:href="#DejaVuSans-30" transform="translate(453.90625 0)"/>
       <use xlink:href="#DejaVuSans-31" transform="translate(517.529297 0)"/>
      </g>
     </g>
    </g>
    <g id="xtick_17">
     <g id="line2d_17">
      <g>
       <use xlink:href="#m1fcad7a9bb" x="341.287709" y="276.48" style="stroke: #000000; stroke-width: 0.8"/>
      </g>
     </g>
     <g id="text_17">
      <!-- 2022-01-01 -->
      <g transform="translate(289.918258 319.118252) rotate(-30) scale(0.1 -0.1)">
       <use xlink:href="#DejaVuSans-32"/>
       <use xlink:href="#DejaVuSans-30" transform="translate(63.623047 0)"/>
       <use xlink:href="#DejaVuSans-32" transform="translate(127.246094 0)"/>
       <use xlink:href="#DejaVuSans-32" transform="translate(190.869141 0)"/>
       <use xlink:href="#DejaVuSans-2d" transform="translate(254.492188 0)"/>
       <use xlink:href="#DejaVuSans-30" transform="translate(290.576172 0)"/>
       <use xlink:href="#DejaVuSans-31" transform="translate(354.199219 0)"/>
       <use xlink:href="#DejaVuSans-2d" transform="translate(417.822266 0)"/>
       <use xlink:href="#DejaVuSans-30" transform="translate(453.90625 0)"/>
       <use xlink:href="#DejaVuSans-31" transform="translate(517.529297 0)"/>
      </g>
     </g>
    </g>
    <g id="xtick_18">
     <g id="line2d_18">
      <g>
       <use xlink:href="#m1fcad7a9bb" x="357.440777" y="276.48" style="stroke: #000000; stroke-width: 0.8"/>
      </g>
     </g>
     <g id="text_18">
      <!-- 2023-01-01 -->
      <g transform="translate(306.071326 319.118252) rotate(-30) scale(0.1 -0.1)">
       <use xlink:href="#DejaVuSans-32"/>
       <use xlink:href="#DejaVuSans-30" transform="translate(63.623047 0)"/>
       <use xlink:href="#DejaVuSans-32" transform="translate(127.246094 0)"/>
       <use xlink:href="#DejaVuSans-33" transform="translate(190.869141 0)"/>
       <use xlink:href="#DejaVuSans-2d" transform="translate(254.492188 0)"/>
       <use xlink:href="#DejaVuSans-30" transform="translate(290.576172 0)"/>
       <use xlink:href="#DejaVuSans-31" transform="translate(354.199219 0)"/>
       <use xlink:href="#DejaVuSans-2d" transform="translate(417.822266 0)"/>
       <use xlink:href="#DejaVuSans-30" transform="translate(453.90625 0)"/>
       <use xlink:href="#DejaVuSans-31" transform="translate(517.529297 0)"/>
      </g>
     </g>
    </g>
    <g id="xtick_19">
     <g id="line2d_19">
      <g>
       <use xlink:href="#m1fcad7a9bb" x="373.593846" y="276.48" style="stroke: #000000; stroke-width: 0.8"/>
      </g>
     </g>
     <g id="text_19">
      <!-- 2024-01-01 -->
      <g transform="translate(322.224394 319.118252) rotate(-30) scale(0.1 -0.1)">
       <use xlink:href="#DejaVuSans-32"/>
       <use xlink:href="#DejaVuSans-30" transform="translate(63.623047 0)"/>
       <use xlink:href="#DejaVuSans-32" transform="translate(127.246094 0)"/>
       <use xlink:href="#DejaVuSans-34" transform="translate(190.869141 0)"/>
       <use xlink:href="#DejaVuSans-2d" transform="translate(254.492188 0)"/>
       <use xlink:href="#DejaVuSans-30" transform="translate(290.576172 0)"/>
       <use xlink:href="#DejaVuSans-31" transform="translate(354.199219 0)"/>
       <use xlink:href="#DejaVuSans-2d" transform="translate(417.822266 0)"/>
       <use xlink:href="#DejaVuSans-30" transform="translate(453.90625 0)"/>
       <use xlink:href="#DejaVuSans-31" transform="translate(517.529297 0)"/>
      </g>
     </g>
    </g>
    <g id="xtick_20">
     <g id="line2d_20">
      <g>
       <use xlink:href="#m1fcad7a9bb" x="389.791169" y="276.48" style="stroke: #000000; stroke-width: 0.8"/>
      </g>
     </g>
     <g id="text_20">
      <!-- 2025-01-01 -->
      <g transform="translate(338.421717 319.118252) rotate(-30) scale(0.1 -0.1)">
       <use xlink:href="#DejaVuSans-32"/>
       <use xlink:href="#DejaVuSans-30" transform="translate(63.623047 0)"/>
       <use xlink:href="#DejaVuSans-32" transform="translate(127.246094 0)"/>
       <use xlink:href="#DejaVuSans-35" transform="translate(190.869141 0)"/>
       <use xlink:href="#DejaVuSans-2d" transform="translate(254.492188 0)"/>
       <use xlink:href="#DejaVuSans-30" transform="translate(290.576172 0)"/>
       <use xlink:href="#DejaVuSans-31" transform="translate(354.199219 0)"/>
       <use xlink:href="#DejaVuSans-2d" transform="translate(417.822266 0)"/>
       <use xlink:href="#DejaVuSans-30" transform="translate(453.90625 0)"/>
       <use xlink:href="#DejaVuSans-31" transform="translate(517.529297 0)"/>
      </g>
     </g>
    </g>
    <g id="text_21">
     <!-- date -->
     <g transform="translate(224.885 332.517752) scale(0.1 -0.1)">
      <defs>
       <path id="DejaVuSans-64" d="M 2906 2969 
L 2906 4863 
L 3481 4863 
L 3481 0 
L 2906 0 
L 2906 525 
Q 2725 213 2448 61 
Q 2172 -91 1784 -91 
Q 1150 -91 751 415 
Q 353 922 353 1747 
Q 353 2572 751 3078 
Q 1150 3584 1784 3584 
Q 2172 3584 2448 3432 
Q 2725 3281 2906 2969 
z
M 947 1747 
Q 947 1113 1208 752 
Q 1469 391 1925 391 
Q 2381 391 2643 752 
Q 2906 1113 2906 1747 
Q 2906 2381 2643 2742 
Q 2381 3103 1925 3103 
Q 1469 3103 1208 2742 
Q 947 2381 947 1747 
z
" transform="scale(0.015625)"/>
       <path id="DejaVuSans-61" d="M 2194 1759 
Q 1497 1759 1228 1600 
Q 959 1441 959 1056 
Q 959 750 1161 570 
Q 1363 391 1709 391 
Q 2188 391 2477 730 
Q 2766 1069 2766 1631 
L 2766 1759 
L 2194 1759 
z
M 3341 1997 
L 3341 0 
L 2766 0 
L 2766 531 
Q 2569 213 2275 61 
Q 1981 -91 1556 -91 
Q 1019 -91 701 211 
Q 384 513 384 1019 
Q 384 1609 779 1909 
Q 1175 2209 1959 2209 
L 2766 2209 
L 2766 2266 
Q 2766 2663 2505 2880 
Q 2244 3097 1772 3097 
Q 1472 3097 1187 3025 
Q 903 2953 641 2809 
L 641 3341 
Q 956 3463 1253 3523 
Q 1550 3584 1831 3584 
Q 2591 3584 2966 3190 
Q 3341 2797 3341 1997 
z
" transform="scale(0.015625)"/>
       <path id="DejaVuSans-74" d="M 1172 4494 
L 1172 3500 
L 2356 3500 
L 2356 3053 
L 1172 3053 
L 1172 1153 
Q 1172 725 1289 603 
Q 1406 481 1766 481 
L 2356 481 
L 2356 0 
L 1766 0 
Q 1100 0 847 248 
Q 594 497 594 1153 
L 594 3053 
L 172 3053 
L 172 3500 
L 594 3500 
L 594 4494 
L 1172 4494 
z
" transform="scale(0.015625)"/>
       <path id="DejaVuSans-65" d="M 3597 1894 
L 3597 1613 
L 953 1613 
Q 991 1019 1311 708 
Q 1631 397 2203 397 
Q 2534 397 2845 478 
Q 3156 559 3463 722 
L 3463 178 
Q 3153 47 2828 -22 
Q 2503 -91 2169 -91 
Q 1331 -91 842 396 
Q 353 884 353 1716 
Q 353 2575 817 3079 
Q 1281 3584 2069 3584 
Q 2775 3584 3186 3129 
Q 3597 2675 3597 1894 
z
M 3022 2063 
Q 3016 2534 2758 2815 
Q 2500 3097 2075 3097 
Q 1594 3097 1305 2825 
Q 1016 2553 972 2059 
L 3022 2063 
z
" transform="scale(0.015625)"/>
      </defs>
      <use xlink:href="#DejaVuSans-64"/>
      <use xlink:href="#DejaVuSans-61" transform="translate(63.476562 0)"/>
      <use xlink:href="#DejaVuSans-74" transform="translate(124.755859 0)"/>
      <use xlink:href="#DejaVuSans-65" transform="translate(163.964844 0)"/>
     </g>
    </g>
   </g>
   <g id="matplotlib.axis_2">
    <g id="ytick_1">
     <g id="line2d_21">
      <defs>
       <path id="mb3fdcc17c5" d="M 0 0 
L -3.5 0 
" style="stroke: #000000; stroke-width: 0.8"/>
      </defs>
      <g>
       <use xlink:href="#mb3fdcc17c5" x="57.6" y="276.48" style="stroke: #000000; stroke-width: 0.8"/>
      </g>
     </g>
     <g id="text_22">
      <!-- 0 -->
      <g transform="translate(44.2375 280.279219) scale(0.1 -0.1)">
       <use xlink:href="#DejaVuSans-30"/>
      </g>
     </g>
    </g>
    <g id="ytick_2">
     <g id="line2d_22">
      <g>
       <use xlink:href="#mb3fdcc17c5" x="57.6" y="238.736806" style="stroke: #000000; stroke-width: 0.8"/>
      </g>
     </g>
     <g id="text_23">
      <!-- 100 -->
      <g transform="translate(31.5125 242.536024) scale(0.1 -0.1)">
       <use xlink:href="#DejaVuSans-31"/>
       <use xlink:href="#DejaVuSans-30" transform="translate(63.623047 0)"/>
       <use xlink:href="#DejaVuSans-30" transform="translate(127.246094 0)"/>
      </g>
     </g>
    </g>
    <g id="ytick_3">
     <g id="line2d_23">
      <g>
       <use xlink:href="#mb3fdcc17c5" x="57.6" y="200.993611" style="stroke: #000000; stroke-width: 0.8"/>
      </g>
     </g>
     <g id="text_24">
      <!-- 200 -->
      <g transform="translate(31.5125 204.79283) scale(0.1 -0.1)">
       <use xlink:href="#DejaVuSans-32"/>
       <use xlink:href="#DejaVuSans-30" transform="translate(63.623047 0)"/>
       <use xlink:href="#DejaVuSans-30" transform="translate(127.246094 0)"/>
      </g>
     </g>
    </g>
    <g id="ytick_4">
     <g id="line2d_24">
      <g>
       <use xlink:href="#mb3fdcc17c5" x="57.6" y="163.250417" style="stroke: #000000; stroke-width: 0.8"/>
      </g>
     </g>
     <g id="text_25">
      <!-- 300 -->
      <g transform="translate(31.5125 167.049636) scale(0.1 -0.1)">
       <use xlink:href="#DejaVuSans-33"/>
       <use xlink:href="#DejaVuSans-30" transform="translate(63.623047 0)"/>
       <use xlink:href="#DejaVuSans-30" transform="translate(127.246094 0)"/>
      </g>
     </g>
    </g>
    <g id="ytick_5">
     <g id="line2d_25">
      <g>
       <use xlink:href="#mb3fdcc17c5" x="57.6" y="125.507222" style="stroke: #000000; stroke-width: 0.8"/>
      </g>
     </g>
     <g id="text_26">
      <!-- 400 -->
      <g transform="translate(31.5125 129.306441) scale(0.1 -0.1)">
       <use xlink:href="#DejaVuSans-34"/>
       <use xlink:href="#DejaVuSans-30" transform="translate(63.623047 0)"/>
       <use xlink:href="#DejaVuSans-30" transform="translate(127.246094 0)"/>
      </g>
     </g>
    </g>
    <g id="ytick_6">
     <g id="line2d_26">
      <g>
       <use xlink:href="#mb3fdcc17c5" x="57.6" y="87.764028" style="stroke: #000000; stroke-width: 0.8"/>
      </g>
     </g>
     <g id="text_27">
      <!-- 500 -->
      <g transform="translate(31.5125 91.563247) scale(0.1 -0.1)">
       <use xlink:href="#DejaVuSans-35"/>
       <use xlink:href="#DejaVuSans-30" transform="translate(63.623047 0)"/>
       <use xlink:href="#DejaVuSans-30" transform="translate(127.246094 0)"/>
      </g>
     </g>
    </g>
    <g id="ytick_7">
     <g id="line2d_27">
      <g>
       <use xlink:href="#mb3fdcc17c5" x="57.6" y="50.020834" style="stroke: #000000; stroke-width: 0.8"/>
      </g>
     </g>
     <g id="text_28">
      <!-- 600 -->
      <g transform="translate(31.5125 53.820052) scale(0.1 -0.1)">
       <use xlink:href="#DejaVuSans-36"/>
       <use xlink:href="#DejaVuSans-30" transform="translate(63.623047 0)"/>
       <use xlink:href="#DejaVuSans-30" transform="translate(127.246094 0)"/>
      </g>
     </g>
    </g>
    <g id="text_29">
     <!-- active users -->
     <g transform="translate(25.432812 189.273656) rotate(-90) scale(0.1 -0.1)">
      <defs>
       <path id="DejaVuSans-63" d="M 3122 3366 
L 3122 2828 
Q 2878 2963 2633 3030 
Q 2388 3097 2138 3097 
Q 1578 3097 1268 2742 
Q 959 2388 959 1747 
Q 959 1106 1268 751 
Q 1578 397 2138 397 
Q 2388 397 2633 464 
Q 2878 531 3122 666 
L 3122 134 
Q 2881 22 2623 -34 
Q 2366 -91 2075 -91 
Q 1284 -91 818 406 
Q 353 903 353 1747 
Q 353 2603 823 3093 
Q 1294 3584 2113 3584 
Q 2378 3584 2631 3529 
Q 2884 3475 3122 3366 
z
" transform="scale(0.015625)"/>
       <path id="DejaVuSans-69" d="M 603 3500 
L 1178 3500 
L 1178 0 
L 603 0 
L 603 3500 
z
M 603 4863 
L 1178 4863 
L 1178 4134 
L 603 4134 
L 603 4863 
z
" transform="scale(0.015625)"/>
       <path id="DejaVuSans-76" d="M 191 3500 
L 800 3500 
L 1894 563 
L 2988 3500 
L 3597 3500 
L 2284 0 
L 1503 0 
L 191 3500 
z
" transform="scale(0.015625)"/>
       <path id="DejaVuSans-20" transform="scale(0.015625)"/>
       <path id="DejaVuSans-75" d="M 544 1381 
L 544 3500 
L 1119 3500 
L 1119 1403 
Q 1119 906 1312 657 
Q 1506 409 1894 409 
Q 2359 409 2629 706 
Q 2900 1003 2900 1516 
L 2900 3500 
L 3475 3500 
L 3475 0 
L 2900 0 
L 2900 538 
Q 2691 219 2414 64 
Q 2138 -91 1772 -91 
Q 1169 -91 856 284 
Q 544 659 544 1381 
z
M 1991 3584 
L 1991 3584 
z
" transform="scale(0.015625)"/>
       <path id="DejaVuSans-73" d="M 2834 3397 
L 2834 2853 
Q 2591 2978 2328 3040 
Q 2066 3103 1784 3103 
Q 1356 3103 1142 2972 
Q 928 2841 928 2578 
Q 928 2378 1081 2264 
Q 1234 2150 1697 2047 
L 1894 2003 
Q 2506 1872 2764 1633 
Q 3022 1394 3022 966 
Q 3022 478 2636 193 
Q 2250 -91 1575 -91 
Q 1294 -91 989 -36 
Q 684 19 347 128 
L 347 722 
Q 666 556 975 473 
Q 1284 391 1588 391 
Q 1994 391 2212 530 
Q 2431 669 2431 922 
Q 2431 1156 2273 1281 
Q 2116 1406 1581 1522 
L 1381 1569 
Q 847 1681 609 1914 
Q 372 2147 372 2553 
Q 372 3047 722 3315 
Q 1072 3584 1716 3584 
Q 2034 3584 2315 3537 
Q 2597 3491 2834 3397 
z
" transform="scale(0.015625)"/>
       <path id="DejaVuSans-72" d="M 2631 2963 
Q 2534 3019 2420 3045 
Q 2306 3072 2169 3072 
Q 1681 3072 1420 2755 
Q 1159 2438 1159 1844 
L 1159 0 
L 581 0 
L 581 3500 
L 1159 3500 
L 1159 2956 
Q 1341 3275 1631 3429 
Q 1922 3584 2338 3584 
Q 2397 3584 2469 3576 
Q 2541 3569 2628 3553 
L 2631 2963 
z
" transform="scale(0.015625)"/>
      </defs>
      <use xlink:href="#DejaVuSans-61"/>
      <use xlink:href="#DejaVuSans-63" transform="translate(61.279297 0)"/>
      <use xlink:href="#DejaVuSans-74" transform="translate(116.259766 0)"/>
      <use xlink:href="#DejaVuSans-69" transform="translate(155.46875 0)"/>
      <use xlink:href="#DejaVuSans-76" transform="translate(183.251953 0)"/>
      <use xlink:href="#DejaVuSans-65" transform="translate(242.431641 0)"/>
      <use xlink:href="#DejaVuSans-20" transform="translate(303.955078 0)"/>
      <use xlink:href="#DejaVuSans-75" transform="translate(335.742188 0)"/>
      <use xlink:href="#DejaVuSans-73" transform="translate(399.121094 0)"/>
      <use xlink:href="#DejaVuSans-65" transform="translate(451.220703 0)"/>
      <use xlink:href="#DejaVuSans-72" transform="translate(512.744141 0)"/>
      <use xlink:href="#DejaVuSans-73" transform="translate(553.857422 0)"/>
     </g>
    </g>
   </g>
   <g id="patch_244">
    <path d="M 57.6 276.48 
L 57.6 41.472 
" style="fill: none; stroke: #000000; stroke-width: 0.8; stroke-linejoin: miter; stroke-linecap: square"/>
   </g>
   <g id="patch_245">
    <path d="M 414.72 276.48 
L 414.72 41.472 
" style="fill: none; stroke: #000000; stroke-width: 0.8; stroke-linejoin: miter; stroke-linecap: square"/>
   </g>
   <g id="patch_246">
    <path d="M 57.6 276.48 
L 414.72 276.48 
" style="fill: none; stroke: #000000; stroke-width: 0.8; stroke-linejoin: miter; stroke-linecap: square"/>
   </g>
   <g id="patch_247">
    <path d="M 57.6 41.472 
L 414.72 41.472 
" style="fill: none; stroke: #000000; stroke-width: 0.8; stroke-linejoin: miter; stroke-linecap: square"/>
   </g>
   <g id="text_30">
    <!-- ArchWiki active users per month -->
    <g transform="translate(138.49875 35.472) scale(0.12 -0.12)">
     <defs>
      <path id="DejaVuSans-41" d="M 2188 4044 
L 1331 1722 
L 3047 1722 
L 2188 4044 
z
M 1831 4666 
L 2547 4666 
L 4325 0 
L 3669 0 
L 3244 1197 
L 1141 1197 
L 716 0 
L 50 0 
L 1831 4666 
z
" transform="scale(0.015625)"/>
      <path id="DejaVuSans-68" d="M 3513 2113 
L 3513 0 
L 2938 0 
L 2938 2094 
Q 2938 2591 2744 2837 
Q 2550 3084 2163 3084 
Q 1697 3084 1428 2787 
Q 1159 2491 1159 1978 
L 1159 0 
L 581 0 
L 581 4863 
L 1159 4863 
L 1159 2956 
Q 1366 3272 1645 3428 
Q 1925 3584 2291 3584 
Q 2894 3584 3203 3211 
Q 3513 2838 3513 2113 
z
" transform="scale(0.015625)"/>
      <path id="DejaVuSans-57" d="M 213 4666 
L 850 4666 
L 1831 722 
L 2809 4666 
L 3519 4666 
L 4500 722 
L 5478 4666 
L 6119 4666 
L 4947 0 
L 4153 0 
L 3169 4050 
L 2175 0 
L 1381 0 
L 213 4666 
z
" transform="scale(0.015625)"/>
      <path id="DejaVuSans-6b" d="M 581 4863 
L 1159 4863 
L 1159 1991 
L 2875 3500 
L 3609 3500 
L 1753 1863 
L 3688 0 
L 2938 0 
L 1159 1709 
L 1159 0 
L 581 0 
L 581 4863 
z
" transform="scale(0.015625)"/>
      <path id="DejaVuSans-70" d="M 1159 525 
L 1159 -1331 
L 581 -1331 
L 581 3500 
L 1159 3500 
L 1159 2969 
Q 1341 3281 1617 3432 
Q 1894 3584 2278 3584 
Q 2916 3584 3314 3078 
Q 3713 2572 3713 1747 
Q 3713 922 3314 415 
Q 2916 -91 2278 -91 
Q 1894 -91 1617 61 
Q 1341 213 1159 525 
z
M 3116 1747 
Q 3116 2381 2855 2742 
Q 2594 3103 2138 3103 
Q 1681 3103 1420 2742 
Q 1159 2381 1159 1747 
Q 1159 1113 1420 752 
Q 1681 391 2138 391 
Q 2594 391 2855 752 
Q 3116 1113 3116 1747 
z
" transform="scale(0.015625)"/>
      <path id="DejaVuSans-6d" d="M 3328 2828 
Q 3544 3216 3844 3400 
Q 4144 3584 4550 3584 
Q 5097 3584 5394 3201 
Q 5691 2819 5691 2113 
L 5691 0 
L 5113 0 
L 5113 2094 
Q 5113 2597 4934 2840 
Q 4756 3084 4391 3084 
Q 3944 3084 3684 2787 
Q 3425 2491 3425 1978 
L 3425 0 
L 2847 0 
L 2847 2094 
Q 2847 2600 2669 2842 
Q 2491 3084 2119 3084 
Q 1678 3084 1418 2786 
Q 1159 2488 1159 1978 
L 1159 0 
L 581 0 
L 581 3500 
L 1159 3500 
L 1159 2956 
Q 1356 3278 1631 3431 
Q 1906 3584 2284 3584 
Q 2666 3584 2933 3390 
Q 3200 3197 3328 2828 
z
" transform="scale(0.015625)"/>
      <path id="DejaVuSans-6f" d="M 1959 3097 
Q 1497 3097 1228 2736 
Q 959 2375 959 1747 
Q 959 1119 1226 758 
Q 1494 397 1959 397 
Q 2419 397 2687 759 
Q 2956 1122 2956 1747 
Q 2956 2369 2687 2733 
Q 2419 3097 1959 3097 
z
M 1959 3584 
Q 2709 3584 3137 3096 
Q 3566 2609 3566 1747 
Q 3566 888 3137 398 
Q 2709 -91 1959 -91 
Q 1206 -91 779 398 
Q 353 888 353 1747 
Q 353 2609 779 3096 
Q 1206 3584 1959 3584 
z
" transform="scale(0.015625)"/>
      <path id="DejaVuSans-6e" d="M 3513 2113 
L 3513 0 
L 2938 0 
L 2938 2094 
Q 2938 2591 2744 2837 
Q 2550 3084 2163 3084 
Q 1697 3084 1428 2787 
Q 1159 2491 1159 1978 
L 1159 0 
L 581 0 
L 581 3500 
L 1159 3500 
L 1159 2956 
Q 1366 3272 1645 3428 
Q 1925 3584 2291 3584 
Q 2894 3584 3203 3211 
Q 3513 2838 3513 2113 
z
" transform="scale(0.015625)"/>
     </defs>
     <use xlink:href="#DejaVuSans-41"/>
     <use xlink:href="#DejaVuSans-72" transform="translate(68.408203 0)"/>
     <use xlink:href="#DejaVuSans-63" transform="translate(107.271484 0)"/>
     <use xlink:href="#DejaVuSans-68" transform="translate(162.251953 0)"/>
     <use xlink:href="#DejaVuSans-57" transform="translate(225.630859 0)"/>
     <use xlink:href="#DejaVuSans-69" transform="translate(322.257812 0)"/>
     <use xlink:href="#DejaVuSans-6b" transform="translate(350.041016 0)"/>
     <use xlink:href="#DejaVuSans-69" transform="translate(407.951172 0)"/>
     <use xlink:href="#DejaVuSans-20" transform="translate(435.734375 0)"/>
     <use xlink:href="#DejaVuSans-61" transform="translate(467.521484 0)"/>
     <use xlink:href="#DejaVuSans-63" transform="translate(528.800781 0)"/>
     <use xlink:href="#DejaVuSans-74" transform="translate(583.78125 0)"/>
     <use xlink:href="#DejaVuSans-69" transform="translate(622.990234 0)"/>
     <use xlink:href="#DejaVuSans-76" transform="translate(650.773438 0)"/>
     <use xlink:href="#DejaVuSans-65" transform="translate(709.953125 0)"/>
     <use xlink:href="#DejaVuSans-20" transform="translate(771.476562 0)"/>
     <use xlink:href="#DejaVuSans-75" transform="translate(803.263672 0)"/>
     <use xlink:href="#DejaVuSans-73" transform="translate(866.642578 0)"/>
     <use xlink:href="#DejaVuSans-65" transform="translate(918.742188 0)"/>
     <use xlink:href="#DejaVuSans-72" transform="translate(980.265625 0)"/>
     <use xlink:href="#DejaVuSans-73" transform="translate(1021.378906 0)"/>
     <use xlink:href="#DejaVuSans-20" transform="translate(1073.478516 0)"/>
     <use xlink:href="#DejaVuSans-70" transform="translate(1105.265625 0)"/>
     <use xlink:href="#DejaVuSans-65" transform="translate(1168.742188 0)"/>
     <use xlink:href="#DejaVuSans-72" transform="translate(1230.265625 0)"/>
     <use xlink:href="#DejaVuSans-20" transform="translate(1271.378906 0)"/>
     <use xlink:href="#DejaVuSans-6d" transform="translate(1303.166016 0)"/>
     <use xlink:href="#DejaVuSans-6f" transform="translate(1400.578125 0)"/>
     <use xlink:href="#DejaVuSans-6e" transform="translate(1461.759766 0)"/>
     <use xlink:href="#DejaVuSans-74" transform="translate(1525.138672 0)"/>
     <use xlink:href="#DejaVuSans-68" transform="translate(1564.347656 0)"/>
    </g>
   </g>
  </g>
 </g>
 <defs>
  <clipPath id="pbd6e9b3979">
   <rect x="57.6" y="41.472" width="357.12" height="235.008"/>
  </clipPath>
 </defs>
</svg>
