<?xml version="1.0" encoding="utf-8" standalone="no"?>
<!DOCTYPE svg PUBLIC "-//W3C//DTD SVG 1.1//EN"
  "http://www.w3.org/Graphics/SVG/1.1/DTD/svg11.dtd">
<svg xmlns:xlink="http://www.w3.org/1999/xlink" width="460.8pt" height="345.6pt" viewBox="0 0 460.8 345.6" xmlns="http://www.w3.org/2000/svg" version="1.1">
 <metadata>
  <rdf:RDF xmlns:dc="http://purl.org/dc/elements/1.1/" xmlns:cc="http://creativecommons.org/ns#" xmlns:rdf="http://www.w3.org/1999/02/22-rdf-syntax-ns#">
   <cc:Work>
    <dc:type rdf:resource="http://purl.org/dc/dcmitype/StillImage"/>
    <dc:date>2024-01-01T08:30:18.107817</dc:date>
    <dc:format>image/svg+xml</dc:format>
    <dc:creator>
     <cc:Agent>
      <dc:title>Matplotlib v3.8.2, https://matplotlib.org/</dc:title>
     </cc:Agent>
    </dc:creator>
   </cc:Work>
  </rdf:RDF>
 </metadata>
 <defs>
  <style type="text/css">*{stroke-linejoin: round; stroke-linecap: butt}</style>
 </defs>
 <g id="figure_1">
  <g id="patch_1">
   <path d="M 0 345.6 
L 460.8 345.6 
L 460.8 0 
L 0 0 
z
" style="fill: #ffffff"/>
  </g>
  <g id="axes_1">
   <g id="patch_2">
    <path d="M 57.6 276.48 
L 414.72 276.48 
L 414.72 41.472 
L 57.6 41.472 
z
" style="fill: #ffffff"/>
   </g>
   <g id="patch_3">
    <path d="M 73.832727 276.48 
L 75.321968 276.48 
L 75.321968 243.077677 
L 73.832727 243.077677 
z
" clip-path="url(#p0d5d9b800b)" style="fill: #1f77b4"/>
   </g>
   <g id="patch_4">
    <path d="M 75.321968 276.48 
L 76.811209 276.48 
L 76.811209 266.097225 
L 75.321968 266.097225 
z
" clip-path="url(#p0d5d9b800b)" style="fill: #1f77b4"/>
   </g>
   <g id="patch_5">
    <path d="M 76.811209 276.48 
L 78.30045 276.48 
L 78.30045 269.837901 
L 76.811209 269.837901 
z
" clip-path="url(#p0d5d9b800b)" style="fill: #1f77b4"/>
   </g>
   <g id="patch_6">
    <path d="M 78.25241 276.48 
L 79.741651 276.48 
L 79.741651 267.991542 
L 78.25241 267.991542 
z
" clip-path="url(#p0d5d9b800b)" style="fill: #1f77b4"/>
   </g>
   <g id="patch_7">
    <path d="M 79.741651 276.48 
L 81.230892 276.48 
L 81.230892 260.150508 
L 79.741651 260.150508 
z
" clip-path="url(#p0d5d9b800b)" style="fill: #1f77b4"/>
   </g>
   <g id="patch_8">
    <path d="M 81.182852 276.48 
L 82.672093 276.48 
L 82.672093 256.721555 
L 81.182852 256.721555 
z
" clip-path="url(#p0d5d9b800b)" style="fill: #1f77b4"/>
   </g>
   <g id="patch_9">
    <path d="M 82.672093 276.48 
L 84.161334 276.48 
L 84.161334 269.430264 
L 82.672093 269.430264 
z
" clip-path="url(#p0d5d9b800b)" style="fill: #1f77b4"/>
   </g>
   <g id="patch_10">
    <path d="M 84.161334 276.48 
L 85.650575 276.48 
L 85.650575 269.238434 
L 84.161334 269.238434 
z
" clip-path="url(#p0d5d9b800b)" style="fill: #1f77b4"/>
   </g>
   <g id="patch_11">
    <path d="M 85.506455 276.48 
L 86.995696 276.48 
L 86.995696 254.995089 
L 85.506455 254.995089 
z
" clip-path="url(#p0d5d9b800b)" style="fill: #1f77b4"/>
   </g>
   <g id="patch_12">
    <path d="M 86.995696 276.48 
L 88.484937 276.48 
L 88.484937 245.907163 
L 86.995696 245.907163 
z
" clip-path="url(#p0d5d9b800b)" style="fill: #1f77b4"/>
   </g>
   <g id="patch_13">
    <path d="M 88.436897 276.48 
L 89.926138 276.48 
L 89.926138 261.757081 
L 88.436897 261.757081 
z
" clip-path="url(#p0d5d9b800b)" style="fill: #1f77b4"/>
   </g>
   <g id="patch_14">
    <path d="M 89.926138 276.48 
L 91.415379 276.48 
L 91.415379 268.375201 
L 89.926138 268.375201 
z
" clip-path="url(#p0d5d9b800b)" style="fill: #1f77b4"/>
   </g>
   <g id="patch_15">
    <path d="M 91.367339 276.48 
L 92.85658 276.48 
L 92.85658 268.183371 
L 91.367339 268.183371 
z
" clip-path="url(#p0d5d9b800b)" style="fill: #1f77b4"/>
   </g>
   <g id="patch_16">
    <path d="M 92.85658 276.48 
L 94.345822 276.48 
L 94.345822 269.550157 
L 92.85658 269.550157 
z
" clip-path="url(#p0d5d9b800b)" style="fill: #1f77b4"/>
   </g>
   <g id="patch_17">
    <path d="M 94.345822 276.48 
L 95.835063 276.48 
L 95.835063 268.495094 
L 94.345822 268.495094 
z
" clip-path="url(#p0d5d9b800b)" style="fill: #1f77b4"/>
   </g>
   <g id="patch_18">
    <path d="M 95.787023 276.48 
L 97.276264 276.48 
L 97.276264 263.459568 
L 95.787023 263.459568 
z
" clip-path="url(#p0d5d9b800b)" style="fill: #1f77b4"/>
   </g>
   <g id="patch_19">
    <path d="M 97.276264 276.48 
L 98.765505 276.48 
L 98.765505 243.101656 
L 97.276264 243.101656 
z
" clip-path="url(#p0d5d9b800b)" style="fill: #1f77b4"/>
   </g>
   <g id="patch_20">
    <path d="M 98.717465 276.48 
L 100.206706 276.48 
L 100.206706 266.792607 
L 98.717465 266.792607 
z
" clip-path="url(#p0d5d9b800b)" style="fill: #1f77b4"/>
   </g>
   <g id="patch_21">
    <path d="M 100.206706 276.48 
L 101.695947 276.48 
L 101.695947 256.62564 
L 100.206706 256.62564 
z
" clip-path="url(#p0d5d9b800b)" style="fill: #1f77b4"/>
   </g>
   <g id="patch_22">
    <path d="M 101.695947 276.48 
L 103.185188 276.48 
L 103.185188 265.018184 
L 101.695947 265.018184 
z
" clip-path="url(#p0d5d9b800b)" style="fill: #1f77b4"/>
   </g>
   <g id="patch_23">
    <path d="M 103.041068 276.48 
L 104.530309 276.48 
L 104.530309 256.385853 
L 103.041068 256.385853 
z
" clip-path="url(#p0d5d9b800b)" style="fill: #1f77b4"/>
   </g>
   <g id="patch_24">
    <path d="M 104.530309 276.48 
L 106.01955 276.48 
L 106.01955 254.995089 
L 104.530309 254.995089 
z
" clip-path="url(#p0d5d9b800b)" style="fill: #1f77b4"/>
   </g>
   <g id="patch_25">
    <path d="M 105.97151 276.48 
L 107.460751 276.48 
L 107.460751 252.093667 
L 105.97151 252.093667 
z
" clip-path="url(#p0d5d9b800b)" style="fill: #1f77b4"/>
   </g>
   <g id="patch_26">
    <path d="M 107.460751 276.48 
L 108.949992 276.48 
L 108.949992 255.882301 
L 107.460751 255.882301 
z
" clip-path="url(#p0d5d9b800b)" style="fill: #1f77b4"/>
   </g>
   <g id="patch_27">
    <path d="M 108.901952 276.48 
L 110.391193 276.48 
L 110.391193 257.105214 
L 108.901952 257.105214 
z
" clip-path="url(#p0d5d9b800b)" style="fill: #1f77b4"/>
   </g>
   <g id="patch_28">
    <path d="M 110.391193 276.48 
L 111.880434 276.48 
L 111.880434 259.742871 
L 110.391193 259.742871 
z
" clip-path="url(#p0d5d9b800b)" style="fill: #1f77b4"/>
   </g>
   <g id="patch_29">
    <path d="M 111.880434 276.48 
L 113.369675 276.48 
L 113.369675 243.916932 
L 111.880434 243.916932 
z
" clip-path="url(#p0d5d9b800b)" style="fill: #1f77b4"/>
   </g>
   <g id="patch_30">
    <path d="M 113.321635 276.48 
L 114.810876 276.48 
L 114.810876 251.062583 
L 113.321635 251.062583 
z
" clip-path="url(#p0d5d9b800b)" style="fill: #1f77b4"/>
   </g>
   <g id="patch_31">
    <path d="M 114.810876 276.48 
L 116.300117 276.48 
L 116.300117 249.240202 
L 114.810876 249.240202 
z
" clip-path="url(#p0d5d9b800b)" style="fill: #1f77b4"/>
   </g>
   <g id="patch_32">
    <path d="M 116.252077 276.48 
L 117.741318 276.48 
L 117.741318 248.760628 
L 116.252077 248.760628 
z
" clip-path="url(#p0d5d9b800b)" style="fill: #1f77b4"/>
   </g>
   <g id="patch_33">
    <path d="M 117.741318 276.48 
L 119.230559 276.48 
L 119.230559 237.682471 
L 117.741318 237.682471 
z
" clip-path="url(#p0d5d9b800b)" style="fill: #1f77b4"/>
   </g>
   <g id="patch_34">
    <path d="M 119.230559 276.48 
L 120.7198 276.48 
L 120.7198 248.54482 
L 119.230559 248.54482 
z
" clip-path="url(#p0d5d9b800b)" style="fill: #1f77b4"/>
   </g>
   <g id="patch_35">
    <path d="M 120.62372 276.48 
L 122.112961 276.48 
L 122.112961 245.523504 
L 120.62372 245.523504 
z
" clip-path="url(#p0d5d9b800b)" style="fill: #1f77b4"/>
   </g>
   <g id="patch_36">
    <path d="M 122.112961 276.48 
L 123.602202 276.48 
L 123.602202 257.033278 
L 122.112961 257.033278 
z
" clip-path="url(#p0d5d9b800b)" style="fill: #1f77b4"/>
   </g>
   <g id="patch_37">
    <path d="M 123.554162 276.48 
L 125.043403 276.48 
L 125.043403 240.176255 
L 123.554162 240.176255 
z
" clip-path="url(#p0d5d9b800b)" style="fill: #1f77b4"/>
   </g>
   <g id="patch_38">
    <path d="M 125.043403 276.48 
L 126.532644 276.48 
L 126.532644 241.854764 
L 125.043403 241.854764 
z
" clip-path="url(#p0d5d9b800b)" style="fill: #1f77b4"/>
   </g>
   <g id="patch_39">
    <path d="M 126.484604 276.48 
L 127.973845 276.48 
L 127.973845 229.745523 
L 126.484604 229.745523 
z
" clip-path="url(#p0d5d9b800b)" style="fill: #1f77b4"/>
   </g>
   <g id="patch_40">
    <path d="M 127.973845 276.48 
L 129.463086 276.48 
L 129.463086 242.717997 
L 127.973845 242.717997 
z
" clip-path="url(#p0d5d9b800b)" style="fill: #1f77b4"/>
   </g>
   <g id="patch_41">
    <path d="M 129.463086 276.48 
L 130.952327 276.48 
L 130.952327 237.730428 
L 129.463086 237.730428 
z
" clip-path="url(#p0d5d9b800b)" style="fill: #1f77b4"/>
   </g>
   <g id="patch_42">
    <path d="M 130.904287 276.48 
L 132.393528 276.48 
L 132.393528 237.682471 
L 130.904287 237.682471 
z
" clip-path="url(#p0d5d9b800b)" style="fill: #1f77b4"/>
   </g>
   <g id="patch_43">
    <path d="M 132.393528 276.48 
L 133.882769 276.48 
L 133.882769 239.960447 
L 132.393528 239.960447 
z
" clip-path="url(#p0d5d9b800b)" style="fill: #1f77b4"/>
   </g>
   <g id="patch_44">
    <path d="M 133.834729 276.48 
L 135.32397 276.48 
L 135.32397 233.630071 
L 133.834729 233.630071 
z
" clip-path="url(#p0d5d9b800b)" style="fill: #1f77b4"/>
   </g>
   <g id="patch_45">
    <path d="M 135.32397 276.48 
L 136.813211 276.48 
L 136.813211 218.571451 
L 135.32397 218.571451 
z
" clip-path="url(#p0d5d9b800b)" style="fill: #1f77b4"/>
   </g>
   <g id="patch_46">
    <path d="M 136.813211 276.48 
L 138.302452 276.48 
L 138.302452 198.54924 
L 136.813211 198.54924 
z
" clip-path="url(#p0d5d9b800b)" style="fill: #1f77b4"/>
   </g>
   <g id="patch_47">
    <path d="M 138.158332 276.48 
L 139.647573 276.48 
L 139.647573 222.503957 
L 138.158332 222.503957 
z
" clip-path="url(#p0d5d9b800b)" style="fill: #1f77b4"/>
   </g>
   <g id="patch_48">
    <path d="M 139.647573 276.48 
L 141.136814 276.48 
L 141.136814 240.799701 
L 139.647573 240.799701 
z
" clip-path="url(#p0d5d9b800b)" style="fill: #1f77b4"/>
   </g>
   <g id="patch_49">
    <path d="M 141.088774 276.48 
L 142.578015 276.48 
L 142.578015 240.248191 
L 141.088774 240.248191 
z
" clip-path="url(#p0d5d9b800b)" style="fill: #1f77b4"/>
   </g>
   <g id="patch_50">
    <path d="M 142.578015 276.48 
L 144.067256 276.48 
L 144.067256 243.437358 
L 142.578015 243.437358 
z
" clip-path="url(#p0d5d9b800b)" style="fill: #1f77b4"/>
   </g>
   <g id="patch_51">
    <path d="M 144.019216 276.48 
L 145.508457 276.48 
L 145.508457 241.878743 
L 144.019216 241.878743 
z
" clip-path="url(#p0d5d9b800b)" style="fill: #1f77b4"/>
   </g>
   <g id="patch_52">
    <path d="M 145.508457 276.48 
L 146.997698 276.48 
L 146.997698 241.279275 
L 145.508457 241.279275 
z
" clip-path="url(#p0d5d9b800b)" style="fill: #1f77b4"/>
   </g>
   <g id="patch_53">
    <path d="M 146.997698 276.48 
L 148.486939 276.48 
L 148.486939 240.751744 
L 146.997698 240.751744 
z
" clip-path="url(#p0d5d9b800b)" style="fill: #1f77b4"/>
   </g>
   <g id="patch_54">
    <path d="M 148.438899 276.48 
L 149.92814 276.48 
L 149.92814 187.638934 
L 148.438899 187.638934 
z
" clip-path="url(#p0d5d9b800b)" style="fill: #1f77b4"/>
   </g>
   <g id="patch_55">
    <path d="M 149.92814 276.48 
L 151.417381 276.48 
L 151.417381 185.840531 
L 149.92814 185.840531 
z
" clip-path="url(#p0d5d9b800b)" style="fill: #1f77b4"/>
   </g>
   <g id="patch_56">
    <path d="M 151.369341 276.48 
L 152.858582 276.48 
L 152.858582 196.870731 
L 151.369341 196.870731 
z
" clip-path="url(#p0d5d9b800b)" style="fill: #1f77b4"/>
   </g>
   <g id="patch_57">
    <path d="M 152.858582 276.48 
L 154.347823 276.48 
L 154.347823 182.579429 
L 152.858582 182.579429 
z
" clip-path="url(#p0d5d9b800b)" style="fill: #1f77b4"/>
   </g>
   <g id="patch_58">
    <path d="M 154.347823 276.48 
L 155.837064 276.48 
L 155.837064 199.963983 
L 154.347823 199.963983 
z
" clip-path="url(#p0d5d9b800b)" style="fill: #1f77b4"/>
   </g>
   <g id="patch_59">
    <path d="M 155.692944 276.48 
L 157.182185 276.48 
L 157.182185 213.751733 
L 155.692944 213.751733 
z
" clip-path="url(#p0d5d9b800b)" style="fill: #1f77b4"/>
   </g>
   <g id="patch_60">
    <path d="M 157.182185 276.48 
L 158.671426 276.48 
L 158.671426 204.783701 
L 157.182185 204.783701 
z
" clip-path="url(#p0d5d9b800b)" style="fill: #1f77b4"/>
   </g>
   <g id="patch_61">
    <path d="M 158.623386 276.48 
L 160.112627 276.48 
L 160.112627 221.233086 
L 158.623386 221.233086 
z
" clip-path="url(#p0d5d9b800b)" style="fill: #1f77b4"/>
   </g>
   <g id="patch_62">
    <path d="M 160.112627 276.48 
L 161.601868 276.48 
L 161.601868 227.683355 
L 160.112627 227.683355 
z
" clip-path="url(#p0d5d9b800b)" style="fill: #1f77b4"/>
   </g>
   <g id="patch_63">
    <path d="M 161.553828 276.48 
L 163.043069 276.48 
L 163.043069 220.729533 
L 161.553828 220.729533 
z
" clip-path="url(#p0d5d9b800b)" style="fill: #1f77b4"/>
   </g>
   <g id="patch_64">
    <path d="M 163.043069 276.48 
L 164.53231 276.48 
L 164.53231 215.622071 
L 163.043069 215.622071 
z
" clip-path="url(#p0d5d9b800b)" style="fill: #1f77b4"/>
   </g>
   <g id="patch_65">
    <path d="M 164.53231 276.48 
L 166.021551 276.48 
L 166.021551 230.057246 
L 164.53231 230.057246 
z
" clip-path="url(#p0d5d9b800b)" style="fill: #1f77b4"/>
   </g>
   <g id="patch_66">
    <path d="M 165.973511 276.48 
L 167.462752 276.48 
L 167.462752 233.414263 
L 165.973511 233.414263 
z
" clip-path="url(#p0d5d9b800b)" style="fill: #1f77b4"/>
   </g>
   <g id="patch_67">
    <path d="M 167.462752 276.48 
L 168.951993 276.48 
L 168.951993 219.530598 
L 167.462752 219.530598 
z
" clip-path="url(#p0d5d9b800b)" style="fill: #1f77b4"/>
   </g>
   <g id="patch_68">
    <path d="M 168.903953 276.48 
L 170.393194 276.48 
L 170.393194 202.122066 
L 168.903953 202.122066 
z
" clip-path="url(#p0d5d9b800b)" style="fill: #1f77b4"/>
   </g>
   <g id="patch_69">
    <path d="M 170.393194 276.48 
L 171.882435 276.48 
L 171.882435 209.723312 
L 170.393194 209.723312 
z
" clip-path="url(#p0d5d9b800b)" style="fill: #1f77b4"/>
   </g>
   <g id="patch_70">
    <path d="M 171.882435 276.48 
L 173.371676 276.48 
L 173.371676 213.919584 
L 171.882435 213.919584 
z
" clip-path="url(#p0d5d9b800b)" style="fill: #1f77b4"/>
   </g>
   <g id="patch_71">
    <path d="M 173.227556 276.48 
L 174.716797 276.48 
L 174.716797 209.627397 
L 173.227556 209.627397 
z
" clip-path="url(#p0d5d9b800b)" style="fill: #1f77b4"/>
   </g>
   <g id="patch_72">
    <path d="M 174.716797 276.48 
L 176.206038 276.48 
L 176.206038 199.796132 
L 174.716797 199.796132 
z
" clip-path="url(#p0d5d9b800b)" style="fill: #1f77b4"/>
   </g>
   <g id="patch_73">
    <path d="M 176.157998 276.48 
L 177.647239 276.48 
L 177.647239 184.713533 
L 176.157998 184.713533 
z
" clip-path="url(#p0d5d9b800b)" style="fill: #1f77b4"/>
   </g>
   <g id="patch_74">
    <path d="M 177.647239 276.48 
L 179.13648 276.48 
L 179.13648 179.174454 
L 177.647239 179.174454 
z
" clip-path="url(#p0d5d9b800b)" style="fill: #1f77b4"/>
   </g>
   <g id="patch_75">
    <path d="M 179.08844 276.48 
L 180.577681 276.48 
L 180.577681 220.297917 
L 179.08844 220.297917 
z
" clip-path="url(#p0d5d9b800b)" style="fill: #1f77b4"/>
   </g>
   <g id="patch_76">
    <path d="M 180.577681 276.48 
L 182.066922 276.48 
L 182.066922 181.812111 
L 180.577681 181.812111 
z
" clip-path="url(#p0d5d9b800b)" style="fill: #1f77b4"/>
   </g>
   <g id="patch_77">
    <path d="M 182.066922 276.48 
L 183.556163 276.48 
L 183.556163 118.628248 
L 182.066922 118.628248 
z
" clip-path="url(#p0d5d9b800b)" style="fill: #1f77b4"/>
   </g>
   <g id="patch_78">
    <path d="M 183.508123 276.48 
L 184.997364 276.48 
L 184.997364 165.578534 
L 183.508123 165.578534 
z
" clip-path="url(#p0d5d9b800b)" style="fill: #1f77b4"/>
   </g>
   <g id="patch_79">
    <path d="M 184.997364 276.48 
L 186.486606 276.48 
L 186.486606 198.165581 
L 184.997364 198.165581 
z
" clip-path="url(#p0d5d9b800b)" style="fill: #1f77b4"/>
   </g>
   <g id="patch_80">
    <path d="M 186.438565 276.48 
L 187.927807 276.48 
L 187.927807 173.011929 
L 186.438565 173.011929 
z
" clip-path="url(#p0d5d9b800b)" style="fill: #1f77b4"/>
   </g>
   <g id="patch_81">
    <path d="M 187.927807 276.48 
L 189.417048 276.48 
L 189.417048 162.245495 
L 187.927807 162.245495 
z
" clip-path="url(#p0d5d9b800b)" style="fill: #1f77b4"/>
   </g>
   <g id="patch_82">
    <path d="M 189.417048 276.48 
L 190.906289 276.48 
L 190.906289 153.972845 
L 189.417048 153.972845 
z
" clip-path="url(#p0d5d9b800b)" style="fill: #1f77b4"/>
   </g>
   <g id="patch_83">
    <path d="M 190.810209 276.48 
L 192.29945 276.48 
L 192.29945 164.331642 
L 190.810209 164.331642 
z
" clip-path="url(#p0d5d9b800b)" style="fill: #1f77b4"/>
   </g>
   <g id="patch_84">
    <path d="M 192.29945 276.48 
L 193.788691 276.48 
L 193.788691 126.900898 
L 192.29945 126.900898 
z
" clip-path="url(#p0d5d9b800b)" style="fill: #1f77b4"/>
   </g>
   <g id="patch_85">
    <path d="M 193.740651 276.48 
L 195.229892 276.48 
L 195.229892 197.877836 
L 193.740651 197.877836 
z
" clip-path="url(#p0d5d9b800b)" style="fill: #1f77b4"/>
   </g>
   <g id="patch_86">
    <path d="M 195.229892 276.48 
L 196.719133 276.48 
L 196.719133 103.569627 
L 195.229892 103.569627 
z
" clip-path="url(#p0d5d9b800b)" style="fill: #1f77b4"/>
   </g>
   <g id="patch_87">
    <path d="M 196.671093 276.48 
L 198.160334 276.48 
L 198.160334 179.078539 
L 196.671093 179.078539 
z
" clip-path="url(#p0d5d9b800b)" style="fill: #1f77b4"/>
   </g>
   <g id="patch_88">
    <path d="M 198.160334 276.48 
L 199.649575 276.48 
L 199.649575 160.471072 
L 198.160334 160.471072 
z
" clip-path="url(#p0d5d9b800b)" style="fill: #1f77b4"/>
   </g>
   <g id="patch_89">
    <path d="M 199.649575 276.48 
L 201.138816 276.48 
L 201.138816 150.687764 
L 199.649575 150.687764 
z
" clip-path="url(#p0d5d9b800b)" style="fill: #1f77b4"/>
   </g>
   <g id="patch_90">
    <path d="M 201.090776 276.48 
L 202.580017 276.48 
L 202.580017 128.411556 
L 201.090776 128.411556 
z
" clip-path="url(#p0d5d9b800b)" style="fill: #1f77b4"/>
   </g>
   <g id="patch_91">
    <path d="M 202.580017 276.48 
L 204.069258 276.48 
L 204.069258 169.558997 
L 202.580017 169.558997 
z
" clip-path="url(#p0d5d9b800b)" style="fill: #1f77b4"/>
   </g>
   <g id="patch_92">
    <path d="M 204.021218 276.48 
L 205.510459 276.48 
L 205.510459 164.595407 
L 204.021218 164.595407 
z
" clip-path="url(#p0d5d9b800b)" style="fill: #1f77b4"/>
   </g>
   <g id="patch_93">
    <path d="M 205.510459 276.48 
L 206.9997 276.48 
L 206.9997 198.093645 
L 205.510459 198.093645 
z
" clip-path="url(#p0d5d9b800b)" style="fill: #1f77b4"/>
   </g>
   <g id="patch_94">
    <path d="M 206.9997 276.48 
L 208.488941 276.48 
L 208.488941 206.941783 
L 206.9997 206.941783 
z
" clip-path="url(#p0d5d9b800b)" style="fill: #1f77b4"/>
   </g>
   <g id="patch_95">
    <path d="M 208.344821 276.48 
L 209.834062 276.48 
L 209.834062 189.005719 
L 208.344821 189.005719 
z
" clip-path="url(#p0d5d9b800b)" style="fill: #1f77b4"/>
   </g>
   <g id="patch_96">
    <path d="M 209.834062 276.48 
L 211.323303 276.48 
L 211.323303 199.796132 
L 209.834062 199.796132 
z
" clip-path="url(#p0d5d9b800b)" style="fill: #1f77b4"/>
   </g>
   <g id="patch_97">
    <path d="M 211.275263 276.48 
L 212.764504 276.48 
L 212.764504 179.582092 
L 211.275263 179.582092 
z
" clip-path="url(#p0d5d9b800b)" style="fill: #1f77b4"/>
   </g>
   <g id="patch_98">
    <path d="M 212.764504 276.48 
L 214.253745 276.48 
L 214.253745 167.328979 
L 212.764504 167.328979 
z
" clip-path="url(#p0d5d9b800b)" style="fill: #1f77b4"/>
   </g>
   <g id="patch_99">
    <path d="M 214.205705 276.48 
L 215.694946 276.48 
L 215.694946 176.320989 
L 214.205705 176.320989 
z
" clip-path="url(#p0d5d9b800b)" style="fill: #1f77b4"/>
   </g>
   <g id="patch_100">
    <path d="M 215.694946 276.48 
L 217.184187 276.48 
L 217.184187 177.59186 
L 215.694946 177.59186 
z
" clip-path="url(#p0d5d9b800b)" style="fill: #1f77b4"/>
   </g>
   <g id="patch_101">
    <path d="M 217.184187 276.48 
L 218.673428 276.48 
L 218.673428 189.581208 
L 217.184187 189.581208 
z
" clip-path="url(#p0d5d9b800b)" style="fill: #1f77b4"/>
   </g>
   <g id="patch_102">
    <path d="M 218.625388 276.48 
L 220.114629 276.48 
L 220.114629 195.24018 
L 218.625388 195.24018 
z
" clip-path="url(#p0d5d9b800b)" style="fill: #1f77b4"/>
   </g>
   <g id="patch_103">
    <path d="M 220.114629 276.48 
L 221.60387 276.48 
L 221.60387 168.072318 
L 220.114629 168.072318 
z
" clip-path="url(#p0d5d9b800b)" style="fill: #1f77b4"/>
   </g>
   <g id="patch_104">
    <path d="M 221.55583 276.48 
L 223.045071 276.48 
L 223.045071 155.003929 
L 221.55583 155.003929 
z
" clip-path="url(#p0d5d9b800b)" style="fill: #1f77b4"/>
   </g>
   <g id="patch_105">
    <path d="M 223.045071 276.48 
L 224.534312 276.48 
L 224.534312 182.675344 
L 223.045071 182.675344 
z
" clip-path="url(#p0d5d9b800b)" style="fill: #1f77b4"/>
   </g>
   <g id="patch_106">
    <path d="M 224.534312 276.48 
L 226.023553 276.48 
L 226.023553 107.765899 
L 224.534312 107.765899 
z
" clip-path="url(#p0d5d9b800b)" style="fill: #1f77b4"/>
   </g>
   <g id="patch_107">
    <path d="M 225.879433 276.48 
L 227.368674 276.48 
L 227.368674 156.442651 
L 225.879433 156.442651 
z
" clip-path="url(#p0d5d9b800b)" style="fill: #1f77b4"/>
   </g>
   <g id="patch_108">
    <path d="M 227.368674 276.48 
L 228.857915 276.48 
L 228.857915 164.427556 
L 227.368674 164.427556 
z
" clip-path="url(#p0d5d9b800b)" style="fill: #1f77b4"/>
   </g>
   <g id="patch_109">
    <path d="M 228.809875 276.48 
L 230.299116 276.48 
L 230.299116 167.400915 
L 228.809875 167.400915 
z
" clip-path="url(#p0d5d9b800b)" style="fill: #1f77b4"/>
   </g>
   <g id="patch_110">
    <path d="M 230.299116 276.48 
L 231.788357 276.48 
L 231.788357 158.67267 
L 230.299116 158.67267 
z
" clip-path="url(#p0d5d9b800b)" style="fill: #1f77b4"/>
   </g>
   <g id="patch_111">
    <path d="M 231.740317 276.48 
L 233.229558 276.48 
L 233.229558 153.661122 
L 231.740317 153.661122 
z
" clip-path="url(#p0d5d9b800b)" style="fill: #1f77b4"/>
   </g>
   <g id="patch_112">
    <path d="M 233.229558 276.48 
L 234.718799 276.48 
L 234.718799 148.793447 
L 233.229558 148.793447 
z
" clip-path="url(#p0d5d9b800b)" style="fill: #1f77b4"/>
   </g>
   <g id="patch_113">
    <path d="M 234.718799 276.48 
L 236.20804 276.48 
L 236.20804 163.708196 
L 234.718799 163.708196 
z
" clip-path="url(#p0d5d9b800b)" style="fill: #1f77b4"/>
   </g>
   <g id="patch_114">
    <path d="M 236.16 276.48 
L 237.649241 276.48 
L 237.649241 175.265927 
L 236.16 175.265927 
z
" clip-path="url(#p0d5d9b800b)" style="fill: #1f77b4"/>
   </g>
   <g id="patch_115">
    <path d="M 237.649241 276.48 
L 239.138482 276.48 
L 239.138482 164.691322 
L 237.649241 164.691322 
z
" clip-path="url(#p0d5d9b800b)" style="fill: #1f77b4"/>
   </g>
   <g id="patch_116">
    <path d="M 239.090442 276.48 
L 240.579683 276.48 
L 240.579683 107.550091 
L 239.090442 107.550091 
z
" clip-path="url(#p0d5d9b800b)" style="fill: #1f77b4"/>
   </g>
   <g id="patch_117">
    <path d="M 240.579683 276.48 
L 242.068924 276.48 
L 242.068924 179.821879 
L 240.579683 179.821879 
z
" clip-path="url(#p0d5d9b800b)" style="fill: #1f77b4"/>
   </g>
   <g id="patch_118">
    <path d="M 242.068924 276.48 
L 243.558165 276.48 
L 243.558165 179.390262 
L 242.068924 179.390262 
z
" clip-path="url(#p0d5d9b800b)" style="fill: #1f77b4"/>
   </g>
   <g id="patch_119">
    <path d="M 243.414045 276.48 
L 244.903286 276.48 
L 244.903286 159.320094 
L 243.414045 159.320094 
z
" clip-path="url(#p0d5d9b800b)" style="fill: #1f77b4"/>
   </g>
   <g id="patch_120">
    <path d="M 244.903286 276.48 
L 246.392527 276.48 
L 246.392527 185.768595 
L 244.903286 185.768595 
z
" clip-path="url(#p0d5d9b800b)" style="fill: #1f77b4"/>
   </g>
   <g id="patch_121">
    <path d="M 246.344487 276.48 
L 247.833728 276.48 
L 247.833728 166.609618 
L 246.344487 166.609618 
z
" clip-path="url(#p0d5d9b800b)" style="fill: #1f77b4"/>
   </g>
   <g id="patch_122">
    <path d="M 247.833728 276.48 
L 249.322969 276.48 
L 249.322969 186.320105 
L 247.833728 186.320105 
z
" clip-path="url(#p0d5d9b800b)" style="fill: #1f77b4"/>
   </g>
   <g id="patch_123">
    <path d="M 249.274929 276.48 
L 250.76417 276.48 
L 250.76417 86.06518 
L 249.274929 86.06518 
z
" clip-path="url(#p0d5d9b800b)" style="fill: #1f77b4"/>
   </g>
   <g id="patch_124">
    <path d="M 250.76417 276.48 
L 252.253411 276.48 
L 252.253411 106.231263 
L 250.76417 106.231263 
z
" clip-path="url(#p0d5d9b800b)" style="fill: #1f77b4"/>
   </g>
   <g id="patch_125">
    <path d="M 252.253411 276.48 
L 253.742652 276.48 
L 253.742652 146.275684 
L 252.253411 146.275684 
z
" clip-path="url(#p0d5d9b800b)" style="fill: #1f77b4"/>
   </g>
   <g id="patch_126">
    <path d="M 253.694612 276.48 
L 255.183853 276.48 
L 255.183853 150.903572 
L 253.694612 150.903572 
z
" clip-path="url(#p0d5d9b800b)" style="fill: #1f77b4"/>
   </g>
   <g id="patch_127">
    <path d="M 255.183853 276.48 
L 256.673094 276.48 
L 256.673094 208.692228 
L 255.183853 208.692228 
z
" clip-path="url(#p0d5d9b800b)" style="fill: #1f77b4"/>
   </g>
   <g id="patch_128">
    <path d="M 256.625054 276.48 
L 258.114295 276.48 
L 258.114295 198.285474 
L 256.625054 198.285474 
z
" clip-path="url(#p0d5d9b800b)" style="fill: #1f77b4"/>
   </g>
   <g id="patch_129">
    <path d="M 258.114295 276.48 
L 259.603536 276.48 
L 259.603536 192.67446 
L 258.114295 192.67446 
z
" clip-path="url(#p0d5d9b800b)" style="fill: #1f77b4"/>
   </g>
   <g id="patch_130">
    <path d="M 259.603536 276.48 
L 261.092777 276.48 
L 261.092777 161.7899 
L 259.603536 161.7899 
z
" clip-path="url(#p0d5d9b800b)" style="fill: #1f77b4"/>
   </g>
   <g id="patch_131">
    <path d="M 260.996697 276.48 
L 262.485938 276.48 
L 262.485938 150.56787 
L 260.996697 150.56787 
z
" clip-path="url(#p0d5d9b800b)" style="fill: #1f77b4"/>
   </g>
   <g id="patch_132">
    <path d="M 262.485938 276.48 
L 263.975179 276.48 
L 263.975179 169.415125 
L 262.485938 169.415125 
z
" clip-path="url(#p0d5d9b800b)" style="fill: #1f77b4"/>
   </g>
   <g id="patch_133">
    <path d="M 263.927139 276.48 
L 265.41638 276.48 
L 265.41638 198.429346 
L 263.927139 198.429346 
z
" clip-path="url(#p0d5d9b800b)" style="fill: #1f77b4"/>
   </g>
   <g id="patch_134">
    <path d="M 265.41638 276.48 
L 266.905621 276.48 
L 266.905621 214.734859 
L 265.41638 214.734859 
z
" clip-path="url(#p0d5d9b800b)" style="fill: #1f77b4"/>
   </g>
   <g id="patch_135">
    <path d="M 266.857581 276.48 
L 268.346822 276.48 
L 268.346822 171.741058 
L 266.857581 171.741058 
z
" clip-path="url(#p0d5d9b800b)" style="fill: #1f77b4"/>
   </g>
   <g id="patch_136">
    <path d="M 268.346822 276.48 
L 269.836063 276.48 
L 269.836063 160.830752 
L 268.346822 160.830752 
z
" clip-path="url(#p0d5d9b800b)" style="fill: #1f77b4"/>
   </g>
   <g id="patch_137">
    <path d="M 269.836063 276.48 
L 271.325304 276.48 
L 271.325304 189.797016 
L 269.836063 189.797016 
z
" clip-path="url(#p0d5d9b800b)" style="fill: #1f77b4"/>
   </g>
   <g id="patch_138">
    <path d="M 271.277264 276.48 
L 272.766505 276.48 
L 272.766505 203.752617 
L 271.277264 203.752617 
z
" clip-path="url(#p0d5d9b800b)" style="fill: #1f77b4"/>
   </g>
   <g id="patch_139">
    <path d="M 272.766505 276.48 
L 274.255746 276.48 
L 274.255746 218.691344 
L 272.766505 218.691344 
z
" clip-path="url(#p0d5d9b800b)" style="fill: #1f77b4"/>
   </g>
   <g id="patch_140">
    <path d="M 274.207706 276.48 
L 275.696947 276.48 
L 275.696947 208.428462 
L 274.207706 208.428462 
z
" clip-path="url(#p0d5d9b800b)" style="fill: #1f77b4"/>
   </g>
   <g id="patch_141">
    <path d="M 275.696947 276.48 
L 277.186188 276.48 
L 277.186188 135.461292 
L 275.696947 135.461292 
z
" clip-path="url(#p0d5d9b800b)" style="fill: #1f77b4"/>
   </g>
   <g id="patch_142">
    <path d="M 277.186188 276.48 
L 278.67543 276.48 
L 278.67543 228.162929 
L 277.186188 228.162929 
z
" clip-path="url(#p0d5d9b800b)" style="fill: #1f77b4"/>
   </g>
   <g id="patch_143">
    <path d="M 278.531309 276.48 
L 280.02055 276.48 
L 280.02055 199.724196 
L 278.531309 199.724196 
z
" clip-path="url(#p0d5d9b800b)" style="fill: #1f77b4"/>
   </g>
   <g id="patch_144">
    <path d="M 280.02055 276.48 
L 281.509791 276.48 
L 281.509791 208.932015 
L 280.02055 208.932015 
z
" clip-path="url(#p0d5d9b800b)" style="fill: #1f77b4"/>
   </g>
   <g id="patch_145">
    <path d="M 281.461751 276.48 
L 282.950992 276.48 
L 282.950992 198.645155 
L 281.461751 198.645155 
z
" clip-path="url(#p0d5d9b800b)" style="fill: #1f77b4"/>
   </g>
   <g id="patch_146">
    <path d="M 282.950992 276.48 
L 284.440234 276.48 
L 284.440234 231.016394 
L 282.950992 231.016394 
z
" clip-path="url(#p0d5d9b800b)" style="fill: #1f77b4"/>
   </g>
   <g id="patch_147">
    <path d="M 284.392193 276.48 
L 285.881435 276.48 
L 285.881435 213.583882 
L 284.392193 213.583882 
z
" clip-path="url(#p0d5d9b800b)" style="fill: #1f77b4"/>
   </g>
   <g id="patch_148">
    <path d="M 285.881435 276.48 
L 287.370676 276.48 
L 287.370676 162.557218 
L 285.881435 162.557218 
z
" clip-path="url(#p0d5d9b800b)" style="fill: #1f77b4"/>
   </g>
   <g id="patch_149">
    <path d="M 287.370676 276.48 
L 288.859917 276.48 
L 288.859917 187.375168 
L 287.370676 187.375168 
z
" clip-path="url(#p0d5d9b800b)" style="fill: #1f77b4"/>
   </g>
   <g id="patch_150">
    <path d="M 288.811877 276.48 
L 290.301118 276.48 
L 290.301118 214.830774 
L 288.811877 214.830774 
z
" clip-path="url(#p0d5d9b800b)" style="fill: #1f77b4"/>
   </g>
   <g id="patch_151">
    <path d="M 290.301118 276.48 
L 291.790359 276.48 
L 291.790359 144.33341 
L 290.301118 144.33341 
z
" clip-path="url(#p0d5d9b800b)" style="fill: #1f77b4"/>
   </g>
   <g id="patch_152">
    <path d="M 291.742319 276.48 
L 293.23156 276.48 
L 293.23156 152.41423 
L 291.742319 152.41423 
z
" clip-path="url(#p0d5d9b800b)" style="fill: #1f77b4"/>
   </g>
   <g id="patch_153">
    <path d="M 293.23156 276.48 
L 294.720801 276.48 
L 294.720801 192.938225 
L 293.23156 192.938225 
z
" clip-path="url(#p0d5d9b800b)" style="fill: #1f77b4"/>
   </g>
   <g id="patch_154">
    <path d="M 294.720801 276.48 
L 296.210042 276.48 
L 296.210042 200.947109 
L 294.720801 200.947109 
z
" clip-path="url(#p0d5d9b800b)" style="fill: #1f77b4"/>
   </g>
   <g id="patch_155">
    <path d="M 296.065922 276.48 
L 297.555163 276.48 
L 297.555163 201.546577 
L 296.065922 201.546577 
z
" clip-path="url(#p0d5d9b800b)" style="fill: #1f77b4"/>
   </g>
   <g id="patch_156">
    <path d="M 297.555163 276.48 
L 299.044404 276.48 
L 299.044404 180.109623 
L 297.555163 180.109623 
z
" clip-path="url(#p0d5d9b800b)" style="fill: #1f77b4"/>
   </g>
   <g id="patch_157">
    <path d="M 298.996364 276.48 
L 300.485605 276.48 
L 300.485605 167.376936 
L 298.996364 167.376936 
z
" clip-path="url(#p0d5d9b800b)" style="fill: #1f77b4"/>
   </g>
   <g id="patch_158">
    <path d="M 300.485605 276.48 
L 301.974846 276.48 
L 301.974846 179.102518 
L 300.485605 179.102518 
z
" clip-path="url(#p0d5d9b800b)" style="fill: #1f77b4"/>
   </g>
   <g id="patch_159">
    <path d="M 301.926806 276.48 
L 303.416047 276.48 
L 303.416047 192.866289 
L 301.926806 192.866289 
z
" clip-path="url(#p0d5d9b800b)" style="fill: #1f77b4"/>
   </g>
   <g id="patch_160">
    <path d="M 303.416047 276.48 
L 304.905288 276.48 
L 304.905288 109.108706 
L 303.416047 109.108706 
z
" clip-path="url(#p0d5d9b800b)" style="fill: #1f77b4"/>
   </g>
   <g id="patch_161">
    <path d="M 304.905288 276.48 
L 306.394529 276.48 
L 306.394529 130.377809 
L 304.905288 130.377809 
z
" clip-path="url(#p0d5d9b800b)" style="fill: #1f77b4"/>
   </g>
   <g id="patch_162">
    <path d="M 306.346489 276.48 
L 307.83573 276.48 
L 307.83573 116.685974 
L 306.346489 116.685974 
z
" clip-path="url(#p0d5d9b800b)" style="fill: #1f77b4"/>
   </g>
   <g id="patch_163">
    <path d="M 307.83573 276.48 
L 309.324971 276.48 
L 309.324971 144.069644 
L 307.83573 144.069644 
z
" clip-path="url(#p0d5d9b800b)" style="fill: #1f77b4"/>
   </g>
   <g id="patch_164">
    <path d="M 309.276931 276.48 
L 310.766172 276.48 
L 310.766172 199.244622 
L 309.276931 199.244622 
z
" clip-path="url(#p0d5d9b800b)" style="fill: #1f77b4"/>
   </g>
   <g id="patch_165">
    <path d="M 310.766172 276.48 
L 312.255413 276.48 
L 312.255413 176.177117 
L 310.766172 176.177117 
z
" clip-path="url(#p0d5d9b800b)" style="fill: #1f77b4"/>
   </g>
   <g id="patch_166">
    <path d="M 312.255413 276.48 
L 313.744654 276.48 
L 313.744654 226.028825 
L 312.255413 226.028825 
z
" clip-path="url(#p0d5d9b800b)" style="fill: #1f77b4"/>
   </g>
   <g id="patch_167">
    <path d="M 313.600534 276.48 
L 315.089775 276.48 
L 315.089775 211.665586 
L 313.600534 211.665586 
z
" clip-path="url(#p0d5d9b800b)" style="fill: #1f77b4"/>
   </g>
   <g id="patch_168">
    <path d="M 315.089775 276.48 
L 316.579016 276.48 
L 316.579016 230.177139 
L 315.089775 230.177139 
z
" clip-path="url(#p0d5d9b800b)" style="fill: #1f77b4"/>
   </g>
   <g id="patch_169">
    <path d="M 316.530976 276.48 
L 318.020217 276.48 
L 318.020217 226.364527 
L 316.530976 226.364527 
z
" clip-path="url(#p0d5d9b800b)" style="fill: #1f77b4"/>
   </g>
   <g id="patch_170">
    <path d="M 318.020217 276.48 
L 319.509458 276.48 
L 319.509458 221.952447 
L 318.020217 221.952447 
z
" clip-path="url(#p0d5d9b800b)" style="fill: #1f77b4"/>
   </g>
   <g id="patch_171">
    <path d="M 319.461418 276.48 
L 320.950659 276.48 
L 320.950659 232.91071 
L 319.461418 232.91071 
z
" clip-path="url(#p0d5d9b800b)" style="fill: #1f77b4"/>
   </g>
   <g id="patch_172">
    <path d="M 320.950659 276.48 
L 322.4399 276.48 
L 322.4399 209.93912 
L 320.950659 209.93912 
z
" clip-path="url(#p0d5d9b800b)" style="fill: #1f77b4"/>
   </g>
   <g id="patch_173">
    <path d="M 322.4399 276.48 
L 323.929141 276.48 
L 323.929141 209.843205 
L 322.4399 209.843205 
z
" clip-path="url(#p0d5d9b800b)" style="fill: #1f77b4"/>
   </g>
   <g id="patch_174">
    <path d="M 323.881101 276.48 
L 325.370342 276.48 
L 325.370342 196.798795 
L 323.881101 196.798795 
z
" clip-path="url(#p0d5d9b800b)" style="fill: #1f77b4"/>
   </g>
   <g id="patch_175">
    <path d="M 325.370342 276.48 
L 326.859583 276.48 
L 326.859583 203.920468 
L 325.370342 203.920468 
z
" clip-path="url(#p0d5d9b800b)" style="fill: #1f77b4"/>
   </g>
   <g id="patch_176">
    <path d="M 326.811543 276.48 
L 328.300784 276.48 
L 328.300784 205.215317 
L 326.811543 205.215317 
z
" clip-path="url(#p0d5d9b800b)" style="fill: #1f77b4"/>
   </g>
   <g id="patch_177">
    <path d="M 328.300784 276.48 
L 329.790025 276.48 
L 329.790025 207.709102 
L 328.300784 207.709102 
z
" clip-path="url(#p0d5d9b800b)" style="fill: #1f77b4"/>
   </g>
   <g id="patch_178">
    <path d="M 329.790025 276.48 
L 331.279266 276.48 
L 331.279266 202.289916 
L 329.790025 202.289916 
z
" clip-path="url(#p0d5d9b800b)" style="fill: #1f77b4"/>
   </g>
   <g id="patch_179">
    <path d="M 331.183186 276.48 
L 332.672427 276.48 
L 332.672427 186.128276 
L 331.183186 186.128276 
z
" clip-path="url(#p0d5d9b800b)" style="fill: #1f77b4"/>
   </g>
   <g id="patch_180">
    <path d="M 332.672427 276.48 
L 334.161668 276.48 
L 334.161668 145.868046 
L 332.672427 145.868046 
z
" clip-path="url(#p0d5d9b800b)" style="fill: #1f77b4"/>
   </g>
   <g id="patch_181">
    <path d="M 334.113628 276.48 
L 335.602869 276.48 
L 335.602869 84.098927 
L 334.113628 84.098927 
z
" clip-path="url(#p0d5d9b800b)" style="fill: #1f77b4"/>
   </g>
   <g id="patch_182">
    <path d="M 335.602869 276.48 
L 337.09211 276.48 
L 337.09211 143.158454 
L 335.602869 143.158454 
z
" clip-path="url(#p0d5d9b800b)" style="fill: #1f77b4"/>
   </g>
   <g id="patch_183">
    <path d="M 337.04407 276.48 
L 338.533311 276.48 
L 338.533311 169.966635 
L 337.04407 169.966635 
z
" clip-path="url(#p0d5d9b800b)" style="fill: #1f77b4"/>
   </g>
   <g id="patch_184">
    <path d="M 338.533311 276.48 
L 340.022552 276.48 
L 340.022552 126.301431 
L 338.533311 126.301431 
z
" clip-path="url(#p0d5d9b800b)" style="fill: #1f77b4"/>
   </g>
   <g id="patch_185">
    <path d="M 340.022552 276.48 
L 341.511793 276.48 
L 341.511793 207.709102 
L 340.022552 207.709102 
z
" clip-path="url(#p0d5d9b800b)" style="fill: #1f77b4"/>
   </g>
   <g id="patch_186">
    <path d="M 341.463753 276.48 
L 342.952994 276.48 
L 342.952994 200.611408 
L 341.463753 200.611408 
z
" clip-path="url(#p0d5d9b800b)" style="fill: #1f77b4"/>
   </g>
   <g id="patch_187">
    <path d="M 342.952994 276.48 
L 344.442235 276.48 
L 344.442235 212.912478 
L 342.952994 212.912478 
z
" clip-path="url(#p0d5d9b800b)" style="fill: #1f77b4"/>
   </g>
   <g id="patch_188">
    <path d="M 344.394195 276.48 
L 345.883436 276.48 
L 345.883436 161.478177 
L 344.394195 161.478177 
z
" clip-path="url(#p0d5d9b800b)" style="fill: #1f77b4"/>
   </g>
   <g id="patch_189">
    <path d="M 345.883436 276.48 
L 347.372677 276.48 
L 347.372677 214.279264 
L 345.883436 214.279264 
z
" clip-path="url(#p0d5d9b800b)" style="fill: #1f77b4"/>
   </g>
   <g id="patch_190">
    <path d="M 347.372677 276.48 
L 348.861918 276.48 
L 348.861918 197.44622 
L 347.372677 197.44622 
z
" clip-path="url(#p0d5d9b800b)" style="fill: #1f77b4"/>
   </g>
   <g id="patch_191">
    <path d="M 348.717798 276.48 
L 350.207039 276.48 
L 350.207039 196.70288 
L 348.717798 196.70288 
z
" clip-path="url(#p0d5d9b800b)" style="fill: #1f77b4"/>
   </g>
   <g id="patch_192">
    <path d="M 350.207039 276.48 
L 351.69628 276.48 
L 351.69628 71.677963 
L 350.207039 71.677963 
z
" clip-path="url(#p0d5d9b800b)" style="fill: #1f77b4"/>
   </g>
   <g id="patch_193">
    <path d="M 351.64824 276.48 
L 353.137481 276.48 
L 353.137481 64.844034 
L 351.64824 64.844034 
z
" clip-path="url(#p0d5d9b800b)" style="fill: #1f77b4"/>
   </g>
   <g id="patch_194">
    <path d="M 353.137481 276.48 
L 354.626722 276.48 
L 354.626722 52.662857 
L 353.137481 52.662857 
z
" clip-path="url(#p0d5d9b800b)" style="fill: #1f77b4"/>
   </g>
   <g id="patch_195">
    <path d="M 354.578682 276.48 
L 356.067923 276.48 
L 356.067923 149.129149 
L 354.578682 149.129149 
z
" clip-path="url(#p0d5d9b800b)" style="fill: #1f77b4"/>
   </g>
   <g id="patch_196">
    <path d="M 356.067923 276.48 
L 357.557164 276.48 
L 357.557164 192.098971 
L 356.067923 192.098971 
z
" clip-path="url(#p0d5d9b800b)" style="fill: #1f77b4"/>
   </g>
   <g id="patch_197">
    <path d="M 357.557164 276.48 
L 359.046405 276.48 
L 359.046405 174.762374 
L 357.557164 174.762374 
z
" clip-path="url(#p0d5d9b800b)" style="fill: #1f77b4"/>
   </g>
   <g id="patch_198">
    <path d="M 358.998365 276.48 
L 360.487606 276.48 
L 360.487606 217.252622 
L 358.998365 217.252622 
z
" clip-path="url(#p0d5d9b800b)" style="fill: #1f77b4"/>
   </g>
   <g id="patch_199">
    <path d="M 360.487606 276.48 
L 361.976847 276.48 
L 361.976847 192.986183 
L 360.487606 192.986183 
z
" clip-path="url(#p0d5d9b800b)" style="fill: #1f77b4"/>
   </g>
   <g id="patch_200">
    <path d="M 361.928807 276.48 
L 363.418048 276.48 
L 363.418048 175.793458 
L 361.928807 175.793458 
z
" clip-path="url(#p0d5d9b800b)" style="fill: #1f77b4"/>
   </g>
   <g id="patch_201">
    <path d="M 363.418048 276.48 
L 364.907289 276.48 
L 364.907289 114.120253 
L 363.418048 114.120253 
z
" clip-path="url(#p0d5d9b800b)" style="fill: #1f77b4"/>
   </g>
   <g id="patch_202">
    <path d="M 364.907289 276.48 
L 366.39653 276.48 
L 366.39653 138.027013 
L 364.907289 138.027013 
z
" clip-path="url(#p0d5d9b800b)" style="fill: #1f77b4"/>
   </g>
   <g id="patch_203">
    <path d="M 366.25241 276.48 
L 367.741651 276.48 
L 367.741651 179.078539 
L 366.25241 179.078539 
z
" clip-path="url(#p0d5d9b800b)" style="fill: #1f77b4"/>
   </g>
   <g id="patch_204">
    <path d="M 367.741651 276.48 
L 369.230892 276.48 
L 369.230892 199.148707 
L 367.741651 199.148707 
z
" clip-path="url(#p0d5d9b800b)" style="fill: #1f77b4"/>
   </g>
   <g id="patch_205">
    <path d="M 369.182852 276.48 
L 370.672093 276.48 
L 370.672093 203.105192 
L 369.182852 203.105192 
z
" clip-path="url(#p0d5d9b800b)" style="fill: #1f77b4"/>
   </g>
   <g id="patch_206">
    <path d="M 370.672093 276.48 
L 372.161334 276.48 
L 372.161334 167.185106 
L 370.672093 167.185106 
z
" clip-path="url(#p0d5d9b800b)" style="fill: #1f77b4"/>
   </g>
   <g id="patch_207">
    <path d="M 372.113294 276.48 
L 373.602535 276.48 
L 373.602535 185.600744 
L 372.113294 185.600744 
z
" clip-path="url(#p0d5d9b800b)" style="fill: #1f77b4"/>
   </g>
   <g id="patch_208">
    <path d="M 373.602535 276.48 
L 375.091776 276.48 
L 375.091776 168.887594 
L 373.602535 168.887594 
z
" clip-path="url(#p0d5d9b800b)" style="fill: #1f77b4"/>
   </g>
   <g id="patch_209">
    <path d="M 375.091776 276.48 
L 376.581018 276.48 
L 376.581018 138.458629 
L 375.091776 138.458629 
z
" clip-path="url(#p0d5d9b800b)" style="fill: #1f77b4"/>
   </g>
   <g id="patch_210">
    <path d="M 376.532977 276.48 
L 378.022219 276.48 
L 378.022219 147.25881 
L 376.532977 147.25881 
z
" clip-path="url(#p0d5d9b800b)" style="fill: #1f77b4"/>
   </g>
   <g id="patch_211">
    <path d="M 378.022219 276.48 
L 379.51146 276.48 
L 379.51146 202.505725 
L 378.022219 202.505725 
z
" clip-path="url(#p0d5d9b800b)" style="fill: #1f77b4"/>
   </g>
   <g id="patch_212">
    <path d="M 379.46342 276.48 
L 380.952661 276.48 
L 380.952661 175.649586 
L 379.46342 175.649586 
z
" clip-path="url(#p0d5d9b800b)" style="fill: #1f77b4"/>
   </g>
   <g id="patch_213">
    <path d="M 380.952661 276.48 
L 382.441902 276.48 
L 382.441902 199.076771 
L 380.952661 199.076771 
z
" clip-path="url(#p0d5d9b800b)" style="fill: #1f77b4"/>
   </g>
   <g id="patch_214">
    <path d="M 382.441902 276.48 
L 383.931143 276.48 
L 383.931143 189.677123 
L 382.441902 189.677123 
z
" clip-path="url(#p0d5d9b800b)" style="fill: #1f77b4"/>
   </g>
   <g id="patch_215">
    <path d="M 383.787023 276.48 
L 385.276264 276.48 
L 385.276264 166.225959 
L 383.787023 166.225959 
z
" clip-path="url(#p0d5d9b800b)" style="fill: #1f77b4"/>
   </g>
   <g id="patch_216">
    <path d="M 385.276264 276.48 
L 386.765505 276.48 
L 386.765505 218.451557 
L 385.276264 218.451557 
z
" clip-path="url(#p0d5d9b800b)" style="fill: #1f77b4"/>
   </g>
   <g id="patch_217">
    <path d="M 386.717465 276.48 
L 388.206706 276.48 
L 388.206706 197.542135 
L 386.717465 197.542135 
z
" clip-path="url(#p0d5d9b800b)" style="fill: #1f77b4"/>
   </g>
   <g id="patch_218">
    <path d="M 388.206706 276.48 
L 389.695947 276.48 
L 389.695947 223.72687 
L 388.206706 223.72687 
z
" clip-path="url(#p0d5d9b800b)" style="fill: #1f77b4"/>
   </g>
   <g id="patch_219">
    <path d="M 389.647907 276.48 
L 391.137148 276.48 
L 391.137148 229.721544 
L 389.647907 229.721544 
z
" clip-path="url(#p0d5d9b800b)" style="fill: #1f77b4"/>
   </g>
   <g id="patch_220">
    <path d="M 391.137148 276.48 
L 392.626389 276.48 
L 392.626389 219.027046 
L 391.137148 219.027046 
z
" clip-path="url(#p0d5d9b800b)" style="fill: #1f77b4"/>
   </g>
   <g id="patch_221">
    <path d="M 392.626389 276.48 
L 394.11563 276.48 
L 394.11563 223.750849 
L 392.626389 223.750849 
z
" clip-path="url(#p0d5d9b800b)" style="fill: #1f77b4"/>
   </g>
   <g id="patch_222">
    <path d="M 394.06759 276.48 
L 395.556831 276.48 
L 395.556831 209.963099 
L 394.06759 209.963099 
z
" clip-path="url(#p0d5d9b800b)" style="fill: #1f77b4"/>
   </g>
   <g id="patch_223">
    <path d="M 395.556831 276.48 
L 397.046072 276.48 
L 397.046072 226.508399 
L 395.556831 226.508399 
z
" clip-path="url(#p0d5d9b800b)" style="fill: #1f77b4"/>
   </g>
   <g id="patch_224">
    <path d="M 396.998032 276.48 
L 398.487273 276.48 
L 398.487273 227.371632 
L 396.998032 227.371632 
z
" clip-path="url(#p0d5d9b800b)" style="fill: #1f77b4"/>
   </g>
   <g id="matplotlib.axis_1">
    <g id="xtick_1">
     <g id="line2d_1">
      <defs>
       <path id="m6596ad68fb" d="M 0 0 
L 0 3.5 
" style="stroke: #000000; stroke-width: 0.8"/>
      </defs>
      <g>
       <use xlink:href="#m6596ad68fb" x="83.416714" y="276.48" style="stroke: #000000; stroke-width: 0.8"/>
      </g>
     </g>
     <g id="text_1">
      <!-- 2006-01-01 -->
      <g transform="translate(32.047263 319.118252) rotate(-30) scale(0.1 -0.1)">
       <defs>
        <path id="DejaVuSans-32" d="M 1228 531 
L 3431 531 
L 3431 0 
L 469 0 
L 469 531 
Q 828 903 1448 1529 
Q 2069 2156 2228 2338 
Q 2531 2678 2651 2914 
Q 2772 3150 2772 3378 
Q 2772 3750 2511 3984 
Q 2250 4219 1831 4219 
Q 1534 4219 1204 4116 
Q 875 4013 500 3803 
L 500 4441 
Q 881 4594 1212 4672 
Q 1544 4750 1819 4750 
Q 2544 4750 2975 4387 
Q 3406 4025 3406 3419 
Q 3406 3131 3298 2873 
Q 3191 2616 2906 2266 
Q 2828 2175 2409 1742 
Q 1991 1309 1228 531 
z
" transform="scale(0.015625)"/>
        <path id="DejaVuSans-30" d="M 2034 4250 
Q 1547 4250 1301 3770 
Q 1056 3291 1056 2328 
Q 1056 1369 1301 889 
Q 1547 409 2034 409 
Q 2525 409 2770 889 
Q 3016 1369 3016 2328 
Q 3016 3291 2770 3770 
Q 2525 4250 2034 4250 
z
M 2034 4750 
Q 2819 4750 3233 4129 
Q 3647 3509 3647 2328 
Q 3647 1150 3233 529 
Q 2819 -91 2034 -91 
Q 1250 -91 836 529 
Q 422 1150 422 2328 
Q 422 3509 836 4129 
Q 1250 4750 2034 4750 
z
" transform="scale(0.015625)"/>
        <path id="DejaVuSans-36" d="M 2113 2584 
Q 1688 2584 1439 2293 
Q 1191 2003 1191 1497 
Q 1191 994 1439 701 
Q 1688 409 2113 409 
Q 2538 409 2786 701 
Q 3034 994 3034 1497 
Q 3034 2003 2786 2293 
Q 2538 2584 2113 2584 
z
M 3366 4563 
L 3366 3988 
Q 3128 4100 2886 4159 
Q 2644 4219 2406 4219 
Q 1781 4219 1451 3797 
Q 1122 3375 1075 2522 
Q 1259 2794 1537 2939 
Q 1816 3084 2150 3084 
Q 2853 3084 3261 2657 
Q 3669 2231 3669 1497 
Q 3669 778 3244 343 
Q 2819 -91 2113 -91 
Q 1303 -91 875 529 
Q 447 1150 447 2328 
Q 447 3434 972 4092 
Q 1497 4750 2381 4750 
Q 2619 4750 2861 4703 
Q 3103 4656 3366 4563 
z
" transform="scale(0.015625)"/>
        <path id="DejaVuSans-2d" d="M 313 2009 
L 1997 2009 
L 1997 1497 
L 313 1497 
L 313 2009 
z
" transform="scale(0.015625)"/>
        <path id="DejaVuSans-31" d="M 794 531 
L 1825 531 
L 1825 4091 
L 703 3866 
L 703 4441 
L 1819 4666 
L 2450 4666 
L 2450 531 
L 3481 531 
L 3481 0 
L 794 0 
L 794 531 
z
" transform="scale(0.015625)"/>
       </defs>
       <use xlink:href="#DejaVuSans-32"/>
       <use xlink:href="#DejaVuSans-30" x="63.623047"/>
       <use xlink:href="#DejaVuSans-30" x="127.246094"/>
       <use xlink:href="#DejaVuSans-36" x="190.869141"/>
       <use xlink:href="#DejaVuSans-2d" x="254.492188"/>
       <use xlink:href="#DejaVuSans-30" x="290.576172"/>
       <use xlink:href="#DejaVuSans-31" x="354.199219"/>
       <use xlink:href="#DejaVuSans-2d" x="417.822266"/>
       <use xlink:href="#DejaVuSans-30" x="453.90625"/>
       <use xlink:href="#DejaVuSans-31" x="517.529297"/>
      </g>
     </g>
    </g>
    <g id="xtick_2">
     <g id="line2d_2">
      <g>
       <use xlink:href="#m6596ad68fb" x="100.951326" y="276.48" style="stroke: #000000; stroke-width: 0.8"/>
      </g>
     </g>
     <g id="text_2">
      <!-- 2007-01-01 -->
      <g transform="translate(49.581875 319.118252) rotate(-30) scale(0.1 -0.1)">
       <defs>
        <path id="DejaVuSans-37" d="M 525 4666 
L 3525 4666 
L 3525 4397 
L 1831 0 
L 1172 0 
L 2766 4134 
L 525 4134 
L 525 4666 
z
" transform="scale(0.015625)"/>
       </defs>
       <use xlink:href="#DejaVuSans-32"/>
       <use xlink:href="#DejaVuSans-30" x="63.623047"/>
       <use xlink:href="#DejaVuSans-30" x="127.246094"/>
       <use xlink:href="#DejaVuSans-37" x="190.869141"/>
       <use xlink:href="#DejaVuSans-2d" x="254.492188"/>
       <use xlink:href="#DejaVuSans-30" x="290.576172"/>
       <use xlink:href="#DejaVuSans-31" x="354.199219"/>
       <use xlink:href="#DejaVuSans-2d" x="417.822266"/>
       <use xlink:href="#DejaVuSans-30" x="453.90625"/>
       <use xlink:href="#DejaVuSans-31" x="517.529297"/>
      </g>
     </g>
    </g>
    <g id="xtick_3">
     <g id="line2d_3">
      <g>
       <use xlink:href="#m6596ad68fb" x="118.485938" y="276.48" style="stroke: #000000; stroke-width: 0.8"/>
      </g>
     </g>
     <g id="text_3">
      <!-- 2008-01-01 -->
      <g transform="translate(67.116487 319.118252) rotate(-30) scale(0.1 -0.1)">
       <defs>
        <path id="DejaVuSans-38" d="M 2034 2216 
Q 1584 2216 1326 1975 
Q 1069 1734 1069 1313 
Q 1069 891 1326 650 
Q 1584 409 2034 409 
Q 2484 409 2743 651 
Q 3003 894 3003 1313 
Q 3003 1734 2745 1975 
Q 2488 2216 2034 2216 
z
M 1403 2484 
Q 997 2584 770 2862 
Q 544 3141 544 3541 
Q 544 4100 942 4425 
Q 1341 4750 2034 4750 
Q 2731 4750 3128 4425 
Q 3525 4100 3525 3541 
Q 3525 3141 3298 2862 
Q 3072 2584 2669 2484 
Q 3125 2378 3379 2068 
Q 3634 1759 3634 1313 
Q 3634 634 3220 271 
Q 2806 -91 2034 -91 
Q 1263 -91 848 271 
Q 434 634 434 1313 
Q 434 1759 690 2068 
Q 947 2378 1403 2484 
z
M 1172 3481 
Q 1172 3119 1398 2916 
Q 1625 2713 2034 2713 
Q 2441 2713 2670 2916 
Q 2900 3119 2900 3481 
Q 2900 3844 2670 4047 
Q 2441 4250 2034 4250 
Q 1625 4250 1398 4047 
Q 1172 3844 1172 3481 
z
" transform="scale(0.015625)"/>
       </defs>
       <use xlink:href="#DejaVuSans-32"/>
       <use xlink:href="#DejaVuSans-30" x="63.623047"/>
       <use xlink:href="#DejaVuSans-30" x="127.246094"/>
       <use xlink:href="#DejaVuSans-38" x="190.869141"/>
       <use xlink:href="#DejaVuSans-2d" x="254.492188"/>
       <use xlink:href="#DejaVuSans-30" x="290.576172"/>
       <use xlink:href="#DejaVuSans-31" x="354.199219"/>
       <use xlink:href="#DejaVuSans-2d" x="417.822266"/>
       <use xlink:href="#DejaVuSans-30" x="453.90625"/>
       <use xlink:href="#DejaVuSans-31" x="517.529297"/>
      </g>
     </g>
    </g>
    <g id="xtick_4">
     <g id="line2d_4">
      <g>
       <use xlink:href="#m6596ad68fb" x="136.06859" y="276.48" style="stroke: #000000; stroke-width: 0.8"/>
      </g>
     </g>
     <g id="text_4">
      <!-- 2009-01-01 -->
      <g transform="translate(84.699139 319.118252) rotate(-30) scale(0.1 -0.1)">
       <defs>
        <path id="DejaVuSans-39" d="M 703 97 
L 703 672 
Q 941 559 1184 500 
Q 1428 441 1663 441 
Q 2288 441 2617 861 
Q 2947 1281 2994 2138 
Q 2813 1869 2534 1725 
Q 2256 1581 1919 1581 
Q 1219 1581 811 2004 
Q 403 2428 403 3163 
Q 403 3881 828 4315 
Q 1253 4750 1959 4750 
Q 2769 4750 3195 4129 
Q 3622 3509 3622 2328 
Q 3622 1225 3098 567 
Q 2575 -91 1691 -91 
Q 1453 -91 1209 -44 
Q 966 3 703 97 
z
M 1959 2075 
Q 2384 2075 2632 2365 
Q 2881 2656 2881 3163 
Q 2881 3666 2632 3958 
Q 2384 4250 1959 4250 
Q 1534 4250 1286 3958 
Q 1038 3666 1038 3163 
Q 1038 2656 1286 2365 
Q 1534 2075 1959 2075 
z
" transform="scale(0.015625)"/>
       </defs>
       <use xlink:href="#DejaVuSans-32"/>
       <use xlink:href="#DejaVuSans-30" x="63.623047"/>
       <use xlink:href="#DejaVuSans-30" x="127.246094"/>
       <use xlink:href="#DejaVuSans-39" x="190.869141"/>
       <use xlink:href="#DejaVuSans-2d" x="254.492188"/>
       <use xlink:href="#DejaVuSans-30" x="290.576172"/>
       <use xlink:href="#DejaVuSans-31" x="354.199219"/>
       <use xlink:href="#DejaVuSans-2d" x="417.822266"/>
       <use xlink:href="#DejaVuSans-30" x="453.90625"/>
       <use xlink:href="#DejaVuSans-31" x="517.529297"/>
      </g>
     </g>
    </g>
    <g id="xtick_5">
     <g id="line2d_5">
      <g>
       <use xlink:href="#m6596ad68fb" x="153.603203" y="276.48" style="stroke: #000000; stroke-width: 0.8"/>
      </g>
     </g>
     <g id="text_5">
      <!-- 2010-01-01 -->
      <g transform="translate(102.233751 319.118252) rotate(-30) scale(0.1 -0.1)">
       <use xlink:href="#DejaVuSans-32"/>
       <use xlink:href="#DejaVuSans-30" x="63.623047"/>
       <use xlink:href="#DejaVuSans-31" x="127.246094"/>
       <use xlink:href="#DejaVuSans-30" x="190.869141"/>
       <use xlink:href="#DejaVuSans-2d" x="254.492188"/>
       <use xlink:href="#DejaVuSans-30" x="290.576172"/>
       <use xlink:href="#DejaVuSans-31" x="354.199219"/>
       <use xlink:href="#DejaVuSans-2d" x="417.822266"/>
       <use xlink:href="#DejaVuSans-30" x="453.90625"/>
       <use xlink:href="#DejaVuSans-31" x="517.529297"/>
      </g>
     </g>
    </g>
    <g id="xtick_6">
     <g id="line2d_6">
      <g>
       <use xlink:href="#m6596ad68fb" x="171.137815" y="276.48" style="stroke: #000000; stroke-width: 0.8"/>
      </g>
     </g>
     <g id="text_6">
      <!-- 2011-01-01 -->
      <g transform="translate(119.768363 319.118252) rotate(-30) scale(0.1 -0.1)">
       <use xlink:href="#DejaVuSans-32"/>
       <use xlink:href="#DejaVuSans-30" x="63.623047"/>
       <use xlink:href="#DejaVuSans-31" x="127.246094"/>
       <use xlink:href="#DejaVuSans-31" x="190.869141"/>
       <use xlink:href="#DejaVuSans-2d" x="254.492188"/>
       <use xlink:href="#DejaVuSans-30" x="290.576172"/>
       <use xlink:href="#DejaVuSans-31" x="354.199219"/>
       <use xlink:href="#DejaVuSans-2d" x="417.822266"/>
       <use xlink:href="#DejaVuSans-30" x="453.90625"/>
       <use xlink:href="#DejaVuSans-31" x="517.529297"/>
      </g>
     </g>
    </g>
    <g id="xtick_7">
     <g id="line2d_7">
      <g>
       <use xlink:href="#m6596ad68fb" x="188.672427" y="276.48" style="stroke: #000000; stroke-width: 0.8"/>
      </g>
     </g>
     <g id="text_7">
      <!-- 2012-01-01 -->
      <g transform="translate(137.302976 319.118252) rotate(-30) scale(0.1 -0.1)">
       <use xlink:href="#DejaVuSans-32"/>
       <use xlink:href="#DejaVuSans-30" x="63.623047"/>
       <use xlink:href="#DejaVuSans-31" x="127.246094"/>
       <use xlink:href="#DejaVuSans-32" x="190.869141"/>
       <use xlink:href="#DejaVuSans-2d" x="254.492188"/>
       <use xlink:href="#DejaVuSans-30" x="290.576172"/>
       <use xlink:href="#DejaVuSans-31" x="354.199219"/>
       <use xlink:href="#DejaVuSans-2d" x="417.822266"/>
       <use xlink:href="#DejaVuSans-30" x="453.90625"/>
       <use xlink:href="#DejaVuSans-31" x="517.529297"/>
      </g>
     </g>
    </g>
    <g id="xtick_8">
     <g id="line2d_8">
      <g>
       <use xlink:href="#m6596ad68fb" x="206.255079" y="276.48" style="stroke: #000000; stroke-width: 0.8"/>
      </g>
     </g>
     <g id="text_8">
      <!-- 2013-01-01 -->
      <g transform="translate(154.885628 319.118252) rotate(-30) scale(0.1 -0.1)">
       <defs>
        <path id="DejaVuSans-33" d="M 2597 2516 
Q 3050 2419 3304 2112 
Q 3559 1806 3559 1356 
Q 3559 666 3084 287 
Q 2609 -91 1734 -91 
Q 1441 -91 1130 -33 
Q 819 25 488 141 
L 488 750 
Q 750 597 1062 519 
Q 1375 441 1716 441 
Q 2309 441 2620 675 
Q 2931 909 2931 1356 
Q 2931 1769 2642 2001 
Q 2353 2234 1838 2234 
L 1294 2234 
L 1294 2753 
L 1863 2753 
Q 2328 2753 2575 2939 
Q 2822 3125 2822 3475 
Q 2822 3834 2567 4026 
Q 2313 4219 1838 4219 
Q 1578 4219 1281 4162 
Q 984 4106 628 3988 
L 628 4550 
Q 988 4650 1302 4700 
Q 1616 4750 1894 4750 
Q 2613 4750 3031 4423 
Q 3450 4097 3450 3541 
Q 3450 3153 3228 2886 
Q 3006 2619 2597 2516 
z
" transform="scale(0.015625)"/>
       </defs>
       <use xlink:href="#DejaVuSans-32"/>
       <use xlink:href="#DejaVuSans-30" x="63.623047"/>
       <use xlink:href="#DejaVuSans-31" x="127.246094"/>
       <use xlink:href="#DejaVuSans-33" x="190.869141"/>
       <use xlink:href="#DejaVuSans-2d" x="254.492188"/>
       <use xlink:href="#DejaVuSans-30" x="290.576172"/>
       <use xlink:href="#DejaVuSans-31" x="354.199219"/>
       <use xlink:href="#DejaVuSans-2d" x="417.822266"/>
       <use xlink:href="#DejaVuSans-30" x="453.90625"/>
       <use xlink:href="#DejaVuSans-31" x="517.529297"/>
      </g>
     </g>
    </g>
    <g id="xtick_9">
     <g id="line2d_9">
      <g>
       <use xlink:href="#m6596ad68fb" x="223.789691" y="276.48" style="stroke: #000000; stroke-width: 0.8"/>
      </g>
     </g>
     <g id="text_9">
      <!-- 2014-01-01 -->
      <g transform="translate(172.42024 319.118252) rotate(-30) scale(0.1 -0.1)">
       <defs>
        <path id="DejaVuSans-34" d="M 2419 4116 
L 825 1625 
L 2419 1625 
L 2419 4116 
z
M 2253 4666 
L 3047 4666 
L 3047 1625 
L 3713 1625 
L 3713 1100 
L 3047 1100 
L 3047 0 
L 2419 0 
L 2419 1100 
L 313 1100 
L 313 1709 
L 2253 4666 
z
" transform="scale(0.015625)"/>
       </defs>
       <use xlink:href="#DejaVuSans-32"/>
       <use xlink:href="#DejaVuSans-30" x="63.623047"/>
       <use xlink:href="#DejaVuSans-31" x="127.246094"/>
       <use xlink:href="#DejaVuSans-34" x="190.869141"/>
       <use xlink:href="#DejaVuSans-2d" x="254.492188"/>
       <use xlink:href="#DejaVuSans-30" x="290.576172"/>
       <use xlink:href="#DejaVuSans-31" x="354.199219"/>
       <use xlink:href="#DejaVuSans-2d" x="417.822266"/>
       <use xlink:href="#DejaVuSans-30" x="453.90625"/>
       <use xlink:href="#DejaVuSans-31" x="517.529297"/>
      </g>
     </g>
    </g>
    <g id="xtick_10">
     <g id="line2d_10">
      <g>
       <use xlink:href="#m6596ad68fb" x="241.324304" y="276.48" style="stroke: #000000; stroke-width: 0.8"/>
      </g>
     </g>
     <g id="text_10">
      <!-- 2015-01-01 -->
      <g transform="translate(189.954852 319.118252) rotate(-30) scale(0.1 -0.1)">
       <defs>
        <path id="DejaVuSans-35" d="M 691 4666 
L 3169 4666 
L 3169 4134 
L 1269 4134 
L 1269 2991 
Q 1406 3038 1543 3061 
Q 1681 3084 1819 3084 
Q 2600 3084 3056 2656 
Q 3513 2228 3513 1497 
Q 3513 744 3044 326 
Q 2575 -91 1722 -91 
Q 1428 -91 1123 -41 
Q 819 9 494 109 
L 494 744 
Q 775 591 1075 516 
Q 1375 441 1709 441 
Q 2250 441 2565 725 
Q 2881 1009 2881 1497 
Q 2881 1984 2565 2268 
Q 2250 2553 1709 2553 
Q 1456 2553 1204 2497 
Q 953 2441 691 2322 
L 691 4666 
z
" transform="scale(0.015625)"/>
       </defs>
       <use xlink:href="#DejaVuSans-32"/>
       <use xlink:href="#DejaVuSans-30" x="63.623047"/>
       <use xlink:href="#DejaVuSans-31" x="127.246094"/>
       <use xlink:href="#DejaVuSans-35" x="190.869141"/>
       <use xlink:href="#DejaVuSans-2d" x="254.492188"/>
       <use xlink:href="#DejaVuSans-30" x="290.576172"/>
       <use xlink:href="#DejaVuSans-31" x="354.199219"/>
       <use xlink:href="#DejaVuSans-2d" x="417.822266"/>
       <use xlink:href="#DejaVuSans-30" x="453.90625"/>
       <use xlink:href="#DejaVuSans-31" x="517.529297"/>
      </g>
     </g>
    </g>
    <g id="xtick_11">
     <g id="line2d_11">
      <g>
       <use xlink:href="#m6596ad68fb" x="258.858916" y="276.48" style="stroke: #000000; stroke-width: 0.8"/>
      </g>
     </g>
     <g id="text_11">
      <!-- 2016-01-01 -->
      <g transform="translate(207.489464 319.118252) rotate(-30) scale(0.1 -0.1)">
       <use xlink:href="#DejaVuSans-32"/>
       <use xlink:href="#DejaVuSans-30" x="63.623047"/>
       <use xlink:href="#DejaVuSans-31" x="127.246094"/>
       <use xlink:href="#DejaVuSans-36" x="190.869141"/>
       <use xlink:href="#DejaVuSans-2d" x="254.492188"/>
       <use xlink:href="#DejaVuSans-30" x="290.576172"/>
       <use xlink:href="#DejaVuSans-31" x="354.199219"/>
       <use xlink:href="#DejaVuSans-2d" x="417.822266"/>
       <use xlink:href="#DejaVuSans-30" x="453.90625"/>
       <use xlink:href="#DejaVuSans-31" x="517.529297"/>
      </g>
     </g>
    </g>
    <g id="xtick_12">
     <g id="line2d_12">
      <g>
       <use xlink:href="#m6596ad68fb" x="276.441568" y="276.48" style="stroke: #000000; stroke-width: 0.8"/>
      </g>
     </g>
     <g id="text_12">
      <!-- 2017-01-01 -->
      <g transform="translate(225.072117 319.118252) rotate(-30) scale(0.1 -0.1)">
       <use xlink:href="#DejaVuSans-32"/>
       <use xlink:href="#DejaVuSans-30" x="63.623047"/>
       <use xlink:href="#DejaVuSans-31" x="127.246094"/>
       <use xlink:href="#DejaVuSans-37" x="190.869141"/>
       <use xlink:href="#DejaVuSans-2d" x="254.492188"/>
       <use xlink:href="#DejaVuSans-30" x="290.576172"/>
       <use xlink:href="#DejaVuSans-31" x="354.199219"/>
       <use xlink:href="#DejaVuSans-2d" x="417.822266"/>
       <use xlink:href="#DejaVuSans-30" x="453.90625"/>
       <use xlink:href="#DejaVuSans-31" x="517.529297"/>
      </g>
     </g>
    </g>
    <g id="xtick_13">
     <g id="line2d_13">
      <g>
       <use xlink:href="#m6596ad68fb" x="293.97618" y="276.48" style="stroke: #000000; stroke-width: 0.8"/>
      </g>
     </g>
     <g id="text_13">
      <!-- 2018-01-01 -->
      <g transform="translate(242.606729 319.118252) rotate(-30) scale(0.1 -0.1)">
       <use xlink:href="#DejaVuSans-32"/>
       <use xlink:href="#DejaVuSans-30" x="63.623047"/>
       <use xlink:href="#DejaVuSans-31" x="127.246094"/>
       <use xlink:href="#DejaVuSans-38" x="190.869141"/>
       <use xlink:href="#DejaVuSans-2d" x="254.492188"/>
       <use xlink:href="#DejaVuSans-30" x="290.576172"/>
       <use xlink:href="#DejaVuSans-31" x="354.199219"/>
       <use xlink:href="#DejaVuSans-2d" x="417.822266"/>
       <use xlink:href="#DejaVuSans-30" x="453.90625"/>
       <use xlink:href="#DejaVuSans-31" x="517.529297"/>
      </g>
     </g>
    </g>
    <g id="xtick_14">
     <g id="line2d_14">
      <g>
       <use xlink:href="#m6596ad68fb" x="311.510792" y="276.48" style="stroke: #000000; stroke-width: 0.8"/>
      </g>
     </g>
     <g id="text_14">
      <!-- 2019-01-01 -->
      <g transform="translate(260.141341 319.118252) rotate(-30) scale(0.1 -0.1)">
       <use xlink:href="#DejaVuSans-32"/>
       <use xlink:href="#DejaVuSans-30" x="63.623047"/>
       <use xlink:href="#DejaVuSans-31" x="127.246094"/>
       <use xlink:href="#DejaVuSans-39" x="190.869141"/>
       <use xlink:href="#DejaVuSans-2d" x="254.492188"/>
       <use xlink:href="#DejaVuSans-30" x="290.576172"/>
       <use xlink:href="#DejaVuSans-31" x="354.199219"/>
       <use xlink:href="#DejaVuSans-2d" x="417.822266"/>
       <use xlink:href="#DejaVuSans-30" x="453.90625"/>
       <use xlink:href="#DejaVuSans-31" x="517.529297"/>
      </g>
     </g>
    </g>
    <g id="xtick_15">
     <g id="line2d_15">
      <g>
       <use xlink:href="#m6596ad68fb" x="329.045405" y="276.48" style="stroke: #000000; stroke-width: 0.8"/>
      </g>
     </g>
     <g id="text_15">
      <!-- 2020-01-01 -->
      <g transform="translate(277.675953 319.118252) rotate(-30) scale(0.1 -0.1)">
       <use xlink:href="#DejaVuSans-32"/>
       <use xlink:href="#DejaVuSans-30" x="63.623047"/>
       <use xlink:href="#DejaVuSans-32" x="127.246094"/>
       <use xlink:href="#DejaVuSans-30" x="190.869141"/>
       <use xlink:href="#DejaVuSans-2d" x="254.492188"/>
       <use xlink:href="#DejaVuSans-30" x="290.576172"/>
       <use xlink:href="#DejaVuSans-31" x="354.199219"/>
       <use xlink:href="#DejaVuSans-2d" x="417.822266"/>
       <use xlink:href="#DejaVuSans-30" x="453.90625"/>
       <use xlink:href="#DejaVuSans-31" x="517.529297"/>
      </g>
     </g>
    </g>
    <g id="xtick_16">
     <g id="line2d_16">
      <g>
       <use xlink:href="#m6596ad68fb" x="346.628057" y="276.48" style="stroke: #000000; stroke-width: 0.8"/>
      </g>
     </g>
     <g id="text_16">
      <!-- 2021-01-01 -->
      <g transform="translate(295.258605 319.118252) rotate(-30) scale(0.1 -0.1)">
       <use xlink:href="#DejaVuSans-32"/>
       <use xlink:href="#DejaVuSans-30" x="63.623047"/>
       <use xlink:href="#DejaVuSans-32" x="127.246094"/>
       <use xlink:href="#DejaVuSans-31" x="190.869141"/>
       <use xlink:href="#DejaVuSans-2d" x="254.492188"/>
       <use xlink:href="#DejaVuSans-30" x="290.576172"/>
       <use xlink:href="#DejaVuSans-31" x="354.199219"/>
       <use xlink:href="#DejaVuSans-2d" x="417.822266"/>
       <use xlink:href="#DejaVuSans-30" x="453.90625"/>
       <use xlink:href="#DejaVuSans-31" x="517.529297"/>
      </g>
     </g>
    </g>
    <g id="xtick_17">
     <g id="line2d_17">
      <g>
       <use xlink:href="#m6596ad68fb" x="364.162669" y="276.48" style="stroke: #000000; stroke-width: 0.8"/>
      </g>
     </g>
     <g id="text_17">
      <!-- 2022-01-01 -->
      <g transform="translate(312.793218 319.118252) rotate(-30) scale(0.1 -0.1)">
       <use xlink:href="#DejaVuSans-32"/>
       <use xlink:href="#DejaVuSans-30" x="63.623047"/>
       <use xlink:href="#DejaVuSans-32" x="127.246094"/>
       <use xlink:href="#DejaVuSans-32" x="190.869141"/>
       <use xlink:href="#DejaVuSans-2d" x="254.492188"/>
       <use xlink:href="#DejaVuSans-30" x="290.576172"/>
       <use xlink:href="#DejaVuSans-31" x="354.199219"/>
       <use xlink:href="#DejaVuSans-2d" x="417.822266"/>
       <use xlink:href="#DejaVuSans-30" x="453.90625"/>
       <use xlink:href="#DejaVuSans-31" x="517.529297"/>
      </g>
     </g>
    </g>
    <g id="xtick_18">
     <g id="line2d_18">
      <g>
       <use xlink:href="#m6596ad68fb" x="381.697281" y="276.48" style="stroke: #000000; stroke-width: 0.8"/>
      </g>
     </g>
     <g id="text_18">
      <!-- 2023-01-01 -->
      <g transform="translate(330.32783 319.118252) rotate(-30) scale(0.1 -0.1)">
       <use xlink:href="#DejaVuSans-32"/>
       <use xlink:href="#DejaVuSans-30" x="63.623047"/>
       <use xlink:href="#DejaVuSans-32" x="127.246094"/>
       <use xlink:href="#DejaVuSans-33" x="190.869141"/>
       <use xlink:href="#DejaVuSans-2d" x="254.492188"/>
       <use xlink:href="#DejaVuSans-30" x="290.576172"/>
       <use xlink:href="#DejaVuSans-31" x="354.199219"/>
       <use xlink:href="#DejaVuSans-2d" x="417.822266"/>
       <use xlink:href="#DejaVuSans-30" x="453.90625"/>
       <use xlink:href="#DejaVuSans-31" x="517.529297"/>
      </g>
     </g>
    </g>
    <g id="xtick_19">
     <g id="line2d_19">
      <g>
       <use xlink:href="#m6596ad68fb" x="399.231893" y="276.48" style="stroke: #000000; stroke-width: 0.8"/>
      </g>
     </g>
     <g id="text_19">
      <!-- 2024-01-01 -->
      <g transform="translate(347.862442 319.118252) rotate(-30) scale(0.1 -0.1)">
       <use xlink:href="#DejaVuSans-32"/>
       <use xlink:href="#DejaVuSans-30" x="63.623047"/>
       <use xlink:href="#DejaVuSans-32" x="127.246094"/>
       <use xlink:href="#DejaVuSans-34" x="190.869141"/>
       <use xlink:href="#DejaVuSans-2d" x="254.492188"/>
       <use xlink:href="#DejaVuSans-30" x="290.576172"/>
       <use xlink:href="#DejaVuSans-31" x="354.199219"/>
       <use xlink:href="#DejaVuSans-2d" x="417.822266"/>
       <use xlink:href="#DejaVuSans-30" x="453.90625"/>
       <use xlink:href="#DejaVuSans-31" x="517.529297"/>
      </g>
     </g>
    </g>
    <g id="text_20">
     <!-- date -->
     <g transform="translate(224.885 332.517752) scale(0.1 -0.1)">
      <defs>
       <path id="DejaVuSans-64" d="M 2906 2969 
L 2906 4863 
L 3481 4863 
L 3481 0 
L 2906 0 
L 2906 525 
Q 2725 213 2448 61 
Q 2172 -91 1784 -91 
Q 1150 -91 751 415 
Q 353 922 353 1747 
Q 353 2572 751 3078 
Q 1150 3584 1784 3584 
Q 2172 3584 2448 3432 
Q 2725 3281 2906 2969 
z
M 947 1747 
Q 947 1113 1208 752 
Q 1469 391 1925 391 
Q 2381 391 2643 752 
Q 2906 1113 2906 1747 
Q 2906 2381 2643 2742 
Q 2381 3103 1925 3103 
Q 1469 3103 1208 2742 
Q 947 2381 947 1747 
z
" transform="scale(0.015625)"/>
       <path id="DejaVuSans-61" d="M 2194 1759 
Q 1497 1759 1228 1600 
Q 959 1441 959 1056 
Q 959 750 1161 570 
Q 1363 391 1709 391 
Q 2188 391 2477 730 
Q 2766 1069 2766 1631 
L 2766 1759 
L 2194 1759 
z
M 3341 1997 
L 3341 0 
L 2766 0 
L 2766 531 
Q 2569 213 2275 61 
Q 1981 -91 1556 -91 
Q 1019 -91 701 211 
Q 384 513 384 1019 
Q 384 1609 779 1909 
Q 1175 2209 1959 2209 
L 2766 2209 
L 2766 2266 
Q 2766 2663 2505 2880 
Q 2244 3097 1772 3097 
Q 1472 3097 1187 3025 
Q 903 2953 641 2809 
L 641 3341 
Q 956 3463 1253 3523 
Q 1550 3584 1831 3584 
Q 2591 3584 2966 3190 
Q 3341 2797 3341 1997 
z
" transform="scale(0.015625)"/>
       <path id="DejaVuSans-74" d="M 1172 4494 
L 1172 3500 
L 2356 3500 
L 2356 3053 
L 1172 3053 
L 1172 1153 
Q 1172 725 1289 603 
Q 1406 481 1766 481 
L 2356 481 
L 2356 0 
L 1766 0 
Q 1100 0 847 248 
Q 594 497 594 1153 
L 594 3053 
L 172 3053 
L 172 3500 
L 594 3500 
L 594 4494 
L 1172 4494 
z
" transform="scale(0.015625)"/>
       <path id="DejaVuSans-65" d="M 3597 1894 
L 3597 1613 
L 953 1613 
Q 991 1019 1311 708 
Q 1631 397 2203 397 
Q 2534 397 2845 478 
Q 3156 559 3463 722 
L 3463 178 
Q 3153 47 2828 -22 
Q 2503 -91 2169 -91 
Q 1331 -91 842 396 
Q 353 884 353 1716 
Q 353 2575 817 3079 
Q 1281 3584 2069 3584 
Q 2775 3584 3186 3129 
Q 3597 2675 3597 1894 
z
M 3022 2063 
Q 3016 2534 2758 2815 
Q 2500 3097 2075 3097 
Q 1594 3097 1305 2825 
Q 1016 2553 972 2059 
L 3022 2063 
z
" transform="scale(0.015625)"/>
      </defs>
      <use xlink:href="#DejaVuSans-64"/>
      <use xlink:href="#DejaVuSans-61" x="63.476562"/>
      <use xlink:href="#DejaVuSans-74" x="124.755859"/>
      <use xlink:href="#DejaVuSans-65" x="163.964844"/>
     </g>
    </g>
   </g>
   <g id="matplotlib.axis_2">
    <g id="ytick_1">
     <g id="line2d_20">
      <defs>
       <path id="m9896a34f55" d="M 0 0 
L -3.5 0 
" style="stroke: #000000; stroke-width: 0.8"/>
      </defs>
      <g>
       <use xlink:href="#m9896a34f55" x="57.6" y="276.48" style="stroke: #000000; stroke-width: 0.8"/>
      </g>
     </g>
     <g id="text_21">
      <!-- 0 -->
      <g transform="translate(44.2375 280.279219) scale(0.1 -0.1)">
       <use xlink:href="#DejaVuSans-30"/>
      </g>
     </g>
    </g>
    <g id="ytick_2">
     <g id="line2d_21">
      <g>
       <use xlink:href="#m9896a34f55" x="57.6" y="228.522609" style="stroke: #000000; stroke-width: 0.8"/>
      </g>
     </g>
     <g id="text_22">
      <!-- 2000 -->
      <g transform="translate(25.15 232.321828) scale(0.1 -0.1)">
       <use xlink:href="#DejaVuSans-32"/>
       <use xlink:href="#DejaVuSans-30" x="63.623047"/>
       <use xlink:href="#DejaVuSans-30" x="127.246094"/>
       <use xlink:href="#DejaVuSans-30" x="190.869141"/>
      </g>
     </g>
    </g>
    <g id="ytick_3">
     <g id="line2d_22">
      <g>
       <use xlink:href="#m9896a34f55" x="57.6" y="180.565218" style="stroke: #000000; stroke-width: 0.8"/>
      </g>
     </g>
     <g id="text_23">
      <!-- 4000 -->
      <g transform="translate(25.15 184.364437) scale(0.1 -0.1)">
       <use xlink:href="#DejaVuSans-34"/>
       <use xlink:href="#DejaVuSans-30" x="63.623047"/>
       <use xlink:href="#DejaVuSans-30" x="127.246094"/>
       <use xlink:href="#DejaVuSans-30" x="190.869141"/>
      </g>
     </g>
    </g>
    <g id="ytick_4">
     <g id="line2d_23">
      <g>
       <use xlink:href="#m9896a34f55" x="57.6" y="132.607828" style="stroke: #000000; stroke-width: 0.8"/>
      </g>
     </g>
     <g id="text_24">
      <!-- 6000 -->
      <g transform="translate(25.15 136.407046) scale(0.1 -0.1)">
       <use xlink:href="#DejaVuSans-36"/>
       <use xlink:href="#DejaVuSans-30" x="63.623047"/>
       <use xlink:href="#DejaVuSans-30" x="127.246094"/>
       <use xlink:href="#DejaVuSans-30" x="190.869141"/>
      </g>
     </g>
    </g>
    <g id="ytick_5">
     <g id="line2d_24">
      <g>
       <use xlink:href="#m9896a34f55" x="57.6" y="84.650437" style="stroke: #000000; stroke-width: 0.8"/>
      </g>
     </g>
     <g id="text_25">
      <!-- 8000 -->
      <g transform="translate(25.15 88.449656) scale(0.1 -0.1)">
       <use xlink:href="#DejaVuSans-38"/>
       <use xlink:href="#DejaVuSans-30" x="63.623047"/>
       <use xlink:href="#DejaVuSans-30" x="127.246094"/>
       <use xlink:href="#DejaVuSans-30" x="190.869141"/>
      </g>
     </g>
    </g>
    <g id="text_26">
     <!-- edit count -->
     <g transform="translate(19.070312 184.271312) rotate(-90) scale(0.1 -0.1)">
      <defs>
       <path id="DejaVuSans-69" d="M 603 3500 
L 1178 3500 
L 1178 0 
L 603 0 
L 603 3500 
z
M 603 4863 
L 1178 4863 
L 1178 4134 
L 603 4134 
L 603 4863 
z
" transform="scale(0.015625)"/>
       <path id="DejaVuSans-20" transform="scale(0.015625)"/>
       <path id="DejaVuSans-63" d="M 3122 3366 
L 3122 2828 
Q 2878 2963 2633 3030 
Q 2388 3097 2138 3097 
Q 1578 3097 1268 2742 
Q 959 2388 959 1747 
Q 959 1106 1268 751 
Q 1578 397 2138 397 
Q 2388 397 2633 464 
Q 2878 531 3122 666 
L 3122 134 
Q 2881 22 2623 -34 
Q 2366 -91 2075 -91 
Q 1284 -91 818 406 
Q 353 903 353 1747 
Q 353 2603 823 3093 
Q 1294 3584 2113 3584 
Q 2378 3584 2631 3529 
Q 2884 3475 3122 3366 
z
" transform="scale(0.015625)"/>
       <path id="DejaVuSans-6f" d="M 1959 3097 
Q 1497 3097 1228 2736 
Q 959 2375 959 1747 
Q 959 1119 1226 758 
Q 1494 397 1959 397 
Q 2419 397 2687 759 
Q 2956 1122 2956 1747 
Q 2956 2369 2687 2733 
Q 2419 3097 1959 3097 
z
M 1959 3584 
Q 2709 3584 3137 3096 
Q 3566 2609 3566 1747 
Q 3566 888 3137 398 
Q 2709 -91 1959 -91 
Q 1206 -91 779 398 
Q 353 888 353 1747 
Q 353 2609 779 3096 
Q 1206 3584 1959 3584 
z
" transform="scale(0.015625)"/>
       <path id="DejaVuSans-75" d="M 544 1381 
L 544 3500 
L 1119 3500 
L 1119 1403 
Q 1119 906 1312 657 
Q 1506 409 1894 409 
Q 2359 409 2629 706 
Q 2900 1003 2900 1516 
L 2900 3500 
L 3475 3500 
L 3475 0 
L 2900 0 
L 2900 538 
Q 2691 219 2414 64 
Q 2138 -91 1772 -91 
Q 1169 -91 856 284 
Q 544 659 544 1381 
z
M 1991 3584 
L 1991 3584 
z
" transform="scale(0.015625)"/>
       <path id="DejaVuSans-6e" d="M 3513 2113 
L 3513 0 
L 2938 0 
L 2938 2094 
Q 2938 2591 2744 2837 
Q 2550 3084 2163 3084 
Q 1697 3084 1428 2787 
Q 1159 2491 1159 1978 
L 1159 0 
L 581 0 
L 581 3500 
L 1159 3500 
L 1159 2956 
Q 1366 3272 1645 3428 
Q 1925 3584 2291 3584 
Q 2894 3584 3203 3211 
Q 3513 2838 3513 2113 
z
" transform="scale(0.015625)"/>
      </defs>
      <use xlink:href="#DejaVuSans-65"/>
      <use xlink:href="#DejaVuSans-64" x="61.523438"/>
      <use xlink:href="#DejaVuSans-69" x="125"/>
      <use xlink:href="#DejaVuSans-74" x="152.783203"/>
      <use xlink:href="#DejaVuSans-20" x="191.992188"/>
      <use xlink:href="#DejaVuSans-63" x="223.779297"/>
      <use xlink:href="#DejaVuSans-6f" x="278.759766"/>
      <use xlink:href="#DejaVuSans-75" x="339.941406"/>
      <use xlink:href="#DejaVuSans-6e" x="403.320312"/>
      <use xlink:href="#DejaVuSans-74" x="466.699219"/>
     </g>
    </g>
   </g>
   <g id="patch_225">
    <path d="M 57.6 276.48 
L 57.6 41.472 
" style="fill: none; stroke: #000000; stroke-width: 0.8; stroke-linejoin: miter; stroke-linecap: square"/>
   </g>
   <g id="patch_226">
    <path d="M 414.72 276.48 
L 414.72 41.472 
" style="fill: none; stroke: #000000; stroke-width: 0.8; stroke-linejoin: miter; stroke-linecap: square"/>
   </g>
   <g id="patch_227">
    <path d="M 57.6 276.48 
L 414.72 276.48 
" style="fill: none; stroke: #000000; stroke-width: 0.8; stroke-linejoin: miter; stroke-linecap: square"/>
   </g>
   <g id="patch_228">
    <path d="M 57.6 41.472 
L 414.72 41.472 
" style="fill: none; stroke: #000000; stroke-width: 0.8; stroke-linejoin: miter; stroke-linecap: square"/>
   </g>
   <g id="text_27">
    <!-- ArchWiki edits per month -->
    <g transform="translate(160.210312 35.472) scale(0.12 -0.12)">
     <defs>
      <path id="DejaVuSans-41" d="M 2188 4044 
L 1331 1722 
L 3047 1722 
L 2188 4044 
z
M 1831 4666 
L 2547 4666 
L 4325 0 
L 3669 0 
L 3244 1197 
L 1141 1197 
L 716 0 
L 50 0 
L 1831 4666 
z
" transform="scale(0.015625)"/>
      <path id="DejaVuSans-72" d="M 2631 2963 
Q 2534 3019 2420 3045 
Q 2306 3072 2169 3072 
Q 1681 3072 1420 2755 
Q 1159 2438 1159 1844 
L 1159 0 
L 581 0 
L 581 3500 
L 1159 3500 
L 1159 2956 
Q 1341 3275 1631 3429 
Q 1922 3584 2338 3584 
Q 2397 3584 2469 3576 
Q 2541 3569 2628 3553 
L 2631 2963 
z
" transform="scale(0.015625)"/>
      <path id="DejaVuSans-68" d="M 3513 2113 
L 3513 0 
L 2938 0 
L 2938 2094 
Q 2938 2591 2744 2837 
Q 2550 3084 2163 3084 
Q 1697 3084 1428 2787 
Q 1159 2491 1159 1978 
L 1159 0 
L 581 0 
L 581 4863 
L 1159 4863 
L 1159 2956 
Q 1366 3272 1645 3428 
Q 1925 3584 2291 3584 
Q 2894 3584 3203 3211 
Q 3513 2838 3513 2113 
z
" transform="scale(0.015625)"/>
      <path id="DejaVuSans-57" d="M 213 4666 
L 850 4666 
L 1831 722 
L 2809 4666 
L 3519 4666 
L 4500 722 
L 5478 4666 
L 6119 4666 
L 4947 0 
L 4153 0 
L 3169 4050 
L 2175 0 
L 1381 0 
L 213 4666 
z
" transform="scale(0.015625)"/>
      <path id="DejaVuSans-6b" d="M 581 4863 
L 1159 4863 
L 1159 1991 
L 2875 3500 
L 3609 3500 
L 1753 1863 
L 3688 0 
L 2938 0 
L 1159 1709 
L 1159 0 
L 581 0 
L 581 4863 
z
" transform="scale(0.015625)"/>
      <path id="DejaVuSans-73" d="M 2834 3397 
L 2834 2853 
Q 2591 2978 2328 3040 
Q 2066 3103 1784 3103 
Q 1356 3103 1142 2972 
Q 928 2841 928 2578 
Q 928 2378 1081 2264 
Q 1234 2150 1697 2047 
L 1894 2003 
Q 2506 1872 2764 1633 
Q 3022 1394 3022 966 
Q 3022 478 2636 193 
Q 2250 -91 1575 -91 
Q 1294 -91 989 -36 
Q 684 19 347 128 
L 347 722 
Q 666 556 975 473 
Q 1284 391 1588 391 
Q 1994 391 2212 530 
Q 2431 669 2431 922 
Q 2431 1156 2273 1281 
Q 2116 1406 1581 1522 
L 1381 1569 
Q 847 1681 609 1914 
Q 372 2147 372 2553 
Q 372 3047 722 3315 
Q 1072 3584 1716 3584 
Q 2034 3584 2315 3537 
Q 2597 3491 2834 3397 
z
" transform="scale(0.015625)"/>
      <path id="DejaVuSans-70" d="M 1159 525 
L 1159 -1331 
L 581 -1331 
L 581 3500 
L 1159 3500 
L 1159 2969 
Q 1341 3281 1617 3432 
Q 1894 3584 2278 3584 
Q 2916 3584 3314 3078 
Q 3713 2572 3713 1747 
Q 3713 922 3314 415 
Q 2916 -91 2278 -91 
Q 1894 -91 1617 61 
Q 1341 213 1159 525 
z
M 3116 1747 
Q 3116 2381 2855 2742 
Q 2594 3103 2138 3103 
Q 1681 3103 1420 2742 
Q 1159 2381 1159 1747 
Q 1159 1113 1420 752 
Q 1681 391 2138 391 
Q 2594 391 2855 752 
Q 3116 1113 3116 1747 
z
" transform="scale(0.015625)"/>
      <path id="DejaVuSans-6d" d="M 3328 2828 
Q 3544 3216 3844 3400 
Q 4144 3584 4550 3584 
Q 5097 3584 5394 3201 
Q 5691 2819 5691 2113 
L 5691 0 
L 5113 0 
L 5113 2094 
Q 5113 2597 4934 2840 
Q 4756 3084 4391 3084 
Q 3944 3084 3684 2787 
Q 3425 2491 3425 1978 
L 3425 0 
L 2847 0 
L 2847 2094 
Q 2847 2600 2669 2842 
Q 2491 3084 2119 3084 
Q 1678 3084 1418 2786 
Q 1159 2488 1159 1978 
L 1159 0 
L 581 0 
L 581 3500 
L 1159 3500 
L 1159 2956 
Q 1356 3278 1631 3431 
Q 1906 3584 2284 3584 
Q 2666 3584 2933 3390 
Q 3200 3197 3328 2828 
z
" transform="scale(0.015625)"/>
     </defs>
     <use xlink:href="#DejaVuSans-41"/>
     <use xlink:href="#DejaVuSans-72" x="68.408203"/>
     <use xlink:href="#DejaVuSans-63" x="107.271484"/>
     <use xlink:href="#DejaVuSans-68" x="162.251953"/>
     <use xlink:href="#DejaVuSans-57" x="225.630859"/>
     <use xlink:href="#DejaVuSans-69" x="322.257812"/>
     <use xlink:href="#DejaVuSans-6b" x="350.041016"/>
     <use xlink:href="#DejaVuSans-69" x="407.951172"/>
     <use xlink:href="#DejaVuSans-20" x="435.734375"/>
     <use xlink:href="#DejaVuSans-65" x="467.521484"/>
     <use xlink:href="#DejaVuSans-64" x="529.044922"/>
     <use xlink:href="#DejaVuSans-69" x="592.521484"/>
     <use xlink:href="#DejaVuSans-74" x="620.304688"/>
     <use xlink:href="#DejaVuSans-73" x="659.513672"/>
     <use xlink:href="#DejaVuSans-20" x="711.613281"/>
     <use xlink:href="#DejaVuSans-70" x="743.400391"/>
     <use xlink:href="#DejaVuSans-65" x="806.876953"/>
     <use xlink:href="#DejaVuSans-72" x="868.400391"/>
     <use xlink:href="#DejaVuSans-20" x="909.513672"/>
     <use xlink:href="#DejaVuSans-6d" x="941.300781"/>
     <use xlink:href="#DejaVuSans-6f" x="1038.712891"/>
     <use xlink:href="#DejaVuSans-6e" x="1099.894531"/>
     <use xlink:href="#DejaVuSans-74" x="1163.273438"/>
     <use xlink:href="#DejaVuSans-68" x="1202.482422"/>
    </g>
   </g>
  </g>
 </g>
 <defs>
  <clipPath id="p0d5d9b800b">
   <rect x="57.6" y="41.472" width="357.12" height="235.008"/>
  </clipPath>
 </defs>
</svg>
